Perun-BoldItalic.ufo
<glyph name="exclam" format="2">
  <advance width="357.0"/>
  <unicode hex="0021"/>
  <outline>
    <contour>
      <point x="89" y="191" type="line"/>
      <point x="187" y="191" type="line"/>
      <point x="316" y="722" type="line"/>
      <point x="166" y="722" type="line"/>
    </contour>
    <contour>
      <point x="41" y="0" type="line"/>
      <point x="171" y="0" type="line"/>
      <point x="193" y="115" type="line"/>
      <point x="63" y="115" type="line"/>
    </contour>
  </outline>
</glyph>
<glyph name="quotedbl" format="2">
  <advance width="492.0"/>
  <unicode hex="0022"/>
  <outline>
    <contour>
      <point x="41" y="432" type="line"/>
      <point x="71" y="722" type="line"/>
      <point x="221" y="722" type="line"/>
      <point x="139" y="432" type="line"/>
    </contour>
    <contour>
      <point x="271" y="432" type="line"/>
      <point x="301" y="722" type="line"/>
      <point x="451" y="722" type="line"/>
      <point x="369" y="432" type="line"/>
    </contour>
  </outline>
</glyph>
<glyph name="numbersign" format="2">
  <advance width="716.0"/>
  <unicode hex="0023"/>
  <outline>
    <contour>
      <point x="18" y="0" type="line"/>
      <point x="371" y="722" type="line"/>
      <point x="471" y="722" type="line"/>
      <point x="118" y="0" type="line"/>
    </contour>
    <contour>
      <point x="240" y="0" type="line"/>
      <point x="593" y="722" type="line"/>
      <point x="693" y="722" type="line"/>
      <point x="340" y="0" type="line"/>
    </contour>
    <contour>
      <point x="119" y="459" type="line"/>
      <point x="162" y="539" type="line"/>
      <point x="727" y="539" type="line"/>
      <point x="684" y="459" type="line"/>
    </contour>
    <contour>
      <point x="-17" y="204" type="line"/>
      <point x="26" y="284" type="line"/>
      <point x="591" y="284" type="line"/>
      <point x="548" y="204" type="line"/>
    </contour>
  </outline>
</glyph>
<glyph name="dollar" format="2">
  <advance width="890.0"/>
  <unicode hex="0024"/>
  <outline>
    <contour>
      <point x="165" y="720" type="line"/>
      <point x="181" y="800" type="line"/>
      <point x="301" y="800" type="line"/>
      <point x="285" y="720" type="line"/>
    </contour>
    <contour>
      <point x="105" y="410" type="line"/>
      <point x="150" y="641" type="line"/>
      <point x="270" y="641" type="line"/>
      <point x="225" y="410" type="line"/>
    </contour>
    <contour>
      <point x="43" y="90" type="line"/>
      <point x="89" y="330" type="line"/>
      <point x="209" y="330" type="line"/>
      <point x="163" y="90" type="line"/>
    </contour>
    <contour>
      <point x="11" y="-76" type="line"/>
      <point x="27" y="10" type="line"/>
      <point x="147" y="10" type="line"/>
      <point x="130" y="-76" type="line"/>
    </contour>
    <contour>
      <point x="655" y="181" type="qcurve" smooth="yes"/>
      <point x="655" y="205"/>
      <point x="660" y="230" type="qcurve"/>
      <point x="810" y="230" type="line"/>
      <point x="806" y="207"/>
      <point x="806" y="189" type="qcurve" smooth="yes"/>
      <point x="806" y="159"/>
      <point x="831" y="121"/>
      <point x="884" y="103"/>
      <point x="926" y="103" type="qcurve" smooth="yes"/>
      <point x="996" y="103"/>
      <point x="1081" y="161"/>
      <point x="1081" y="209" type="qcurve" smooth="yes"/>
      <point x="1081" y="245"/>
      <point x="1018" y="291"/>
      <point x="951" y="306" type="qcurve" smooth="yes"/>
      <point x="848" y="329"/>
      <point x="736" y="429"/>
      <point x="736" y="499" type="qcurve" smooth="yes"/>
      <point x="736" y="570"/>
      <point x="811" y="678"/>
      <point x="946" y="737"/>
      <point x="1036" y="737" type="qcurve" smooth="yes"/>
      <point x="1105" y="737"/>
      <point x="1212" y="698"/>
      <point x="1271" y="623"/>
      <point x="1271" y="569" type="qcurve" smooth="yes"/>
      <point x="1271" y="546"/>
      <point x="1266" y="520" type="qcurve"/>
      <point x="1116" y="520" type="line"/>
      <point x="1119" y="533"/>
      <point x="1119" y="544" type="qcurve" smooth="yes"/>
      <point x="1119" y="584"/>
      <point x="1066" y="628"/>
      <point x="1018" y="628" type="qcurve" smooth="yes"/>
      <point x="980" y="628"/>
      <point x="922" y="604"/>
      <point x="890" y="561"/>
      <point x="890" y="533" type="qcurve" smooth="yes"/>
      <point x="890" y="506"/>
      <point x="916" y="465"/>
      <point x="967" y="436"/>
      <point x="1006" y="428" type="qcurve" smooth="yes"/>
      <point x="1086" y="410"/>
      <point x="1187" y="359"/>
      <point x="1234" y="287"/>
      <point x="1234" y="237" type="qcurve" smooth="yes"/>
      <point x="1234" y="162"/>
      <point x="1155" y="50"/>
      <point x="1011" y="-12"/>
      <point x="916" y="-12" type="qcurve" smooth="yes"/>
      <point x="843" y="-12"/>
      <point x="724" y="35"/>
      <point x="655" y="122"/>
    </contour>
  </outline>
</glyph>
<glyph name="ampersand" format="2">
  <advance width="789.0"/>
  <unicode hex="0026"/>
  <outline>
    <contour>
      <point x="184" y="421" type="line" smooth="yes"/>
      <point x="163" y="449"/>
      <point x="143" y="500"/>
      <point x="143" y="531" type="qcurve" smooth="yes"/>
      <point x="143" y="580"/>
      <point x="186" y="656"/>
      <point x="258" y="708"/>
      <point x="344" y="735"/>
      <point x="388" y="735" type="qcurve" smooth="yes"/>
      <point x="431" y="735"/>
      <point x="513" y="706"/>
      <point x="565" y="645"/>
      <point x="565" y="598" type="qcurve" smooth="yes"/>
      <point x="565" y="550"/>
      <point x="512" y="477"/>
      <point x="433" y="421"/>
      <point x="394" y="398" type="qcurve" smooth="yes"/>
      <point x="352" y="375" type="line"/>
      <point x="305" y="446" type="line"/>
      <point x="376" y="485" type="line" smooth="yes"/>
      <point x="393" y="495"/>
      <point x="421" y="522"/>
      <point x="437" y="556"/>
      <point x="437" y="576" type="qcurve" smooth="yes"/>
      <point x="437" y="602"/>
      <point x="405" y="635"/>
      <point x="376" y="635" type="qcurve" smooth="yes"/>
      <point x="351" y="635"/>
      <point x="306" y="613"/>
      <point x="278" y="574"/>
      <point x="278" y="550" type="qcurve" smooth="yes"/>
      <point x="278" y="534"/>
      <point x="293" y="501"/>
      <point x="329" y="450"/>
      <point x="360" y="410" type="qcurve" smooth="yes"/>
      <point x="677" y="0" type="line"/>
      <point x="509" y="0" type="line"/>
    </contour>
    <contour>
      <point x="17" y="164" type="qcurve" smooth="yes"/>
      <point x="17" y="213"/>
      <point x="58" y="298"/>
      <point x="128" y="367"/>
      <point x="173" y="391" type="qcurve" smooth="yes"/>
      <point x="226" y="421" type="line"/>
      <point x="286" y="344" type="line"/>
      <point x="252" y="326" type="line" smooth="yes"/>
      <point x="228" y="313"/>
      <point x="185" y="263"/>
      <point x="159" y="204"/>
      <point x="159" y="176" type="qcurve" smooth="yes"/>
      <point x="159" y="134"/>
      <point x="221" y="85"/>
      <point x="276" y="85" type="qcurve" smooth="yes"/>
      <point x="305" y="85"/>
      <point x="366" y="100"/>
      <point x="421" y="127"/>
      <point x="441" y="144" type="qcurve"/>
      <point x="502" y="62" type="line"/>
      <point x="467" y="36"/>
      <point x="392" y="2"/>
      <point x="307" y="-15"/>
      <point x="259" y="-15" type="qcurve" smooth="yes"/>
      <point x="144" y="-15"/>
      <point x="17" y="78"/>
    </contour>
    <contour>
      <point x="489" y="205" type="line"/>
      <point x="503" y="222"/>
      <point x="527" y="264"/>
      <point x="545" y="309"/>
      <point x="556" y="356"/>
      <point x="556" y="379" type="qcurve"/>
      <point x="557" y="381" type="line"/>
      <point x="696" y="381" type="line"/>
      <point x="684" y="319"/>
      <point x="645" y="217"/>
      <point x="592" y="139"/>
      <point x="558" y="112" type="qcurve"/>
    </contour>
  </outline>
</glyph>
<glyph name="quotesingle" format="2">
  <advance width="262.0"/>
  <unicode hex="0027"/>
  <outline>
    <contour>
      <point x="41" y="432" type="line"/>
      <point x="71" y="722" type="line"/>
      <point x="221" y="722" type="line"/>
      <point x="139" y="432" type="line"/>
    </contour>
  </outline>
</glyph>
<glyph name="parenleft" format="2">
  <advance width="372.0"/>
  <unicode hex="0028"/>
  <outline>
    <contour>
      <point x="30" y="101" type="qcurve" smooth="yes"/>
      <point x="30" y="270"/>
      <point x="137" y="596"/>
      <point x="229" y="737" type="qcurve"/>
      <point x="339" y="737" type="line"/>
      <point x="253" y="582"/>
      <point x="152" y="264"/>
      <point x="152" y="86" type="qcurve" smooth="yes"/>
      <point x="152" y="34"/>
      <point x="161" y="-75"/>
      <point x="170" y="-132" type="qcurve"/>
      <point x="60" y="-132" type="line"/>
      <point x="30" y="-18"/>
    </contour>
  </outline>
</glyph>
<glyph name="parenright" format="2">
  <advance width="385.0"/>
  <unicode hex="0029"/>
  <outline>
    <contour>
      <point x="-6" y="-133" type="line"/>
      <point x="50" y="-29"/>
      <point x="135" y="181"/>
      <point x="181" y="402"/>
      <point x="181" y="521" type="qcurve" smooth="yes"/>
      <point x="181" y="627"/>
      <point x="163" y="736" type="qcurve"/>
      <point x="273" y="736" type="line"/>
      <point x="302" y="624"/>
      <point x="302" y="504" type="qcurve" smooth="yes"/>
      <point x="302" y="334"/>
      <point x="195" y="9"/>
      <point x="104" y="-133" type="qcurve"/>
    </contour>
  </outline>
</glyph>
<glyph name="asterisk" format="2">
  <advance width="640.0"/>
  <unicode hex="002A"/>
  <outline>
    <contour>
      <point x="178" y="388" type="line"/>
      <point x="303" y="512" type="line"/>
      <point x="143" y="486" type="line"/>
      <point x="163" y="588" type="line"/>
      <point x="313" y="562" type="line"/>
      <point x="236" y="686" type="line"/>
      <point x="338" y="735" type="line"/>
      <point x="365" y="594" type="line"/>
      <point x="446" y="735" type="line"/>
      <point x="529" y="686" type="line"/>
      <point x="404" y="562" type="line"/>
      <point x="564" y="588" type="line"/>
      <point x="544" y="486" type="line"/>
      <point x="394" y="512" type="line"/>
      <point x="471" y="388" type="line"/>
      <point x="369" y="338" type="line"/>
      <point x="343" y="480" type="line"/>
      <point x="261" y="338" type="line"/>
    </contour>
  </outline>
</glyph>
<glyph name="plus" format="2">
  <advance width="665.0"/>
  <unicode hex="002B"/>
  <outline>
    <contour>
      <point x="21" y="244" type="line"/>
      <point x="44" y="364" type="line"/>
      <point x="284" y="364" type="line"/>
      <point x="331" y="604" type="line"/>
      <point x="451" y="604" type="line"/>
      <point x="404" y="364" type="line"/>
      <point x="644" y="364" type="line"/>
      <point x="621" y="244" type="line"/>
      <point x="381" y="244" type="line"/>
      <point x="334" y="4" type="line"/>
      <point x="214" y="4" type="line"/>
      <point x="261" y="244" type="line"/>
    </contour>
  </outline>
</glyph>
<glyph name="comma" format="2">
  <advance width="310.0"/>
  <unicode hex="002C"/>
  <outline>
    <contour>
      <point x="11" y="-129" type="line"/>
      <point x="139" y="123" type="line"/>
      <point x="275" y="123" type="line"/>
      <point x="106" y="-129" type="line"/>
    </contour>
  </outline>
</glyph>
<glyph name="hyphen" format="2">
  <advance width="364.0"/>
  <unicode hex="002D"/>
  <outline>
    <contour>
      <point x="41" y="190" type="line"/>
      <point x="66" y="321" type="line"/>
      <point x="323" y="321" type="line"/>
      <point x="298" y="190" type="line"/>
    </contour>
  </outline>
</glyph>
<glyph name="slash" format="2">
  <advance width="426.0"/>
  <unicode hex="002F"/>
  <outline>
    <contour>
      <point x="-36" y="-52" type="line"/>
      <point x="354" y="736" type="line"/>
      <point x="453" y="736" type="line"/>
      <point x="63" y="-52" type="line"/>
    </contour>
  </outline>
</glyph>
<glyph name="zero" format="2">
  <advance width="573.0"/>
  <unicode hex="0030"/>
  <outline>
    <contour>
      <point x="17" y="211" type="qcurve" smooth="yes"/>
      <point x="17" y="273"/>
      <point x="40" y="415"/>
      <point x="88" y="554"/>
      <point x="167" y="668"/>
      <point x="280" y="736"/>
      <point x="355" y="736" type="qcurve" smooth="yes"/>
      <point x="432" y="736"/>
      <point x="519" y="670"/>
      <point x="554" y="563"/>
      <point x="554" y="500" type="qcurve" smooth="yes"/>
      <point x="554" y="438"/>
      <point x="531" y="298"/>
      <point x="480" y="162"/>
      <point x="399" y="52"/>
      <point x="285" y="-14"/>
      <point x="210" y="-14" type="qcurve" smooth="yes"/>
      <point x="146" y="-14"/>
      <point x="60" y="36"/>
      <point x="17" y="136"/>
    </contour>
    <contour>
      <point x="164" y="218" type="qcurve" smooth="yes"/>
      <point x="164" y="183"/>
      <point x="176" y="123"/>
      <point x="206" y="86"/>
      <point x="233" y="86" type="qcurve" smooth="yes"/>
      <point x="264" y="86"/>
      <point x="314" y="134"/>
      <point x="354" y="213"/>
      <point x="383" y="308"/>
      <point x="403" y="406"/>
      <point x="413" y="490"/>
      <point x="413" y="517" type="qcurve" smooth="yes"/>
      <point x="413" y="565"/>
      <point x="384" y="636"/>
      <point x="343" y="636" type="qcurve" smooth="yes"/>
      <point x="311" y="636"/>
      <point x="260" y="590"/>
      <point x="221" y="515"/>
      <point x="192" y="423"/>
      <point x="173" y="328"/>
      <point x="164" y="245"/>
    </contour>
  </outline>
</glyph>
<glyph name="one" format="2">
  <advance width="573.0"/>
  <unicode hex="0031"/>
  <outline>
    <contour>
      <point x="201" y="0" type="line"/>
      <point x="313" y="579" type="line"/>
      <point x="269" y="548"/>
      <point x="174" y="503"/>
      <point x="124" y="487" type="qcurve"/>
      <point x="148" y="610" type="line"/>
      <point x="183" y="623"/>
      <point x="254" y="656"/>
      <point x="321" y="697"/>
      <point x="351" y="722" type="qcurve"/>
      <point x="476" y="722" type="line"/>
      <point x="336" y="0" type="line"/>
    </contour>
  </outline>
</glyph>
<glyph name="two" format="2">
  <advance width="573.0"/>
  <unicode hex="0032"/>
  <outline>
    <contour>
      <point x="-40" y="0" type="line"/>
      <point x="-16" y="128" type="line"/>
      <point x="13" y="143"/>
      <point x="102" y="195"/>
      <point x="203" y="262"/>
      <point x="303" y="339"/>
      <point x="385" y="423"/>
      <point x="435" y="509"/>
      <point x="435" y="550" type="qcurve" smooth="yes"/>
      <point x="435" y="582"/>
      <point x="389" y="626"/>
      <point x="352" y="626" type="qcurve" smooth="yes"/>
      <point x="310" y="626"/>
      <point x="242" y="568"/>
      <point x="233" y="523" type="qcurve"/>
      <point x="88" y="523" type="line"/>
      <point x="100" y="584"/>
      <point x="184" y="680"/>
      <point x="307" y="735"/>
      <point x="379" y="735" type="qcurve" smooth="yes"/>
      <point x="470" y="735"/>
      <point x="575" y="646"/>
      <point x="575" y="571" type="qcurve" smooth="yes"/>
      <point x="575" y="518"/>
      <point x="532" y="420"/>
      <point x="457" y="331"/>
      <point x="363" y="252"/>
      <point x="261" y="185"/>
      <point x="164" y="128"/>
      <point x="123" y="107" type="qcurve"/>
      <point x="125" y="114" type="line"/>
      <point x="492" y="114" type="line"/>
      <point x="470" y="0" type="line"/>
    </contour>
  </outline>
</glyph>
<glyph name="three" format="2">
  <advance width="573.0"/>
  <unicode hex="0033"/>
  <outline>
    <contour>
      <point x="8" y="143" type="qcurve" smooth="yes"/>
      <point x="8" y="171"/>
      <point x="14" y="203" type="qcurve"/>
      <point x="157" y="203" type="line"/>
      <point x="154" y="186"/>
      <point x="154" y="172" type="qcurve" smooth="yes"/>
      <point x="154" y="136"/>
      <point x="193" y="96"/>
      <point x="230" y="96" type="qcurve" smooth="yes"/>
      <point x="260" y="96"/>
      <point x="307" y="122"/>
      <point x="340" y="166"/>
      <point x="358" y="219"/>
      <point x="358" y="247" type="qcurve" smooth="yes"/>
      <point x="358" y="273"/>
      <point x="331" y="306"/>
      <point x="274" y="321"/>
      <point x="228" y="321" type="qcurve" smooth="yes"/>
      <point x="210" y="321" type="line"/>
      <point x="231" y="431" type="line"/>
      <point x="248" y="431" type="line" smooth="yes"/>
      <point x="290" y="431"/>
      <point x="360" y="459"/>
      <point x="404" y="518"/>
      <point x="404" y="562" type="qcurve" smooth="yes"/>
      <point x="404" y="593"/>
      <point x="367" y="626"/>
      <point x="332" y="626" type="qcurve" smooth="yes"/>
      <point x="302" y="626"/>
      <point x="255" y="603"/>
      <point x="225" y="561"/>
      <point x="219" y="532" type="qcurve"/>
      <point x="79" y="532" type="line"/>
      <point x="91" y="595"/>
      <point x="169" y="687"/>
      <point x="290" y="736"/>
      <point x="367" y="736" type="qcurve" smooth="yes"/>
      <point x="450" y="736"/>
      <point x="547" y="653"/>
      <point x="547" y="585" type="qcurve" smooth="yes"/>
      <point x="547" y="541"/>
      <point x="512" y="464"/>
      <point x="447" y="409"/>
      <point x="404" y="396" type="qcurve"/>
      <point x="405" y="400" type="line"/>
      <point x="453" y="386"/>
      <point x="503" y="320"/>
      <point x="503" y="268" type="qcurve" smooth="yes"/>
      <point x="503" y="208"/>
      <point x="460" y="105"/>
      <point x="384" y="28"/>
      <point x="280" y="-14"/>
      <point x="220" y="-14" type="qcurve" smooth="yes"/>
      <point x="113" y="-14"/>
      <point x="8" y="64"/>
    </contour>
  </outline>
</glyph>
<glyph name="four" format="2">
  <advance width="573.0"/>
  <unicode hex="0034"/>
  <outline>
    <contour>
      <point x="-17" y="158" type="line"/>
      <point x="8" y="288" type="line"/>
      <point x="357" y="722" type="line"/>
      <point x="532" y="722" type="line"/>
      <point x="392" y="0" type="line"/>
      <point x="257" y="0" type="line"/>
      <point x="374" y="602" type="line"/>
      <point x="380" y="600" type="line"/>
      <point x="120" y="263" type="line"/>
      <point x="116" y="273" type="line"/>
      <point x="325" y="273" type="line"/>
      <point x="303" y="158" type="line"/>
    </contour>
    <contour>
      <point x="408" y="158" type="line"/>
      <point x="430" y="273" type="line"/>
      <point x="535" y="273" type="line"/>
      <point x="513" y="158" type="line"/>
    </contour>
  </outline>
</glyph>
<glyph name="five" format="2">
  <advance width="573.0"/>
  <unicode hex="0035"/>
  <outline>
    <contour>
      <point x="2" y="147" type="qcurve" smooth="yes"/>
      <point x="2" y="165"/>
      <point x="5" y="184" type="qcurve"/>
      <point x="141" y="184" type="line"/>
      <point x="138" y="173"/>
      <point x="138" y="163" type="qcurve" smooth="yes"/>
      <point x="138" y="130"/>
      <point x="182" y="96"/>
      <point x="220" y="96" type="qcurve" smooth="yes"/>
      <point x="260" y="96"/>
      <point x="319" y="131"/>
      <point x="359" y="188"/>
      <point x="379" y="257"/>
      <point x="379" y="292" type="qcurve" smooth="yes"/>
      <point x="379" y="335"/>
      <point x="338" y="389"/>
      <point x="295" y="389" type="qcurve" smooth="yes"/>
      <point x="268" y="389"/>
      <point x="222" y="369"/>
      <point x="183" y="335"/>
      <point x="168" y="312" type="qcurve"/>
      <point x="39" y="312" type="line"/>
      <point x="119" y="722" type="line"/>
      <point x="545" y="722" type="line"/>
      <point x="523" y="606" type="line"/>
      <point x="224" y="606" type="line"/>
      <point x="238" y="618" type="line"/>
      <point x="201" y="428" type="line"/>
      <point x="197" y="433" type="line"/>
      <point x="224" y="459"/>
      <point x="305" y="491"/>
      <point x="352" y="491" type="qcurve" smooth="yes"/>
      <point x="436" y="491"/>
      <point x="522" y="392"/>
      <point x="522" y="316" type="qcurve" smooth="yes"/>
      <point x="522" y="248"/>
      <point x="469" y="129"/>
      <point x="377" y="38"/>
      <point x="256" y="-14"/>
      <point x="188" y="-14" type="qcurve" smooth="yes"/>
      <point x="103" y="-14"/>
      <point x="2" y="67"/>
    </contour>
  </outline>
</glyph>
<glyph name="six" format="2">
  <advance width="573.0"/>
  <unicode hex="0036"/>
  <outline>
    <contour>
      <point x="13" y="208" type="qcurve" smooth="yes"/>
      <point x="13" y="262"/>
      <point x="33" y="382"/>
      <point x="74" y="500"/>
      <point x="135" y="606"/>
      <point x="218" y="688"/>
      <point x="322" y="735"/>
      <point x="385" y="735" type="qcurve" smooth="yes"/>
      <point x="472" y="735"/>
      <point x="565" y="651"/>
      <point x="565" y="583" type="qcurve" smooth="yes"/>
      <point x="565" y="563"/>
      <point x="561" y="542" type="qcurve"/>
      <point x="421" y="542" type="line"/>
      <point x="423" y="551"/>
      <point x="423" y="559" type="qcurve" smooth="yes"/>
      <point x="423" y="588"/>
      <point x="386" y="624"/>
      <point x="355" y="624" type="qcurve" smooth="yes"/>
      <point x="315" y="624"/>
      <point x="253" y="569"/>
      <point x="208" y="488"/>
      <point x="180" y="404"/>
      <point x="174" y="374" type="qcurve"/>
      <point x="211" y="418"/>
      <point x="307" y="461"/>
      <point x="356" y="461" type="qcurve" smooth="yes"/>
      <point x="436" y="461"/>
      <point x="519" y="362"/>
      <point x="519" y="288" type="qcurve" smooth="yes"/>
      <point x="519" y="225"/>
      <point x="471" y="115"/>
      <point x="386" y="32"/>
      <point x="274" y="-15"/>
      <point x="211" y="-15" type="qcurve" smooth="yes"/>
      <point x="136" y="-15"/>
      <point x="49" y="45"/>
      <point x="13" y="146"/>
    </contour>
    <contour>
      <point x="163" y="182" type="qcurve" smooth="yes"/>
      <point x="163" y="143"/>
      <point x="199" y="93"/>
      <point x="242" y="93" type="qcurve" smooth="yes"/>
      <point x="287" y="93"/>
      <point x="345" y="150"/>
      <point x="371" y="233"/>
      <point x="371" y="272" type="qcurve" smooth="yes"/>
      <point x="371" y="311"/>
      <point x="336" y="360"/>
      <point x="294" y="360" type="qcurve" smooth="yes"/>
      <point x="248" y="360"/>
      <point x="190" y="303"/>
      <point x="163" y="221"/>
    </contour>
  </outline>
</glyph>
<glyph name="seven" format="2">
  <advance width="573.0"/>
  <unicode hex="0037"/>
  <outline>
    <contour>
      <point x="48" y="0" type="line"/>
      <point x="450" y="618" type="line"/>
      <point x="455" y="607" type="line"/>
      <point x="93" y="607" type="line"/>
      <point x="115" y="722" type="line"/>
      <point x="599" y="722" type="line"/>
      <point x="572" y="582" type="line"/>
      <point x="214" y="0" type="line"/>
    </contour>
  </outline>
</glyph>
<glyph name="eight" format="2">
  <advance width="573.0"/>
  <unicode hex="0038"/>
  <outline>
    <contour>
      <point x="149" y="180" type="qcurve" smooth="yes"/>
      <point x="149" y="140"/>
      <point x="193" y="95"/>
      <point x="234" y="95" type="qcurve" smooth="yes"/>
      <point x="274" y="95"/>
      <point x="333" y="137"/>
      <point x="366" y="204"/>
      <point x="366" y="242" type="qcurve" smooth="yes"/>
      <point x="366" y="281"/>
      <point x="320" y="327"/>
      <point x="279" y="327" type="qcurve" smooth="yes"/>
      <point x="239" y="327"/>
      <point x="181" y="285"/>
      <point x="149" y="217"/>
    </contour>
    <contour>
      <point x="224" y="509" type="qcurve" smooth="yes"/>
      <point x="224" y="476"/>
      <point x="265" y="439"/>
      <point x="301" y="439" type="qcurve" smooth="yes"/>
      <point x="325" y="439"/>
      <point x="366" y="457"/>
      <point x="396" y="488"/>
      <point x="412" y="530"/>
      <point x="412" y="553" type="qcurve" smooth="yes"/>
      <point x="412" y="586"/>
      <point x="372" y="624"/>
      <point x="337" y="624" type="qcurve" smooth="yes"/>
      <point x="304" y="624"/>
      <point x="254" y="593"/>
      <point x="224" y="540"/>
    </contour>
    <contour>
      <point x="-2" y="150" type="qcurve" smooth="yes"/>
      <point x="-2" y="211"/>
      <point x="46" y="305"/>
      <point x="131" y="371"/>
      <point x="188" y="388" type="qcurve"/>
      <point x="135" y="404"/>
      <point x="80" y="469"/>
      <point x="80" y="516" type="qcurve" smooth="yes"/>
      <point x="80" y="572"/>
      <point x="130" y="654"/>
      <point x="212" y="709"/>
      <point x="311" y="736"/>
      <point x="361" y="736" type="qcurve" smooth="yes"/>
      <point x="457" y="736"/>
      <point x="565" y="657"/>
      <point x="565" y="589" type="qcurve" smooth="yes"/>
      <point x="565" y="536"/>
      <point x="516" y="454"/>
      <point x="435" y="399"/>
      <point x="386" y="388" type="qcurve"/>
      <point x="447" y="372"/>
      <point x="511" y="296"/>
      <point x="511" y="239" type="qcurve" smooth="yes"/>
      <point x="511" y="177"/>
      <point x="462" y="82"/>
      <point x="378" y="18"/>
      <point x="271" y="-14"/>
      <point x="214" y="-14" type="qcurve" smooth="yes"/>
      <point x="111" y="-14"/>
      <point x="-2" y="73"/>
    </contour>
  </outline>
</glyph>
<glyph name="nine" format="2">
  <advance width="573.0"/>
  <unicode hex="0039"/>
  <outline>
    <contour>
      <point x="7" y="141" type="qcurve" smooth="yes"/>
      <point x="7" y="160"/>
      <point x="10" y="180" type="qcurve"/>
      <point x="150" y="180" type="line"/>
      <point x="149" y="170"/>
      <point x="149" y="162" type="qcurve" smooth="yes"/>
      <point x="149" y="132"/>
      <point x="186" y="93"/>
      <point x="222" y="93" type="qcurve" smooth="yes"/>
      <point x="254" y="93"/>
      <point x="305" y="125"/>
      <point x="343" y="179"/>
      <point x="370" y="244"/>
      <point x="389" y="313"/>
      <point x="395" y="343" type="qcurve"/>
      <point x="374" y="318"/>
      <point x="315" y="279"/>
      <point x="247" y="257"/>
      <point x="211" y="257" type="qcurve" smooth="yes"/>
      <point x="159" y="257"/>
      <point x="88" y="304"/>
      <point x="51" y="382"/>
      <point x="51" y="431" type="qcurve" smooth="yes"/>
      <point x="51" y="494"/>
      <point x="101" y="605"/>
      <point x="187" y="689"/>
      <point x="299" y="736"/>
      <point x="363" y="736" type="qcurve" smooth="yes"/>
      <point x="437" y="736"/>
      <point x="522" y="676"/>
      <point x="558" y="575"/>
      <point x="558" y="514" type="qcurve" smooth="yes"/>
      <point x="558" y="461"/>
      <point x="539" y="342"/>
      <point x="500" y="224"/>
      <point x="440" y="117"/>
      <point x="359" y="34"/>
      <point x="257" y="-14"/>
      <point x="194" y="-14" type="qcurve" smooth="yes"/>
      <point x="106" y="-14"/>
      <point x="7" y="72"/>
    </contour>
    <contour>
      <point x="198" y="445" type="qcurve" smooth="yes"/>
      <point x="198" y="407"/>
      <point x="234" y="357"/>
      <point x="276" y="357" type="qcurve" smooth="yes"/>
      <point x="321" y="357"/>
      <point x="378" y="414"/>
      <point x="406" y="497"/>
      <point x="406" y="536" type="qcurve" smooth="yes"/>
      <point x="406" y="575"/>
      <point x="370" y="624"/>
      <point x="328" y="624" type="qcurve" smooth="yes"/>
      <point x="283" y="624"/>
      <point x="225" y="567"/>
      <point x="198" y="484"/>
    </contour>
  </outline>
</glyph>
<glyph name="semicolon" format="2">
  <advance width="310.0"/>
  <unicode hex="003B"/>
  <outline>
    <contour>
      <point x="-65" y="-129" type="line"/>
      <point x="63" y="123" type="line"/>
      <point x="199" y="123" type="line"/>
      <point x="30" y="-129" type="line"/>
    </contour>
    <contour>
      <point x="109" y="368" type="line"/>
      <point x="137" y="510" type="line"/>
      <point x="273" y="510" type="line"/>
      <point x="245" y="368" type="line"/>
    </contour>
  </outline>
</glyph>
<glyph name="less" format="2">
  <advance width="801.0"/>
  <unicode hex="003C"/>
  <outline>
    <contour>
      <point x="30" y="209" type="line"/>
      <point x="66" y="391" type="line"/>
      <point x="770" y="621" type="line"/>
      <point x="747" y="499" type="line"/>
      <point x="160" y="296" type="line"/>
      <point x="162" y="304" type="line"/>
      <point x="669" y="101" type="line"/>
      <point x="646" y="-21" type="line"/>
    </contour>
  </outline>
</glyph>
<glyph name="equal" format="2">
  <advance width="1000.0"/>
  <unicode hex="003D"/>
  <outline>
    <contour>
      <point x="223" y="360" type="line"/>
      <point x="247" y="482" type="line"/>
      <point x="847" y="482" type="line"/>
      <point x="823" y="360" type="line"/>
    </contour>
    <contour>
      <point x="176" y="118" type="line"/>
      <point x="200" y="240" type="line"/>
      <point x="800" y="240" type="line"/>
      <point x="776" y="118" type="line"/>
    </contour>
  </outline>
</glyph>
<glyph name="greater" format="2">
  <advance width="720.0"/>
  <unicode hex="003E"/>
  <outline>
    <contour>
      <point x="-34" y="-21" type="line"/>
      <point x="-11" y="101" type="line"/>
      <point x="576" y="304" type="line"/>
      <point x="574" y="296" type="line"/>
      <point x="67" y="499" type="line"/>
      <point x="90" y="621" type="line"/>
      <point x="706" y="391" type="line"/>
      <point x="670" y="209" type="line"/>
    </contour>
  </outline>
</glyph>
<glyph name="question" format="2">
  <advance width="539.0"/>
  <unicode hex="003F"/>
  <outline>
    <contour>
      <point x="92" y="0" type="line"/>
      <point x="119" y="142" type="line"/>
      <point x="255" y="142" type="line"/>
      <point x="228" y="0" type="line"/>
    </contour>
    <contour>
      <point x="134" y="211" type="line"/>
      <point x="146" y="276" type="line" smooth="yes"/>
      <point x="154" y="316"/>
      <point x="194" y="368"/>
      <point x="246" y="404"/>
      <point x="301" y="435"/>
      <point x="349" y="472"/>
      <point x="378" y="526"/>
      <point x="378" y="567" type="qcurve" smooth="yes"/>
      <point x="378" y="598"/>
      <point x="335" y="632"/>
      <point x="299" y="632" type="qcurve" smooth="yes"/>
      <point x="268" y="632"/>
      <point x="218" y="609"/>
      <point x="172" y="564"/>
      <point x="148" y="532" type="qcurve"/>
      <point x="67" y="593" type="line"/>
      <point x="117" y="663"/>
      <point x="265" y="734"/>
      <point x="341" y="734" type="qcurve" smooth="yes"/>
      <point x="419" y="734"/>
      <point x="523" y="663"/>
      <point x="523" y="595" type="qcurve" smooth="yes"/>
      <point x="523" y="539"/>
      <point x="492" y="467"/>
      <point x="442" y="422"/>
      <point x="384" y="389"/>
      <point x="329" y="353"/>
      <point x="287" y="302"/>
      <point x="279" y="261" type="qcurve" smooth="yes"/>
      <point x="270" y="211" type="line"/>
    </contour>
  </outline>
</glyph>
<glyph name="at" format="2">
  <advance width="1039.0"/>
  <unicode hex="0040"/>
  <outline>
    <contour>
      <point x="10" y="153" type="qcurve" smooth="yes"/>
      <point x="10" y="250"/>
      <point x="73" y="425"/>
      <point x="186" y="570"/>
      <point x="338" y="676"/>
      <point x="516" y="734"/>
      <point x="612" y="734" type="qcurve" smooth="yes"/>
      <point x="725" y="734"/>
      <point x="898" y="654"/>
      <point x="997" y="502"/>
      <point x="997" y="395" type="qcurve" smooth="yes"/>
      <point x="997" y="345"/>
      <point x="975" y="237"/>
      <point x="930" y="136"/>
      <point x="863" y="54"/>
      <point x="772" y="6"/>
      <point x="714" y="6" type="qcurve" smooth="yes"/>
      <point x="680" y="6"/>
      <point x="629" y="23"/>
      <point x="594" y="59"/>
      <point x="585" y="87" type="qcurve"/>
      <point x="564" y="66"/>
      <point x="510" y="31"/>
      <point x="451" y="10"/>
      <point x="424" y="10" type="qcurve" smooth="yes"/>
      <point x="367" y="10"/>
      <point x="289" y="61"/>
      <point x="249" y="149"/>
      <point x="249" y="203" type="qcurve" smooth="yes"/>
      <point x="249" y="255"/>
      <point x="285" y="362"/>
      <point x="352" y="452"/>
      <point x="445" y="507"/>
      <point x="502" y="507" type="qcurve" smooth="yes"/>
      <point x="534" y="507"/>
      <point x="583" y="490"/>
      <point x="619" y="460"/>
      <point x="632" y="440" type="qcurve"/>
      <point x="642" y="491" type="line"/>
      <point x="778" y="491" type="line"/>
      <point x="719" y="186" type="line" smooth="yes"/>
      <point x="716" y="172"/>
      <point x="716" y="157" type="qcurve" smooth="yes"/>
      <point x="716" y="137"/>
      <point x="728" y="105"/>
      <point x="745" y="105" type="qcurve" smooth="yes"/>
      <point x="767" y="105"/>
      <point x="802" y="146"/>
      <point x="828" y="210"/>
      <point x="846" y="282"/>
      <point x="855" y="345"/>
      <point x="855" y="365" type="qcurve" smooth="yes"/>
      <point x="855" y="480"/>
      <point x="722" y="618"/>
      <point x="586" y="618" type="qcurve" smooth="yes"/>
      <point x="498" y="618"/>
      <point x="341" y="544"/>
      <point x="220" y="417"/>
      <point x="151" y="257"/>
      <point x="151" y="171" type="qcurve" smooth="yes"/>
      <point x="151" y="87"/>
      <point x="229" y="-31"/>
      <point x="370" y="-94"/>
      <point x="464" y="-94" type="qcurve" smooth="yes"/>
      <point x="500" y="-94"/>
      <point x="572" y="-88"/>
      <point x="644" y="-74"/>
      <point x="679" y="-63" type="qcurve"/>
      <point x="654" y="-196" type="line"/>
      <point x="619" y="-202"/>
      <point x="539" y="-209"/>
      <point x="465" y="-213"/>
      <point x="440" y="-213" type="qcurve" smooth="yes"/>
      <point x="310" y="-213"/>
      <point x="116" y="-125"/>
      <point x="10" y="39"/>
    </contour>
    <contour>
      <point x="389" y="211" type="qcurve" smooth="yes"/>
      <point x="389" y="173"/>
      <point x="423" y="115"/>
      <point x="463" y="115" type="qcurve" smooth="yes"/>
      <point x="497" y="115"/>
      <point x="548" y="155"/>
      <point x="582" y="217"/>
      <point x="600" y="286"/>
      <point x="600" y="315" type="qcurve" smooth="yes"/>
      <point x="600" y="350"/>
      <point x="569" y="402"/>
      <point x="529" y="402" type="qcurve" smooth="yes"/>
      <point x="496" y="402"/>
      <point x="443" y="365"/>
      <point x="407" y="307"/>
      <point x="389" y="241"/>
    </contour>
  </outline>
</glyph>
<glyph name="A" format="2">
  <advance width="731.0"/>
  <unicode hex="0041"/>
  <outline>
    <contour>
      <point x="10" y="0" type="line"/>
      <point x="421" y="720" type="line"/>
      <point x="570" y="720" type="line"/>
      <point x="700" y="0" type="line"/>
      <point x="555" y="0" type="line"/>
      <point x="465" y="564" type="line"/>
      <point x="155" y="0" type="line"/>
    </contour>
    <contour>
      <point x="215" y="154" type="line"/>
      <point x="279" y="269" type="line"/>
      <point x="540" y="269" type="line"/>
      <point x="560" y="154" type="line"/>
    </contour>
  </outline>
</glyph>
<glyph name="B" format="2">
  <advance width="668.0"/>
  <unicode hex="0042"/>
  <outline>
    <contour>
      <point x="137" y="0" type="line"/>
      <point x="159" y="115" type="line"/>
      <point x="279" y="115" type="line" smooth="yes"/>
      <point x="318" y="115"/>
      <point x="394" y="134"/>
      <point x="444" y="184"/>
      <point x="444" y="231" type="qcurve" smooth="yes"/>
      <point x="444" y="256"/>
      <point x="419" y="293"/>
      <point x="372" y="313"/>
      <point x="339" y="313" type="qcurve" smooth="yes"/>
      <point x="198" y="313" type="line"/>
      <point x="220" y="427" type="line"/>
      <point x="330" y="427" type="line" smooth="yes"/>
      <point x="363" y="427"/>
      <point x="427" y="450"/>
      <point x="469" y="496"/>
      <point x="469" y="532" type="qcurve" smooth="yes"/>
      <point x="469" y="568"/>
      <point x="420" y="607"/>
      <point x="376" y="607" type="qcurve" smooth="yes"/>
      <point x="255" y="607" type="line"/>
      <point x="277" y="722" type="line"/>
      <point x="439" y="722" type="line" smooth="yes"/>
      <point x="535" y="722"/>
      <point x="628" y="646"/>
      <point x="628" y="573" type="qcurve" smooth="yes"/>
      <point x="628" y="518"/>
      <point x="574" y="411"/>
      <point x="464" y="336"/>
      <point x="380" y="329" type="qcurve"/>
      <point x="526" y="407" type="line"/>
      <point x="526" y="348" type="line"/>
      <point x="400" y="414" type="line"/>
      <point x="462" y="410"/>
      <point x="548" y="362"/>
      <point x="593" y="286"/>
      <point x="593" y="241" type="qcurve" smooth="yes"/>
      <point x="593" y="160"/>
      <point x="514" y="53"/>
      <point x="384" y="0"/>
      <point x="309" y="0" type="qcurve" smooth="yes"/>
    </contour>
    <contour>
      <point x="20" y="0" type="line"/>
      <point x="160" y="722" type="line"/>
      <point x="310" y="722" type="line"/>
      <point x="170" y="0" type="line"/>
    </contour>
  </outline>
</glyph>
<glyph name="C" format="2">
  <advance width="734.0"/>
  <unicode hex="0043"/>
  <outline>
    <contour>
      <point x="31" y="256" type="qcurve" smooth="yes"/>
      <point x="31" y="331"/>
      <point x="68" y="472"/>
      <point x="139" y="593"/>
      <point x="242" y="685"/>
      <point x="375" y="736"/>
      <point x="456" y="736" type="qcurve" smooth="yes"/>
      <point x="574" y="736"/>
      <point x="700" y="628"/>
      <point x="700" y="541" type="qcurve" smooth="yes"/>
      <point x="700" y="529"/>
      <point x="698" y="505"/>
      <point x="695" y="493" type="qcurve"/>
      <point x="550" y="493" type="line"/>
      <point x="552" y="499"/>
      <point x="553" y="512"/>
      <point x="553" y="518" type="qcurve" smooth="yes"/>
      <point x="553" y="561"/>
      <point x="489" y="622"/>
      <point x="434" y="622" type="qcurve" smooth="yes"/>
      <point x="376" y="622"/>
      <point x="291" y="577"/>
      <point x="233" y="501"/>
      <point x="197" y="405"/>
      <point x="181" y="303"/>
      <point x="181" y="255" type="qcurve" smooth="yes"/>
      <point x="181" y="205"/>
      <point x="211" y="136"/>
      <point x="273" y="100"/>
      <point x="322" y="100" type="qcurve" smooth="yes"/>
      <point x="398" y="100"/>
      <point x="487" y="181"/>
      <point x="499" y="244" type="qcurve"/>
      <point x="650" y="244" type="line"/>
      <point x="636" y="175"/>
      <point x="544" y="57"/>
      <point x="398" y="-14"/>
      <point x="302" y="-14" type="qcurve" smooth="yes"/>
      <point x="211" y="-14"/>
      <point x="90" y="53"/>
      <point x="31" y="175"/>
    </contour>
  </outline>
</glyph>
<glyph name="D" format="2">
  <advance width="733.0"/>
  <unicode hex="0044"/>
  <outline>
    <contour>
      <point x="20" y="0" type="line"/>
      <point x="160" y="722" type="line"/>
      <point x="310" y="722" type="line"/>
      <point x="170" y="0" type="line"/>
    </contour>
    <contour>
      <point x="130" y="0" type="line"/>
      <point x="130" y="114" type="line"/>
      <point x="261" y="114" type="line" smooth="yes"/>
      <point x="319" y="114"/>
      <point x="412" y="146"/>
      <point x="482" y="204"/>
      <point x="528" y="284"/>
      <point x="552" y="381"/>
      <point x="552" y="435" type="qcurve" smooth="yes"/>
      <point x="552" y="520"/>
      <point x="454" y="607"/>
      <point x="356" y="607" type="qcurve" smooth="yes"/>
      <point x="216" y="607" type="line"/>
      <point x="216" y="722" type="line"/>
      <point x="379" y="722" type="line" smooth="yes"/>
      <point x="475" y="722"/>
      <point x="621" y="660"/>
      <point x="703" y="537"/>
      <point x="703" y="446" type="qcurve" smooth="yes"/>
      <point x="703" y="366"/>
      <point x="657" y="228"/>
      <point x="574" y="119"/>
      <point x="459" y="41"/>
      <point x="319" y="0"/>
      <point x="239" y="0" type="qcurve" smooth="yes"/>
    </contour>
  </outline>
</glyph>
<glyph name="F" format="2">
  <advance width="576.0"/>
  <unicode hex="0046"/>
  <outline>
    <contour>
      <point x="20" y="0" type="line"/>
      <point x="160" y="722" type="line"/>
      <point x="310" y="722" type="line"/>
      <point x="170" y="0" type="line"/>
    </contour>
    <contour>
      <point x="161" y="317" type="line"/>
      <point x="183" y="429" type="line"/>
      <point x="490" y="429" type="line"/>
      <point x="468" y="317" type="line"/>
    </contour>
    <contour>
      <point x="218" y="607" type="line"/>
      <point x="240" y="722" type="line"/>
      <point x="567" y="722" type="line"/>
      <point x="545" y="607" type="line"/>
    </contour>
  </outline>
</glyph>
<glyph name="G" format="2">
  <advance width="733.0"/>
  <unicode hex="0047"/>
  <outline>
    <contour>
      <point x="31" y="259" type="qcurve" smooth="yes"/>
      <point x="31" y="333"/>
      <point x="67" y="473"/>
      <point x="138" y="594"/>
      <point x="242" y="685"/>
      <point x="375" y="736"/>
      <point x="457" y="736" type="qcurve" smooth="yes"/>
      <point x="533" y="736"/>
      <point x="648" y="697"/>
      <point x="712" y="614"/>
      <point x="712" y="550" type="qcurve" smooth="yes"/>
      <point x="712" y="524"/>
      <point x="707" y="495" type="qcurve"/>
      <point x="556" y="495" type="line"/>
      <point x="559" y="511"/>
      <point x="559" y="525" type="qcurve" smooth="yes"/>
      <point x="559" y="559"/>
      <point x="526" y="602"/>
      <point x="470" y="622"/>
      <point x="434" y="622" type="qcurve" smooth="yes"/>
      <point x="377" y="622"/>
      <point x="292" y="577"/>
      <point x="233" y="501"/>
      <point x="197" y="406"/>
      <point x="181" y="305"/>
      <point x="181" y="258" type="qcurve" smooth="yes"/>
      <point x="181" y="206"/>
      <point x="212" y="136"/>
      <point x="278" y="100"/>
      <point x="332" y="100" type="qcurve" smooth="yes"/>
      <point x="348" y="100"/>
      <point x="405" y="103"/>
      <point x="465" y="111"/>
      <point x="485" y="116" type="qcurve"/>
      <point x="514" y="268" type="line"/>
      <point x="384" y="268" type="line"/>
      <point x="407" y="384" type="line"/>
      <point x="687" y="384" type="line"/>
      <point x="618" y="31" type="line"/>
      <point x="563" y="16"/>
      <point x="451" y="-4"/>
      <point x="352" y="-14"/>
      <point x="316" y="-14" type="qcurve" smooth="yes"/>
      <point x="218" y="-14"/>
      <point x="92" y="54"/>
      <point x="31" y="177"/>
    </contour>
  </outline>
</glyph>
<glyph name="H" format="2">
  <advance width="767.0"/>
  <unicode hex="0048"/>
  <outline>
    <contour>
      <point x="202" y="320" type="line"/>
      <point x="225" y="436" type="line"/>
      <point x="570" y="436" type="line"/>
      <point x="547" y="320" type="line"/>
    </contour>
    <contour>
      <point x="21" y="0" type="line"/>
      <point x="161" y="722" type="line"/>
      <point x="311" y="722" type="line"/>
      <point x="171" y="0" type="line"/>
    </contour>
    <contour>
      <point x="456" y="0" type="line"/>
      <point x="596" y="722" type="line"/>
      <point x="746" y="722" type="line"/>
      <point x="606" y="0" type="line"/>
    </contour>
  </outline>
</glyph>
<glyph name="J" format="2">
  <advance width="615.0"/>
  <unicode hex="004A"/>
  <outline>
    <contour>
      <point x="11" y="157" type="qcurve" smooth="yes"/>
      <point x="11" y="189"/>
      <point x="18" y="227" type="qcurve"/>
      <point x="168" y="227" type="line"/>
      <point x="163" y="201"/>
      <point x="163" y="180" type="qcurve" smooth="yes"/>
      <point x="163" y="140"/>
      <point x="199" y="100"/>
      <point x="235" y="100" type="qcurve" smooth="yes"/>
      <point x="297" y="100"/>
      <point x="356" y="158"/>
      <point x="369" y="222" type="qcurve" smooth="yes"/>
      <point x="466" y="723" type="line"/>
      <point x="616" y="723" type="line"/>
      <point x="517" y="213" type="line" smooth="yes"/>
      <point x="503" y="142"/>
      <point x="415" y="40"/>
      <point x="289" y="-14"/>
      <point x="217" y="-14" type="qcurve" smooth="yes"/>
      <point x="113" y="-14"/>
      <point x="11" y="73"/>
    </contour>
  </outline>
</glyph>
<glyph name="K" format="2">
  <advance width="701.0"/>
  <unicode hex="004B"/>
  <outline>
    <contour>
      <point x="20" y="0" type="line"/>
      <point x="160" y="722" type="line"/>
      <point x="310" y="722" type="line"/>
      <point x="170" y="0" type="line"/>
    </contour>
    <contour>
      <point x="236" y="388" type="line"/>
      <point x="560" y="722" type="line"/>
      <point x="730" y="722" type="line"/>
      <point x="387" y="372" type="line"/>
      <point x="377" y="429" type="line"/>
      <point x="609" y="0" type="line"/>
      <point x="440" y="0" type="line"/>
    </contour>
  </outline>
</glyph>
<glyph name="L" format="2">
  <advance width="520.0"/>
  <unicode hex="004C"/>
  <outline>
    <contour>
      <point x="100" y="0" type="line"/>
      <point x="122" y="115" type="line"/>
      <point x="459" y="115" type="line"/>
      <point x="437" y="0" type="line"/>
    </contour>
    <contour>
      <point x="20" y="0" type="line"/>
      <point x="160" y="722" type="line"/>
      <point x="310" y="722" type="line"/>
      <point x="170" y="0" type="line"/>
    </contour>
  </outline>
</glyph>
<glyph name="M" format="2">
  <advance width="952.0"/>
  <unicode hex="004D"/>
  <outline>
    <contour>
      <point x="21" y="0" type="line"/>
      <point x="161" y="722" type="line"/>
      <point x="311" y="722" type="line"/>
      <point x="171" y="0" type="line"/>
    </contour>
    <contour>
      <point x="641" y="0" type="line"/>
      <point x="781" y="722" type="line"/>
      <point x="931" y="722" type="line"/>
      <point x="791" y="0" type="line"/>
    </contour>
    <contour>
      <point x="344" y="0" type="line"/>
      <point x="251" y="722" type="line"/>
      <point x="388" y="722" type="line"/>
      <point x="456" y="186" type="line"/>
      <point x="448" y="186" type="line"/>
      <point x="703" y="722" type="line"/>
      <point x="841" y="722" type="line"/>
      <point x="488" y="0" type="line"/>
    </contour>
  </outline>
</glyph>
<glyph name="N" format="2">
  <advance width="810.0"/>
  <unicode hex="004E"/>
  <outline>
    <contour>
      <point x="231" y="722" type="line"/>
      <point x="371" y="722" type="line"/>
      <point x="579" y="0" type="line"/>
      <point x="439" y="0" type="line"/>
    </contour>
    <contour>
      <point x="21" y="0" type="line"/>
      <point x="161" y="722" type="line"/>
      <point x="301" y="722" type="line"/>
      <point x="161" y="0" type="line"/>
    </contour>
    <contour>
      <point x="509" y="0" type="line"/>
      <point x="649" y="722" type="line"/>
      <point x="789" y="722" type="line"/>
      <point x="649" y="0" type="line"/>
    </contour>
  </outline>
</glyph>
<glyph name="P" format="2">
  <advance width="676.0"/>
  <unicode hex="0050"/>
  <outline>
    <contour>
      <point x="204" y="273" type="line"/>
      <point x="226" y="388" type="line"/>
      <point x="367" y="388" type="line" smooth="yes"/>
      <point x="406" y="388"/>
      <point x="464" y="428"/>
      <point x="496" y="491"/>
      <point x="496" y="525" type="qcurve" smooth="yes"/>
      <point x="496" y="562"/>
      <point x="447" y="607"/>
      <point x="407" y="607" type="qcurve" smooth="yes"/>
      <point x="269" y="607" type="line"/>
      <point x="159" y="710" type="line"/>
      <point x="161" y="722" type="line"/>
      <point x="438" y="722" type="line" smooth="yes"/>
      <point x="500" y="722"/>
      <point x="594" y="677"/>
      <point x="646" y="596"/>
      <point x="646" y="542" type="qcurve" smooth="yes"/>
      <point x="646" y="462"/>
      <point x="566" y="341"/>
      <point x="421" y="273"/>
      <point x="325" y="273" type="qcurve" smooth="yes"/>
    </contour>
    <contour>
      <point x="21" y="0" type="line"/>
      <point x="161" y="722" type="line"/>
      <point x="180" y="722" type="line"/>
      <point x="287" y="622" type="line"/>
      <point x="166" y="0" type="line"/>
    </contour>
  </outline>
</glyph>
<glyph name="Q" format="2">
  <advance width="768.0"/>
  <unicode hex="0051"/>
  <outline>
    <contour>
      <point x="378" y="-10" type="line"/>
      <point x="548" y="86" type="line"/>
      <point x="565" y="91"/>
      <point x="602" y="99"/>
      <point x="640" y="106"/>
      <point x="678" y="111"/>
      <point x="718" y="114"/>
      <point x="738" y="115" type="qcurve"/>
      <point x="715" y="0" type="line"/>
      <point x="514" y="0" type="line" smooth="yes"/>
      <point x="497" y="0"/>
      <point x="460" y="-1"/>
      <point x="427" y="-3"/>
      <point x="401" y="-6"/>
      <point x="395" y="-7" type="qcurve" smooth="yes"/>
    </contour>
    <contour>
      <point x="31" y="257" type="qcurve" smooth="yes"/>
      <point x="31" y="360"/>
      <point x="95" y="536"/>
      <point x="210" y="665"/>
      <point x="367" y="736"/>
      <point x="460" y="736" type="qcurve" smooth="yes"/>
      <point x="593" y="736"/>
      <point x="736" y="595"/>
      <point x="736" y="465" type="qcurve" smooth="yes"/>
      <point x="736" y="361"/>
      <point x="673" y="186"/>
      <point x="557" y="57"/>
      <point x="400" y="-14"/>
      <point x="307" y="-14" type="qcurve" smooth="yes"/>
      <point x="219" y="-14"/>
      <point x="95" y="49"/>
      <point x="31" y="170"/>
    </contour>
    <contour>
      <point x="181" y="257" type="qcurve" smooth="yes"/>
      <point x="181" y="205"/>
      <point x="213" y="136"/>
      <point x="277" y="102"/>
      <point x="326" y="102" type="qcurve" smooth="yes"/>
      <point x="385" y="102"/>
      <point x="480" y="154"/>
      <point x="549" y="251"/>
      <point x="586" y="385"/>
      <point x="586" y="467" type="qcurve" smooth="yes"/>
      <point x="586" y="546"/>
      <point x="514" y="622"/>
      <point x="441" y="622" type="qcurve" smooth="yes"/>
      <point x="382" y="622"/>
      <point x="287" y="570"/>
      <point x="218" y="473"/>
      <point x="181" y="339"/>
    </contour>
  </outline>
</glyph>
<glyph name="R" format="2">
  <advance width="696.0"/>
  <unicode hex="0052"/>
  <outline>
    <contour>
      <point x="192" y="295" type="line"/>
      <point x="214" y="410" type="line"/>
      <point x="349" y="410" type="line" smooth="yes"/>
      <point x="387" y="410"/>
      <point x="461" y="435"/>
      <point x="509" y="486"/>
      <point x="509" y="527" type="qcurve" smooth="yes"/>
      <point x="509" y="568"/>
      <point x="454" y="608"/>
      <point x="398" y="608" type="qcurve" smooth="yes"/>
      <point x="148" y="608" type="line"/>
      <point x="170" y="723" type="line"/>
      <point x="420" y="723" type="line" smooth="yes"/>
      <point x="466" y="723"/>
      <point x="553" y="710"/>
      <point x="624" y="677"/>
      <point x="665" y="615"/>
      <point x="665" y="565" type="qcurve" smooth="yes"/>
      <point x="665" y="511"/>
      <point x="615" y="426"/>
      <point x="527" y="369"/>
      <point x="472" y="357" type="qcurve"/>
      <point x="473" y="361" type="line"/>
      <point x="503" y="353"/>
      <point x="548" y="316"/>
      <point x="573" y="264"/>
      <point x="573" y="233" type="qcurve" smooth="yes"/>
      <point x="573" y="121" type="line" smooth="yes"/>
      <point x="573" y="88"/>
      <point x="577" y="26"/>
      <point x="581" y="0" type="qcurve"/>
      <point x="427" y="0" type="line"/>
      <point x="425" y="24"/>
      <point x="424" y="101"/>
      <point x="424" y="128" type="qcurve" smooth="yes"/>
      <point x="424" y="207" type="line" smooth="yes"/>
      <point x="424" y="233"/>
      <point x="402" y="273"/>
      <point x="363" y="295"/>
      <point x="337" y="295" type="qcurve" smooth="yes"/>
    </contour>
    <contour>
      <point x="20" y="0" type="line"/>
      <point x="160" y="722" type="line"/>
      <point x="310" y="722" type="line"/>
      <point x="170" y="0" type="line"/>
    </contour>
  </outline>
</glyph>
<glyph name="S" format="2">
  <advance width="657.0"/>
  <unicode hex="0053"/>
  <outline>
    <contour>
      <point x="10" y="181" type="qcurve" smooth="yes"/>
      <point x="10" y="205"/>
      <point x="15" y="230" type="qcurve"/>
      <point x="165" y="230" type="line"/>
      <point x="161" y="207"/>
      <point x="161" y="189" type="qcurve" smooth="yes"/>
      <point x="161" y="159"/>
      <point x="186" y="121"/>
      <point x="239" y="103"/>
      <point x="281" y="103" type="qcurve" smooth="yes"/>
      <point x="351" y="103"/>
      <point x="436" y="161"/>
      <point x="436" y="209" type="qcurve" smooth="yes"/>
      <point x="436" y="245"/>
      <point x="373" y="291"/>
      <point x="306" y="306" type="qcurve" smooth="yes"/>
      <point x="203" y="329"/>
      <point x="91" y="429"/>
      <point x="91" y="499" type="qcurve" smooth="yes"/>
      <point x="91" y="570"/>
      <point x="166" y="678"/>
      <point x="301" y="737"/>
      <point x="391" y="737" type="qcurve" smooth="yes"/>
      <point x="460" y="737"/>
      <point x="567" y="698"/>
      <point x="626" y="623"/>
      <point x="626" y="569" type="qcurve" smooth="yes"/>
      <point x="626" y="546"/>
      <point x="621" y="520" type="qcurve"/>
      <point x="471" y="520" type="line"/>
      <point x="474" y="533"/>
      <point x="474" y="544" type="qcurve" smooth="yes"/>
      <point x="474" y="584"/>
      <point x="421" y="628"/>
      <point x="373" y="628" type="qcurve" smooth="yes"/>
      <point x="335" y="628"/>
      <point x="277" y="604"/>
      <point x="245" y="561"/>
      <point x="245" y="533" type="qcurve" smooth="yes"/>
      <point x="245" y="506"/>
      <point x="271" y="465"/>
      <point x="322" y="436"/>
      <point x="361" y="428" type="qcurve" smooth="yes"/>
      <point x="441" y="410"/>
      <point x="542" y="359"/>
      <point x="589" y="287"/>
      <point x="589" y="237" type="qcurve" smooth="yes"/>
      <point x="589" y="162"/>
      <point x="510" y="50"/>
      <point x="366" y="-12"/>
      <point x="271" y="-12" type="qcurve" smooth="yes"/>
      <point x="198" y="-12"/>
      <point x="79" y="35"/>
      <point x="10" y="122"/>
    </contour>
  </outline>
</glyph>
<glyph name="T" format="2">
  <advance width="560.0"/>
  <unicode hex="0054"/>
  <outline>
    <contour>
      <point x="106" y="0" type="line"/>
      <point x="224" y="607" type="line"/>
      <point x="11" y="607" type="line"/>
      <point x="33" y="722" type="line"/>
      <point x="609" y="722" type="line"/>
      <point x="587" y="607" type="line"/>
      <point x="374" y="607" type="line"/>
      <point x="256" y="0" type="line"/>
    </contour>
  </outline>
</glyph>
<glyph name="U" format="2">
  <advance width="744.0"/>
  <unicode hex="0055"/>
  <outline>
    <contour>
      <point x="20" y="215" type="qcurve" smooth="yes"/>
      <point x="20" y="254"/>
      <point x="29" y="299" type="qcurve" smooth="yes"/>
      <point x="111" y="722" type="line"/>
      <point x="256" y="722" type="line"/>
      <point x="174" y="299" type="line" smooth="yes"/>
      <point x="170" y="281"/>
      <point x="167" y="247"/>
      <point x="167" y="232" type="qcurve" smooth="yes"/>
      <point x="167" y="167"/>
      <point x="233" y="101"/>
      <point x="296" y="101" type="qcurve" smooth="yes"/>
      <point x="350" y="101"/>
      <point x="430" y="145"/>
      <point x="483" y="233"/>
      <point x="496" y="299" type="qcurve" smooth="yes"/>
      <point x="578" y="722" type="line"/>
      <point x="723" y="722" type="line"/>
      <point x="641" y="299" type="line" smooth="yes"/>
      <point x="622" y="203"/>
      <point x="522" y="63"/>
      <point x="368" y="-13"/>
      <point x="269" y="-13" type="qcurve" smooth="yes"/>
      <point x="143" y="-13"/>
      <point x="20" y="111"/>
    </contour>
  </outline>
</glyph>
<glyph name="V" format="2">
  <advance width="729.0"/>
  <unicode hex="0056"/>
  <outline>
    <contour>
      <point x="165" y="0" type="line"/>
      <point x="40" y="722" type="line"/>
      <point x="200" y="722" type="line"/>
      <point x="293" y="156" type="line"/>
      <point x="285" y="156" type="line"/>
      <point x="598" y="722" type="line"/>
      <point x="758" y="722" type="line"/>
      <point x="343" y="0" type="line"/>
    </contour>
  </outline>
</glyph>
<glyph name="W" format="2">
  <advance width="991.0"/>
  <unicode hex="0057"/>
  <outline>
    <contour>
      <point x="80" y="0" type="line"/>
      <point x="40" y="722" type="line"/>
      <point x="200" y="722" type="line"/>
      <point x="205" y="168" type="line"/>
      <point x="200" y="168" type="line"/>
      <point x="451" y="722" type="line"/>
      <point x="609" y="722" type="line"/>
      <point x="646" y="168" type="line"/>
      <point x="640" y="168" type="line"/>
      <point x="860" y="722" type="line"/>
      <point x="1020" y="722" type="line"/>
      <point x="700" y="0" type="line"/>
      <point x="530" y="0" type="line"/>
      <point x="494" y="553" type="line"/>
      <point x="500" y="553" type="line"/>
      <point x="250" y="0" type="line"/>
    </contour>
  </outline>
</glyph>
<glyph name="X" format="2">
  <advance width="692.0"/>
  <unicode hex="0058"/>
  <outline>
    <contour>
      <point x="95" y="722" type="line"/>
      <point x="265" y="722" type="line"/>
      <point x="613" y="0" type="line"/>
      <point x="443" y="0" type="line"/>
    </contour>
    <contour>
      <point x="-60" y="0" type="line"/>
      <point x="276" y="388" type="line"/>
      <point x="328" y="287" type="line"/>
      <point x="90" y="0" type="line"/>
    </contour>
    <contour>
      <point x="367" y="466" type="line"/>
      <point x="578" y="722" type="line"/>
      <point x="733" y="722" type="line"/>
      <point x="420" y="364" type="line"/>
    </contour>
  </outline>
</glyph>
<glyph name="Y" format="2">
  <advance width="647.0"/>
  <unicode hex="0059"/>
  <outline>
    <contour>
      <point x="244" y="134" type="line"/>
      <point x="40" y="722" type="line"/>
      <point x="206" y="722" type="line"/>
      <point x="299" y="419" type="line"/>
      <point x="510" y="722" type="line"/>
      <point x="676" y="722" type="line"/>
    </contour>
    <contour>
      <point x="142" y="0" type="line"/>
      <point x="198" y="288" type="line"/>
      <point x="348" y="288" type="line"/>
      <point x="292" y="0" type="line"/>
    </contour>
  </outline>
</glyph>
<glyph name="Z" format="2">
  <advance width="591.0"/>
  <unicode hex="005A"/>
  <outline>
    <contour>
      <point x="-62" y="0" type="line"/>
      <point x="-38" y="125" type="line"/>
      <point x="418" y="607" type="line"/>
      <point x="78" y="607" type="line"/>
      <point x="100" y="722" type="line"/>
      <point x="613" y="722" type="line"/>
      <point x="589" y="597" type="line"/>
      <point x="133" y="115" type="line"/>
      <point x="503" y="115" type="line"/>
      <point x="481" y="0" type="line"/>
    </contour>
  </outline>
</glyph>
<glyph name="bracketleft" format="2">
  <advance width="390.0"/>
  <unicode hex="005B"/>
  <outline>
    <contour>
      <point x="-26" y="-198" type="line"/>
      <point x="153" y="722" type="line"/>
      <point x="378" y="722" type="line"/>
      <point x="361" y="632" type="line"/>
      <point x="256" y="632" type="line"/>
      <point x="112" y="-108" type="line"/>
      <point x="217" y="-108" type="line"/>
      <point x="199" y="-198" type="line"/>
    </contour>
  </outline>
</glyph>
<glyph name="backslash" format="2">
  <advance width="263.0"/>
  <unicode hex="005C"/>
  <outline>
    <contour>
      <point x="93" y="-52" type="line"/>
      <point x="11" y="736" type="line"/>
      <point x="150" y="736" type="line"/>
      <point x="232" y="-52" type="line"/>
    </contour>
  </outline>
</glyph>
<glyph name="bracketright" format="2">
  <advance width="390.0"/>
  <unicode hex="005D"/>
  <outline>
    <contour>
      <point x="-26" y="-198" type="line"/>
      <point x="-8" y="-108" type="line"/>
      <point x="97" y="-108" type="line"/>
      <point x="241" y="632" type="line"/>
      <point x="136" y="632" type="line"/>
      <point x="153" y="722" type="line"/>
      <point x="378" y="722" type="line"/>
      <point x="199" y="-198" type="line"/>
    </contour>
  </outline>
</glyph>
<glyph name="asciicircum" format="2">
  <advance width="697.0"/>
  <unicode hex="005E"/>
  <outline>
    <contour>
      <point x="10" y="10" type="line"/>
      <point x="347" y="610" type="line"/>
      <point x="561" y="610" type="line"/>
      <point x="667" y="10" type="line"/>
      <point x="506" y="10" type="line"/>
      <point x="429" y="480" type="line"/>
      <point x="169" y="10" type="line"/>
    </contour>
  </outline>
</glyph>
<glyph name="underscore" format="2">
  <advance width="500.0"/>
  <unicode hex="005F"/>
  <outline>
    <contour>
      <point x="-29" y="-180" type="line"/>
      <point x="-6" y="-64" type="line"/>
      <point x="494" y="-64" type="line"/>
      <point x="471" y="-180" type="line"/>
    </contour>
  </outline>
</glyph>
<glyph name="grave" format="2">
  <advance width="227.0"/>
  <unicode hex="0060"/>
  <outline>
    <contour>
      <point x="21" y="760" type="line"/>
      <point x="151" y="760" type="line"/>
      <point x="207" y="580" type="line"/>
      <point x="137" y="580" type="line"/>
    </contour>
  </outline>
</glyph>
<glyph name="a" format="2">
  <advance width="545.0"/>
  <unicode hex="0061"/>
  <outline>
    <contour>
      <point x="10" y="110" type="qcurve" smooth="yes"/>
      <point x="10" y="168"/>
      <point x="59" y="244"/>
      <point x="140" y="290"/>
      <point x="237" y="309"/>
      <point x="285" y="309" type="qcurve" smooth="yes"/>
      <point x="314" y="309"/>
      <point x="359" y="306"/>
      <point x="392" y="301" type="qcurve"/>
      <point x="381" y="223" type="line"/>
      <point x="365" y="225"/>
      <point x="337" y="228"/>
      <point x="310" y="230"/>
      <point x="296" y="230" type="qcurve" smooth="yes"/>
      <point x="273" y="230"/>
      <point x="222" y="224"/>
      <point x="178" y="205"/>
      <point x="150" y="167"/>
      <point x="150" y="136" type="qcurve" smooth="yes"/>
      <point x="150" y="111"/>
      <point x="194" y="76"/>
      <point x="225" y="76" type="qcurve" smooth="yes"/>
      <point x="252" y="76"/>
      <point x="297" y="105"/>
      <point x="328" y="160"/>
      <point x="335" y="197" type="qcurve" smooth="yes"/>
      <point x="366" y="357" type="line" smooth="yes"/>
      <point x="369" y="371"/>
      <point x="369" y="382" type="qcurve" smooth="yes"/>
      <point x="369" y="409"/>
      <point x="337" y="435"/>
      <point x="305" y="435" type="qcurve" smooth="yes"/>
      <point x="267" y="435"/>
      <point x="221" y="399"/>
      <point x="214" y="364" type="qcurve"/>
      <point x="78" y="364" type="line"/>
      <point x="91" y="432"/>
      <point x="224" y="514"/>
      <point x="323" y="514" type="qcurve" smooth="yes"/>
      <point x="418" y="514"/>
      <point x="505" y="462"/>
      <point x="505" y="402" type="qcurve" smooth="yes"/>
      <point x="505" y="377"/>
      <point x="498" y="343" type="qcurve" smooth="yes"/>
      <point x="466" y="202" type="line" smooth="yes"/>
      <point x="455" y="152"/>
      <point x="447" y="71"/>
      <point x="447" y="44" type="qcurve" smooth="yes"/>
      <point x="447" y="29"/>
      <point x="449" y="8"/>
      <point x="450" y="0" type="qcurve"/>
      <point x="323" y="0" type="line"/>
      <point x="319" y="23"/>
      <point x="319" y="47" type="qcurve" smooth="yes"/>
      <point x="319" y="54"/>
      <point x="320" y="68"/>
      <point x="320" y="76" type="qcurve"/>
      <point x="331" y="72" type="line"/>
      <point x="302" y="41"/>
      <point x="247" y="4"/>
      <point x="191" y="-14"/>
      <point x="159" y="-14" type="qcurve" smooth="yes"/>
      <point x="91" y="-14"/>
      <point x="10" y="55"/>
    </contour>
  </outline>
</glyph>
<glyph name="b" format="2">
  <advance width="621.0"/>
  <unicode hex="0062"/>
  <outline>
    <contour>
      <point x="21" y="0" type="line"/>
      <point x="161" y="722" type="line"/>
      <point x="296" y="722" type="line"/>
      <point x="238" y="423" type="line"/>
      <point x="223" y="423" type="line"/>
      <point x="162" y="109" type="line"/>
      <point x="177" y="108" type="line"/>
      <point x="156" y="0" type="line"/>
    </contour>
    <contour>
      <point x="146" y="75" type="qcurve"/>
      <point x="215" y="430" type="line"/>
      <point x="251" y="461"/>
      <point x="309" y="498"/>
      <point x="366" y="514"/>
      <point x="398" y="514" type="qcurve" smooth="yes"/>
      <point x="487" y="514"/>
      <point x="582" y="412"/>
      <point x="582" y="319" type="qcurve" smooth="yes"/>
      <point x="582" y="260"/>
      <point x="544" y="142"/>
      <point x="471" y="45"/>
      <point x="366" y="-14"/>
      <point x="299" y="-14" type="qcurve" smooth="yes"/>
      <point x="245" y="-14"/>
      <point x="171" y="30"/>
    </contour>
    <contour>
      <point x="196" y="196" type="qcurve" smooth="yes"/>
      <point x="196" y="142"/>
      <point x="249" y="72"/>
      <point x="294" y="72" type="qcurve" smooth="yes"/>
      <point x="332" y="72"/>
      <point x="388" y="117"/>
      <point x="425" y="188"/>
      <point x="443" y="267"/>
      <point x="443" y="301" type="qcurve" smooth="yes"/>
      <point x="443" y="358"/>
      <point x="393" y="429"/>
      <point x="349" y="429" type="qcurve" smooth="yes"/>
      <point x="312" y="429"/>
      <point x="255" y="382"/>
      <point x="216" y="309"/>
      <point x="196" y="229"/>
    </contour>
  </outline>
</glyph>
<glyph name="c" format="2">
  <advance width="541.0"/>
  <unicode hex="0063"/>
  <outline>
    <contour>
      <point x="37" y="164" type="qcurve" smooth="yes"/>
      <point x="37" y="76"/>
      <point x="133" y="-14"/>
      <point x="227" y="-14" type="qcurve" smooth="yes"/>
      <point x="294" y="-14"/>
      <point x="393" y="31"/>
      <point x="456" y="120"/>
      <point x="469" y="184" type="qcurve"/>
      <point x="334" y="184" type="line"/>
      <point x="327" y="150"/>
      <point x="307" y="99"/>
      <point x="270" y="72"/>
      <point x="238" y="72" type="qcurve" smooth="yes"/>
      <point x="197" y="72"/>
      <point x="168" y="117"/>
      <point x="168" y="156" type="qcurve" smooth="yes"/>
      <point x="168" y="180"/>
      <point x="178" y="249"/>
      <point x="198" y="323"/>
      <point x="232" y="388"/>
      <point x="280" y="428"/>
      <point x="312" y="428" type="qcurve" smooth="yes"/>
      <point x="344" y="428"/>
      <point x="366" y="388"/>
      <point x="366" y="358" type="qcurve" smooth="yes"/>
      <point x="366" y="350"/>
      <point x="365" y="333"/>
      <point x="364" y="324" type="qcurve"/>
      <point x="496" y="324" type="line"/>
      <point x="499" y="339"/>
      <point x="502" y="367"/>
      <point x="502" y="380" type="qcurve" smooth="yes"/>
      <point x="502" y="452"/>
      <point x="411" y="514"/>
      <point x="327" y="514" type="qcurve" smooth="yes"/>
      <point x="255" y="514"/>
      <point x="147" y="454"/>
      <point x="74" y="353"/>
      <point x="37" y="228"/>
    </contour>
  </outline>
</glyph>
<glyph name="d" format="2">
  <advance width="618.0"/>
  <unicode hex="0064"/>
  <outline>
    <contour>
      <point x="36" y="185" type="qcurve" smooth="yes"/>
      <point x="36" y="243"/>
      <point x="74" y="360"/>
      <point x="146" y="456"/>
      <point x="252" y="514"/>
      <point x="321" y="514" type="qcurve" smooth="yes"/>
      <point x="357" y="514"/>
      <point x="413" y="496"/>
      <point x="450" y="461"/>
      <point x="458" y="434" type="qcurve"/>
      <point x="391" y="84" type="line"/>
      <point x="372" y="57"/>
      <point x="315" y="12"/>
      <point x="252" y="-14"/>
      <point x="224" y="-14" type="qcurve" smooth="yes"/>
      <point x="126" y="-14"/>
      <point x="36" y="96"/>
    </contour>
    <contour>
      <point x="172" y="188" type="qcurve" smooth="yes"/>
      <point x="172" y="144"/>
      <point x="210" y="76"/>
      <point x="258" y="76" type="qcurve" smooth="yes"/>
      <point x="299" y="76"/>
      <point x="359" y="123"/>
      <point x="398" y="197"/>
      <point x="418" y="280"/>
      <point x="418" y="315" type="qcurve" smooth="yes"/>
      <point x="418" y="343"/>
      <point x="404" y="394"/>
      <point x="367" y="428"/>
      <point x="333" y="428" type="qcurve" smooth="yes"/>
      <point x="293" y="428"/>
      <point x="233" y="380"/>
      <point x="192" y="305"/>
      <point x="172" y="223"/>
    </contour>
    <contour>
      <point x="362" y="0" type="line"/>
      <point x="502" y="722" type="line"/>
      <point x="637" y="722" type="line"/>
      <point x="497" y="0" type="line"/>
    </contour>
  </outline>
</glyph>
<glyph name="e" format="2">
  <advance width="558.0"/>
  <unicode hex="0065"/>
  <outline>
    <contour>
      <point x="37" y="165" type="qcurve" smooth="yes"/>
      <point x="37" y="230"/>
      <point x="76" y="355"/>
      <point x="152" y="455"/>
      <point x="263" y="514"/>
      <point x="335" y="514" type="qcurve" smooth="yes"/>
      <point x="433" y="514"/>
      <point x="518" y="412"/>
      <point x="518" y="334" type="qcurve" smooth="yes"/>
      <point x="518" y="300"/>
      <point x="511" y="261" type="qcurve" smooth="yes"/>
      <point x="503" y="223" type="line"/>
      <point x="146" y="223" type="line"/>
      <point x="163" y="308" type="line"/>
      <point x="380" y="308" type="line"/>
      <point x="384" y="331"/>
      <point x="384" y="350" type="qcurve" smooth="yes"/>
      <point x="384" y="373"/>
      <point x="370" y="409"/>
      <point x="339" y="429"/>
      <point x="312" y="429" type="qcurve" smooth="yes"/>
      <point x="279" y="429"/>
      <point x="233" y="396"/>
      <point x="204" y="342"/>
      <point x="198" y="308" type="qcurve" smooth="yes"/>
      <point x="181" y="223" type="line" smooth="yes"/>
      <point x="178" y="205"/>
      <point x="173" y="168"/>
      <point x="173" y="152" type="qcurve" smooth="yes"/>
      <point x="173" y="118"/>
      <point x="202" y="72"/>
      <point x="243" y="72" type="qcurve" smooth="yes"/>
      <point x="285" y="72"/>
      <point x="336" y="120"/>
      <point x="347" y="156" type="qcurve"/>
      <point x="483" y="156" type="line"/>
      <point x="459" y="71"/>
      <point x="332" y="-14"/>
      <point x="236" y="-14" type="qcurve" smooth="yes"/>
      <point x="131" y="-14"/>
      <point x="37" y="83"/>
    </contour>
  </outline>
</glyph>
<glyph name="f" format="2">
  <advance width="354.0"/>
  <unicode hex="0066"/>
  <outline>
    <contour>
      <point x="29" y="0" type="line"/>
      <point x="140" y="575" type="line" smooth="yes"/>
      <point x="157" y="661"/>
      <point x="243" y="735"/>
      <point x="320" y="735" type="qcurve" smooth="yes"/>
      <point x="347" y="735"/>
      <point x="397" y="726"/>
      <point x="423" y="717" type="qcurve"/>
      <point x="406" y="632" type="line"/>
      <point x="394" y="640"/>
      <point x="366" y="646"/>
      <point x="351" y="646" type="qcurve" smooth="yes"/>
      <point x="314" y="646"/>
      <point x="282" y="610"/>
      <point x="275" y="572" type="qcurve" smooth="yes"/>
      <point x="164" y="0" type="line"/>
    </contour>
    <contour>
      <point x="19" y="415" type="line"/>
      <point x="36" y="500" type="line"/>
      <point x="141" y="500" type="line"/>
      <point x="124" y="415" type="line"/>
    </contour>
    <contour>
      <point x="229" y="415" type="line"/>
      <point x="246" y="500" type="line"/>
      <point x="351" y="500" type="line"/>
      <point x="334" y="415" type="line"/>
    </contour>
  </outline>
</glyph>
<glyph name="g" format="2">
  <advance width="624.0"/>
  <unicode hex="0067"/>
  <outline>
    <contour>
      <point x="6" y="-80" type="qcurve" smooth="yes"/>
      <point x="6" y="-67"/>
      <point x="9" y="-52" type="qcurve"/>
      <point x="144" y="-52" type="line"/>
      <point x="143" y="-58"/>
      <point x="143" y="-64" type="qcurve" smooth="yes"/>
      <point x="143" y="-91"/>
      <point x="194" y="-113"/>
      <point x="228" y="-113" type="qcurve" smooth="yes"/>
      <point x="274" y="-113"/>
      <point x="328" y="-79"/>
      <point x="360" y="-7"/>
      <point x="371" y="49" type="qcurve" smooth="yes"/>
      <point x="377" y="81" type="line"/>
      <point x="359" y="64"/>
      <point x="312" y="26"/>
      <point x="255" y="0"/>
      <point x="222" y="0" type="qcurve" smooth="yes"/>
      <point x="126" y="0"/>
      <point x="38" y="109"/>
      <point x="38" y="196" type="qcurve" smooth="yes"/>
      <point x="38" y="254"/>
      <point x="74" y="367"/>
      <point x="146" y="459"/>
      <point x="249" y="514"/>
      <point x="315" y="514" type="qcurve" smooth="yes"/>
      <point x="374" y="514"/>
      <point x="433" y="485"/>
      <point x="449" y="454" type="qcurve"/>
      <point x="458" y="500" type="line"/>
      <point x="593" y="500" type="line"/>
      <point x="497" y="5" type="line" smooth="yes"/>
      <point x="483" y="-66"/>
      <point x="402" y="-156"/>
      <point x="281" y="-199"/>
      <point x="207" y="-199" type="qcurve" smooth="yes"/>
      <point x="175" y="-199"/>
      <point x="105" y="-189"/>
      <point x="44" y="-163"/>
      <point x="6" y="-117"/>
    </contour>
    <contour>
      <point x="173" y="202" type="qcurve" smooth="yes"/>
      <point x="173" y="155"/>
      <point x="214" y="86"/>
      <point x="264" y="86" type="qcurve" smooth="yes"/>
      <point x="304" y="86"/>
      <point x="362" y="131"/>
      <point x="399" y="202"/>
      <point x="416" y="281"/>
      <point x="416" y="315" type="qcurve" smooth="yes"/>
      <point x="416" y="343"/>
      <point x="402" y="395"/>
      <point x="365" y="428"/>
      <point x="331" y="428" type="qcurve" smooth="yes"/>
      <point x="292" y="428"/>
      <point x="232" y="384"/>
      <point x="193" y="314"/>
      <point x="173" y="236"/>
    </contour>
  </outline>
</glyph>
<glyph name="h" format="2">
  <advance width="589.0"/>
  <unicode hex="0068"/>
  <outline>
    <contour>
      <point x="191" y="279" type="line"/>
      <point x="216" y="405" type="line"/>
      <point x="241" y="433" type="line" smooth="yes"/>
      <point x="266" y="460"/>
      <point x="321" y="496"/>
      <point x="382" y="514"/>
      <point x="417" y="514" type="qcurve" smooth="yes"/>
      <point x="486" y="514"/>
      <point x="559" y="449"/>
      <point x="559" y="387" type="qcurve" smooth="yes"/>
      <point x="559" y="365"/>
      <point x="554" y="339" type="qcurve" smooth="yes"/>
      <point x="488" y="0" type="line"/>
      <point x="352" y="0" type="line"/>
      <point x="410" y="299" type="line" smooth="yes"/>
      <point x="416" y="329"/>
      <point x="416" y="353" type="qcurve" smooth="yes"/>
      <point x="416" y="393"/>
      <point x="382" y="432"/>
      <point x="347" y="432" type="qcurve" smooth="yes"/>
      <point x="313" y="432"/>
      <point x="258" y="396"/>
      <point x="220" y="328"/>
      <point x="211" y="279" type="qcurve"/>
    </contour>
    <contour>
      <point x="21" y="0" type="line"/>
      <point x="161" y="722" type="line"/>
      <point x="297" y="722" type="line"/>
      <point x="157" y="0" type="line"/>
    </contour>
  </outline>
</glyph>
<glyph name="k" format="2">
  <advance width="546.0"/>
  <unicode hex="006B"/>
  <outline>
    <contour>
      <point x="21" y="0" type="line"/>
      <point x="161" y="722" type="line"/>
      <point x="297" y="722" type="line"/>
      <point x="157" y="0" type="line"/>
    </contour>
    <contour>
      <point x="209" y="283" type="line"/>
      <point x="423" y="500" type="line"/>
      <point x="585" y="500" type="line"/>
      <point x="354" y="275" type="line"/>
      <point x="358" y="294" type="line"/>
      <point x="504" y="0" type="line"/>
      <point x="340" y="0" type="line"/>
    </contour>
  </outline>
</glyph>
<glyph name="l" format="2">
  <advance width="278.0"/>
  <unicode hex="006C"/>
  <outline>
    <contour>
      <point x="21" y="0" type="line"/>
      <point x="161" y="722" type="line"/>
      <point x="297" y="722" type="line"/>
      <point x="157" y="0" type="line"/>
    </contour>
  </outline>
</glyph>
<glyph name="m" format="2">
  <advance width="906.0"/>
  <unicode hex="006D"/>
  <outline>
    <contour>
      <point x="513" y="280" type="line"/>
      <point x="539" y="416" type="line"/>
      <point x="578" y="463"/>
      <point x="680" y="514"/>
      <point x="736" y="514" type="qcurve" smooth="yes"/>
      <point x="803" y="514"/>
      <point x="875" y="443"/>
      <point x="875" y="379" type="qcurve" smooth="yes"/>
      <point x="875" y="356"/>
      <point x="870" y="329" type="qcurve" smooth="yes"/>
      <point x="806" y="0" type="line"/>
      <point x="670" y="0" type="line"/>
      <point x="732" y="320" type="line" smooth="yes"/>
      <point x="735" y="334"/>
      <point x="735" y="348" type="qcurve" smooth="yes"/>
      <point x="735" y="384"/>
      <point x="698" y="429"/>
      <point x="667" y="429" type="qcurve" smooth="yes"/>
      <point x="640" y="429"/>
      <point x="586" y="391"/>
      <point x="546" y="328"/>
      <point x="538" y="290" type="qcurve"/>
      <point x="537" y="280" type="line"/>
    </contour>
    <contour>
      <point x="192" y="289" type="line"/>
      <point x="214" y="399" type="line"/>
      <point x="239" y="427" type="line" smooth="yes"/>
      <point x="275" y="466"/>
      <point x="371" y="514"/>
      <point x="417" y="514" type="qcurve" smooth="yes"/>
      <point x="455" y="514"/>
      <point x="516" y="482"/>
      <point x="555" y="427"/>
      <point x="558" y="391" type="qcurve"/>
      <point x="482" y="0" type="line"/>
      <point x="346" y="0" type="line"/>
      <point x="408" y="320" type="line" smooth="yes"/>
      <point x="411" y="335"/>
      <point x="411" y="349" type="qcurve" smooth="yes"/>
      <point x="411" y="384"/>
      <point x="375" y="429"/>
      <point x="344" y="429" type="qcurve" smooth="yes"/>
      <point x="323" y="429"/>
      <point x="281" y="407"/>
      <point x="244" y="368"/>
      <point x="218" y="317"/>
      <point x="212" y="289" type="qcurve"/>
    </contour>
    <contour>
      <point x="20" y="0" type="line"/>
      <point x="117" y="500" type="line"/>
      <point x="253" y="500" type="line"/>
      <point x="156" y="0" type="line"/>
    </contour>
  </outline>
</glyph>
<glyph name="n" format="2">
  <advance width="588.0"/>
  <unicode hex="006E"/>
  <outline>
    <contour>
      <point x="20" y="0" type="line"/>
      <point x="118" y="500" type="line"/>
      <point x="254" y="500" type="line"/>
      <point x="156" y="0" type="line"/>
    </contour>
    <contour>
      <point x="190" y="279" type="line"/>
      <point x="215" y="405" type="line"/>
      <point x="240" y="433" type="line" smooth="yes"/>
      <point x="265" y="460"/>
      <point x="320" y="496"/>
      <point x="381" y="514"/>
      <point x="416" y="514" type="qcurve" smooth="yes"/>
      <point x="485" y="514"/>
      <point x="558" y="449"/>
      <point x="558" y="387" type="qcurve" smooth="yes"/>
      <point x="558" y="365"/>
      <point x="553" y="339" type="qcurve" smooth="yes"/>
      <point x="487" y="0" type="line"/>
      <point x="351" y="0" type="line"/>
      <point x="409" y="299" type="line" smooth="yes"/>
      <point x="415" y="329"/>
      <point x="415" y="353" type="qcurve" smooth="yes"/>
      <point x="415" y="393"/>
      <point x="381" y="432"/>
      <point x="346" y="432" type="qcurve" smooth="yes"/>
      <point x="312" y="432"/>
      <point x="258" y="396"/>
      <point x="220" y="328"/>
      <point x="210" y="279" type="qcurve"/>
    </contour>
  </outline>
</glyph>
<glyph name="o" format="2">
  <advance width="604.0"/>
  <unicode hex="006F"/>
  <outline>
    <contour>
      <point x="37" y="196" type="qcurve" smooth="yes"/>
      <point x="37" y="259"/>
      <point x="85" y="374"/>
      <point x="171" y="463"/>
      <point x="286" y="514"/>
      <point x="353" y="514" type="qcurve" smooth="yes"/>
      <point x="452" y="514"/>
      <point x="565" y="401"/>
      <point x="565" y="305" type="qcurve" smooth="yes"/>
      <point x="565" y="242"/>
      <point x="517" y="127"/>
      <point x="432" y="38"/>
      <point x="318" y="-14"/>
      <point x="250" y="-14" type="qcurve" smooth="yes"/>
      <point x="151" y="-14"/>
      <point x="37" y="99"/>
    </contour>
    <contour>
      <point x="171" y="190" type="qcurve" smooth="yes"/>
      <point x="171" y="131"/>
      <point x="219" y="72"/>
      <point x="266" y="72" type="qcurve" smooth="yes"/>
      <point x="310" y="72"/>
      <point x="373" y="119"/>
      <point x="412" y="193"/>
      <point x="431" y="275"/>
      <point x="431" y="310" type="qcurve" smooth="yes"/>
      <point x="431" y="369"/>
      <point x="382" y="428"/>
      <point x="335" y="428" type="qcurve" smooth="yes"/>
      <point x="291" y="428"/>
      <point x="229" y="381"/>
      <point x="189" y="307"/>
      <point x="171" y="225"/>
    </contour>
  </outline>
</glyph>
<glyph name="p" format="2">
  <advance width="602.0"/>
  <unicode hex="0070"/>
  <outline>
    <contour>
      <point x="-39" y="-198" type="line"/>
      <point x="77" y="399" type="line" smooth="yes"/>
      <point x="81" y="424"/>
      <point x="89" y="475"/>
      <point x="92" y="500" type="qcurve"/>
      <point x="228" y="500" type="line"/>
      <point x="226" y="483"/>
      <point x="221" y="449"/>
      <point x="218" y="432" type="qcurve" smooth="yes"/>
      <point x="96" y="-198" type="line"/>
    </contour>
    <contour>
      <point x="127" y="75" type="qcurve"/>
      <point x="196" y="430" type="line"/>
      <point x="232" y="461"/>
      <point x="291" y="498"/>
      <point x="347" y="514"/>
      <point x="379" y="514" type="qcurve" smooth="yes"/>
      <point x="468" y="514"/>
      <point x="563" y="412"/>
      <point x="563" y="319" type="qcurve" smooth="yes"/>
      <point x="563" y="260"/>
      <point x="525" y="142"/>
      <point x="452" y="45"/>
      <point x="348" y="-14"/>
      <point x="281" y="-14" type="qcurve" smooth="yes"/>
      <point x="226" y="-14"/>
      <point x="152" y="30"/>
    </contour>
    <contour>
      <point x="177" y="196" type="qcurve" smooth="yes"/>
      <point x="177" y="142"/>
      <point x="230" y="72"/>
      <point x="275" y="72" type="qcurve" smooth="yes"/>
      <point x="313" y="72"/>
      <point x="369" y="117"/>
      <point x="406" y="188"/>
      <point x="424" y="267"/>
      <point x="424" y="301" type="qcurve" smooth="yes"/>
      <point x="424" y="358"/>
      <point x="374" y="429"/>
      <point x="330" y="429" type="qcurve" smooth="yes"/>
      <point x="294" y="429"/>
      <point x="236" y="382"/>
      <point x="197" y="309"/>
      <point x="177" y="229"/>
    </contour>
  </outline>
</glyph>
<glyph name="q" format="2">
  <advance width="626.0"/>
  <unicode hex="0071"/>
  <outline>
    <contour>
      <point x="36" y="185" type="qcurve" smooth="yes"/>
      <point x="36" y="243"/>
      <point x="74" y="360"/>
      <point x="146" y="456"/>
      <point x="253" y="514"/>
      <point x="321" y="514" type="qcurve" smooth="yes"/>
      <point x="358" y="514"/>
      <point x="413" y="496"/>
      <point x="450" y="461"/>
      <point x="458" y="434" type="qcurve"/>
      <point x="391" y="84" type="line"/>
      <point x="373" y="57"/>
      <point x="315" y="12"/>
      <point x="252" y="-14"/>
      <point x="224" y="-14" type="qcurve" smooth="yes"/>
      <point x="127" y="-14"/>
      <point x="36" y="96"/>
    </contour>
    <contour>
      <point x="172" y="188" type="qcurve" smooth="yes"/>
      <point x="172" y="144"/>
      <point x="210" y="76"/>
      <point x="259" y="76" type="qcurve" smooth="yes"/>
      <point x="299" y="76"/>
      <point x="359" y="123"/>
      <point x="399" y="197"/>
      <point x="418" y="280"/>
      <point x="418" y="315" type="qcurve" smooth="yes"/>
      <point x="418" y="343"/>
      <point x="404" y="394"/>
      <point x="367" y="428"/>
      <point x="333" y="428" type="qcurve" smooth="yes"/>
      <point x="293" y="428"/>
      <point x="233" y="380"/>
      <point x="192" y="305"/>
      <point x="172" y="223"/>
    </contour>
    <contour>
      <point x="324" y="-200" type="line"/>
      <point x="460" y="500" type="line"/>
      <point x="595" y="500" type="line"/>
      <point x="459" y="-200" type="line"/>
    </contour>
  </outline>
</glyph>
<glyph name="r" format="2">
  <advance width="405.0"/>
  <unicode hex="0072"/>
  <outline>
    <contour>
      <point x="20" y="0" type="line"/>
      <point x="118" y="500" type="line"/>
      <point x="254" y="500" type="line"/>
      <point x="156" y="0" type="line"/>
    </contour>
    <contour>
      <point x="185" y="255" type="line"/>
      <point x="210" y="385" type="line"/>
      <point x="237" y="422" type="line" smooth="yes"/>
      <point x="271" y="469"/>
      <point x="364" y="514"/>
      <point x="426" y="514" type="qcurve"/>
      <point x="403" y="398" type="line"/>
      <point x="327" y="398"/>
      <point x="219" y="329"/>
      <point x="205" y="255" type="qcurve"/>
    </contour>
  </outline>
</glyph>
<glyph name="s" format="2">
  <advance width="523.0"/>
  <unicode hex="0073"/>
  <outline>
    <contour>
      <point x="17" y="115" type="qcurve" smooth="yes"/>
      <point x="17" y="124"/>
      <point x="19" y="144"/>
      <point x="21" y="154" type="qcurve"/>
      <point x="156" y="154" type="line"/>
      <point x="153" y="138"/>
      <point x="153" y="125" type="qcurve" smooth="yes"/>
      <point x="153" y="97"/>
      <point x="188" y="72"/>
      <point x="227" y="72" type="qcurve" smooth="yes"/>
      <point x="243" y="72"/>
      <point x="275" y="82"/>
      <point x="302" y="100"/>
      <point x="318" y="127"/>
      <point x="318" y="143" type="qcurve" smooth="yes"/>
      <point x="318" y="161"/>
      <point x="299" y="185"/>
      <point x="271" y="199"/>
      <point x="255" y="202" type="qcurve" smooth="yes"/>
      <point x="236" y="206" type="line" smooth="yes"/>
      <point x="197" y="214"/>
      <point x="122" y="243"/>
      <point x="72" y="296"/>
      <point x="72" y="342" type="qcurve" smooth="yes"/>
      <point x="72" y="385"/>
      <point x="116" y="449"/>
      <point x="186" y="492"/>
      <point x="269" y="514"/>
      <point x="309" y="514" type="qcurve" smooth="yes"/>
      <point x="357" y="514"/>
      <point x="436" y="493"/>
      <point x="483" y="441"/>
      <point x="483" y="395" type="qcurve" smooth="yes"/>
      <point x="483" y="376"/>
      <point x="479" y="354" type="qcurve"/>
      <point x="344" y="354" type="line"/>
      <point x="346" y="366"/>
      <point x="346" y="376" type="qcurve" smooth="yes"/>
      <point x="346" y="404"/>
      <point x="313" y="428"/>
      <point x="274" y="428" type="qcurve" smooth="yes"/>
      <point x="257" y="428"/>
      <point x="225" y="415"/>
      <point x="206" y="389"/>
      <point x="206" y="372" type="qcurve" smooth="yes"/>
      <point x="206" y="349"/>
      <point x="243" y="324"/>
      <point x="279" y="315" type="qcurve" smooth="yes"/>
      <point x="295" y="311" type="line" smooth="yes"/>
      <point x="333" y="302"/>
      <point x="406" y="276"/>
      <point x="452" y="226"/>
      <point x="452" y="184" type="qcurve" smooth="yes"/>
      <point x="452" y="133"/>
      <point x="405" y="58"/>
      <point x="328" y="10"/>
      <point x="236" y="-14"/>
      <point x="190" y="-14" type="qcurve" smooth="yes"/>
      <point x="144" y="-14"/>
      <point x="65" y="11"/>
      <point x="17" y="67"/>
    </contour>
  </outline>
</glyph>
<glyph name="t" format="2">
  <advance width="372.0"/>
  <unicode hex="0074"/>
  <outline>
    <contour>
      <point x="41" y="94" type="qcurve" smooth="yes"/>
      <point x="41" y="106"/>
      <point x="43" y="119" type="qcurve" smooth="yes"/>
      <point x="132" y="577" type="line"/>
      <point x="281" y="647" type="line"/>
      <point x="186" y="157" type="line" smooth="yes"/>
      <point x="184" y="146"/>
      <point x="184" y="137" type="qcurve" smooth="yes"/>
      <point x="184" y="109"/>
      <point x="218" y="79"/>
      <point x="248" y="79" type="qcurve" smooth="yes"/>
      <point x="262" y="79"/>
      <point x="288" y="84"/>
      <point x="300" y="88" type="qcurve"/>
      <point x="284" y="3" type="line"/>
      <point x="259" y="-5"/>
      <point x="206" y="-14"/>
      <point x="178" y="-14" type="qcurve" smooth="yes"/>
      <point x="121" y="-14"/>
      <point x="41" y="43"/>
    </contour>
    <contour>
      <point x="221" y="415" type="line"/>
      <point x="237" y="500" type="line"/>
      <point x="371" y="500" type="line"/>
      <point x="355" y="415" type="line"/>
    </contour>
    <contour>
      <point x="1" y="415" type="line"/>
      <point x="17" y="500" type="line"/>
      <point x="132" y="500" type="line"/>
      <point x="116" y="415" type="line"/>
    </contour>
  </outline>
</glyph>
<glyph name="v" format="2">
  <advance width="515.0"/>
  <unicode hex="0076"/>
  <outline>
    <contour>
      <point x="130" y="0" type="line"/>
      <point x="41" y="500" type="line"/>
      <point x="185" y="500" type="line"/>
      <point x="236" y="140" type="line"/>
      <point x="229" y="140" type="line"/>
      <point x="421" y="500" type="line"/>
      <point x="565" y="500" type="line"/>
      <point x="280" y="0" type="line"/>
    </contour>
  </outline>
</glyph>
<glyph name="w" format="2">
  <advance width="827.0"/>
  <unicode hex="0077"/>
  <outline>
    <contour>
      <point x="96" y="0" type="line"/>
      <point x="41" y="500" type="line"/>
      <point x="180" y="500" type="line"/>
      <point x="213" y="158" type="line"/>
      <point x="206" y="159" type="line"/>
      <point x="381" y="500" type="line"/>
      <point x="537" y="500" type="line"/>
      <point x="579" y="158" type="line"/>
      <point x="571" y="158" type="line"/>
      <point x="738" y="500" type="line"/>
      <point x="877" y="500" type="line"/>
      <point x="626" y="0" type="line"/>
      <point x="466" y="0" type="line"/>
      <point x="428" y="361" type="line"/>
      <point x="435" y="361" type="line"/>
      <point x="256" y="0" type="line"/>
    </contour>
  </outline>
</glyph>
<glyph name="x" format="2">
  <advance width="558.0"/>
  <unicode hex="0078"/>
  <outline>
    <contour>
      <point x="75" y="500" type="line"/>
      <point x="235" y="500" type="line"/>
      <point x="487" y="0" type="line"/>
      <point x="327" y="0" type="line"/>
    </contour>
    <contour>
      <point x="-40" y="0" type="line"/>
      <point x="201" y="280" type="line"/>
      <point x="260" y="192" type="line"/>
      <point x="110" y="0" type="line"/>
    </contour>
    <contour>
      <point x="294" y="340" type="line"/>
      <point x="418" y="500" type="line"/>
      <point x="568" y="500" type="line"/>
      <point x="354" y="256" type="line"/>
    </contour>
  </outline>
</glyph>
<glyph name="y" format="2">
  <advance width="515.0"/>
  <unicode hex="0079"/>
  <outline>
    <contour>
      <point x="21" y="-200" type="line"/>
      <point x="412" y="500" type="line"/>
      <point x="555" y="500" type="line"/>
      <point x="169" y="-200" type="line"/>
    </contour>
    <contour>
      <point x="32" y="500" type="line"/>
      <point x="185" y="500" type="line"/>
      <point x="242" y="166" type="line"/>
      <point x="137" y="-14" type="line"/>
    </contour>
  </outline>
</glyph>
<glyph name="z" format="2">
  <advance width="473.0"/>
  <unicode hex="007A"/>
  <outline>
    <contour>
      <point x="-10" y="0" type="line"/>
      <point x="11" y="105" type="line"/>
      <point x="346" y="424" type="line"/>
      <point x="348" y="415" type="line"/>
      <point x="76" y="415" type="line"/>
      <point x="93" y="500" type="line"/>
      <point x="493" y="500" type="line"/>
      <point x="472" y="395" type="line"/>
      <point x="137" y="76" type="line"/>
      <point x="135" y="85" type="line"/>
      <point x="425" y="85" type="line"/>
      <point x="408" y="0" type="line"/>
    </contour>
  </outline>
</glyph>
<glyph name="braceleft" format="2">
  <advance width="512.0"/>
  <unicode hex="007B"/>
  <outline>
    <contour>
      <point x="104" y="-116" type="qcurve" smooth="yes"/>
      <point x="104" y="-172"/>
      <point x="160" y="-225"/>
      <point x="258" y="-240"/>
      <point x="322" y="-240" type="qcurve"/>
      <point x="340" y="-146" type="line"/>
      <point x="311" y="-146"/>
      <point x="264" y="-141"/>
      <point x="235" y="-120"/>
      <point x="235" y="-96" type="qcurve" smooth="yes"/>
      <point x="235" y="-91"/>
      <point x="236" y="-81"/>
      <point x="238" y="-75" type="qcurve"/>
      <point x="272" y="86" type="line"/>
      <point x="273" y="93"/>
      <point x="275" y="109"/>
      <point x="275" y="118" type="qcurve" smooth="yes"/>
      <point x="275" y="150"/>
      <point x="240" y="230"/>
      <point x="184" y="261" type="qcurve"/>
      <point x="247" y="289"/>
      <point x="312" y="347"/>
      <point x="340" y="425"/>
      <point x="348" y="485" type="qcurve" smooth="yes"/>
      <point x="361" y="576" type="line" smooth="yes"/>
      <point x="367" y="621"/>
      <point x="407" y="658"/>
      <point x="464" y="665"/>
      <point x="497" y="665" type="qcurve"/>
      <point x="515" y="759" type="line"/>
      <point x="460" y="759"/>
      <point x="366" y="748"/>
      <point x="292" y="712"/>
      <point x="244" y="638"/>
      <point x="234" y="575" type="qcurve" smooth="yes"/>
      <point x="216" y="459" type="line" smooth="yes"/>
      <point x="208" y="407"/>
      <point x="168" y="343"/>
      <point x="102" y="309"/>
      <point x="55" y="302" type="qcurve"/>
      <point x="38" y="216" type="line"/>
      <point x="82" y="210"/>
      <point x="142" y="143"/>
      <point x="142" y="89" type="qcurve" smooth="yes"/>
      <point x="142" y="82"/>
      <point x="140" y="65"/>
      <point x="138" y="56" type="qcurve" smooth="yes"/>
      <point x="110" y="-65" type="line" smooth="yes"/>
      <point x="106" y="-80"/>
      <point x="104" y="-106"/>
    </contour>
  </outline>
</glyph>
<glyph name="bar" format="2">
  <advance width="381.0"/>
  <unicode hex="007C"/>
  <outline>
    <contour>
      <point x="20" y="-258" type="line"/>
      <point x="225" y="796" type="line"/>
      <point x="360" y="796" type="line"/>
      <point x="155" y="-258" type="line"/>
    </contour>
  </outline>
</glyph>
<glyph name="asciitilde" format="2">
  <advance width="533.0"/>
  <unicode hex="007E"/>
  <outline>
    <contour>
      <point x="5" y="195" type="line"/>
      <point x="33" y="251"/>
      <point x="127" y="313"/>
      <point x="183" y="313" type="qcurve" smooth="yes"/>
      <point x="214" y="313"/>
      <point x="270" y="301"/>
      <point x="322" y="285"/>
      <point x="372" y="273"/>
      <point x="395" y="273" type="qcurve" smooth="yes"/>
      <point x="415" y="273"/>
      <point x="444" y="282"/>
      <point x="465" y="300"/>
      <point x="474" y="315" type="qcurve"/>
      <point x="562" y="315" type="line"/>
      <point x="544" y="280"/>
      <point x="489" y="227"/>
      <point x="420" y="198"/>
      <point x="383" y="198" type="qcurve" smooth="yes"/>
      <point x="353" y="198"/>
      <point x="298" y="210"/>
      <point x="247" y="226"/>
      <point x="199" y="238"/>
      <point x="176" y="238" type="qcurve" smooth="yes"/>
      <point x="154" y="238"/>
      <point x="124" y="229"/>
      <point x="104" y="211"/>
      <point x="96" y="195" type="qcurve"/>
    </contour>
  </outline>
</glyph>
<glyph name="cent" format="2">
  <advance width="573.0"/>
  <unicode hex="00A2"/>
  <outline>
    <contour>
      <point x="115" y="-80" type="line"/>
      <point x="57" y="-80" type="line"/>
      <point x="400" y="580" type="line"/>
      <point x="459" y="580" type="line"/>
    </contour>
    <contour>
      <point x="51" y="164" type="qcurve" smooth="yes"/>
      <point x="51" y="76"/>
      <point x="147" y="-14"/>
      <point x="241" y="-14" type="qcurve" smooth="yes"/>
      <point x="308" y="-14"/>
      <point x="407" y="31"/>
      <point x="470" y="120"/>
      <point x="483" y="184" type="qcurve"/>
      <point x="348" y="184" type="line"/>
      <point x="341" y="150"/>
      <point x="321" y="99"/>
      <point x="284" y="72"/>
      <point x="252" y="72" type="qcurve" smooth="yes"/>
      <point x="211" y="72"/>
      <point x="182" y="117"/>
      <point x="182" y="156" type="qcurve" smooth="yes"/>
      <point x="182" y="180"/>
      <point x="192" y="249"/>
      <point x="212" y="323"/>
      <point x="246" y="388"/>
      <point x="294" y="428"/>
      <point x="326" y="428" type="qcurve" smooth="yes"/>
      <point x="358" y="428"/>
      <point x="380" y="388"/>
      <point x="380" y="358" type="qcurve" smooth="yes"/>
      <point x="380" y="350"/>
      <point x="379" y="333"/>
      <point x="378" y="324" type="qcurve"/>
      <point x="510" y="324" type="line"/>
      <point x="513" y="339"/>
      <point x="516" y="367"/>
      <point x="516" y="380" type="qcurve" smooth="yes"/>
      <point x="516" y="452"/>
      <point x="425" y="514"/>
      <point x="341" y="514" type="qcurve" smooth="yes"/>
      <point x="269" y="514"/>
      <point x="161" y="454"/>
      <point x="88" y="353"/>
      <point x="51" y="228"/>
    </contour>
  </outline>
</glyph>
<glyph name="sterling" format="2">
  <advance width="573.0"/>
  <unicode hex="00A3"/>
  <outline>
    <contour>
      <point x="71" y="71" type="line"/>
      <point x="166" y="558" type="line" smooth="yes"/>
      <point x="178" y="620"/>
      <point x="243" y="698"/>
      <point x="345" y="736"/>
      <point x="412" y="736" type="qcurve" smooth="yes"/>
      <point x="467" y="736"/>
      <point x="549" y="715"/>
      <point x="594" y="662"/>
      <point x="594" y="613" type="qcurve" smooth="yes"/>
      <point x="594" y="591"/>
      <point x="589" y="563" type="qcurve"/>
      <point x="454" y="563" type="line"/>
      <point x="457" y="579"/>
      <point x="457" y="593" type="qcurve" smooth="yes"/>
      <point x="457" y="612"/>
      <point x="444" y="637"/>
      <point x="417" y="650"/>
      <point x="397" y="650" type="qcurve" smooth="yes"/>
      <point x="371" y="650"/>
      <point x="332" y="629"/>
      <point x="306" y="586"/>
      <point x="300" y="554" type="qcurve" smooth="yes"/>
      <point x="206" y="71" type="line"/>
    </contour>
    <contour>
      <point x="-16" y="0" type="line"/>
      <point x="1" y="86" type="line"/>
      <point x="495" y="86" type="line"/>
      <point x="478" y="0" type="line"/>
    </contour>
    <contour>
      <point x="56" y="365" type="line"/>
      <point x="72" y="451" type="line"/>
      <point x="415" y="451" type="line"/>
      <point x="399" y="365" type="line"/>
    </contour>
  </outline>
</glyph>
<glyph name="currency" format="2">
  <advance width="609.0"/>
  <unicode hex="00A4"/>
  <outline>
    <contour>
      <point x="39" y="374" type="qcurve" smooth="yes"/>
      <point x="39" y="440"/>
      <point x="95" y="558"/>
      <point x="190" y="649"/>
      <point x="310" y="702"/>
      <point x="375" y="702" type="qcurve" smooth="yes"/>
      <point x="440" y="702"/>
      <point x="541" y="643"/>
      <point x="599" y="542"/>
      <point x="599" y="480" type="qcurve" smooth="yes"/>
      <point x="599" y="416"/>
      <point x="543" y="299"/>
      <point x="448" y="206"/>
      <point x="330" y="152"/>
      <point x="267" y="152" type="qcurve" smooth="yes"/>
      <point x="200" y="152"/>
      <point x="98" y="210"/>
      <point x="39" y="311"/>
    </contour>
    <contour>
      <point x="177" y="401" type="qcurve" smooth="yes"/>
      <point x="177" y="353"/>
      <point x="242" y="288"/>
      <point x="293" y="288" type="qcurve" smooth="yes"/>
      <point x="334" y="288"/>
      <point x="411" y="336"/>
      <point x="459" y="411"/>
      <point x="459" y="453" type="qcurve" smooth="yes"/>
      <point x="459" y="500"/>
      <point x="396" y="567"/>
      <point x="347" y="567" type="qcurve" smooth="yes"/>
      <point x="304" y="567"/>
      <point x="226" y="520"/>
      <point x="177" y="445"/>
    </contour>
    <contour>
      <point x="29" y="657" type="line"/>
      <point x="156" y="763" type="line"/>
      <point x="262" y="637" type="line"/>
      <point x="136" y="531" type="line"/>
    </contour>
    <contour>
      <point x="455" y="636" type="line"/>
      <point x="600" y="763" type="line"/>
      <point x="686" y="657" type="line"/>
      <point x="544" y="534" type="line"/>
    </contour>
    <contour>
      <point x="387" y="203" type="line"/>
      <point x="512" y="311" type="line"/>
      <point x="601" y="201" type="line"/>
      <point x="476" y="93" type="line"/>
    </contour>
    <contour>
      <point x="-73" y="195" type="line"/>
      <point x="91" y="328" type="line"/>
      <point x="183" y="226" type="line"/>
      <point x="19" y="93" type="line"/>
    </contour>
  </outline>
</glyph>
<glyph name="yen" format="2">
  <advance width="573.0"/>
  <unicode hex="00A5"/>
  <outline>
    <contour>
      <point x="150" y="0" type="line"/>
      <point x="203" y="272" type="line"/>
      <point x="201" y="272" type="line"/>
      <point x="72" y="722" type="line"/>
      <point x="221" y="722" type="line"/>
      <point x="301" y="408" type="line"/>
      <point x="291" y="408" type="line"/>
      <point x="493" y="722" type="line"/>
      <point x="642" y="722" type="line"/>
      <point x="339" y="272" type="line"/>
      <point x="337" y="272" type="line"/>
      <point x="284" y="0" type="line"/>
    </contour>
    <contour>
      <point x="-4" y="272" type="line"/>
      <point x="9" y="338" type="line"/>
      <point x="199" y="338" type="line"/>
      <point x="218" y="272" type="line"/>
    </contour>
    <contour>
      <point x="322" y="272" type="line"/>
      <point x="367" y="338" type="line"/>
      <point x="557" y="338" type="line"/>
      <point x="544" y="272" type="line"/>
    </contour>
    <contour>
      <point x="32" y="457" type="line"/>
      <point x="44" y="523" type="line"/>
      <point x="144" y="523" type="line"/>
      <point x="164" y="457" type="line"/>
    </contour>
    <contour>
      <point x="448" y="457" type="line"/>
      <point x="491" y="523" type="line"/>
      <point x="592" y="523" type="line"/>
      <point x="580" y="457" type="line"/>
    </contour>
  </outline>
</glyph>
<glyph name="brokenbar" format="2">
  <advance width="353.0"/>
  <unicode hex="00A6"/>
  <outline>
    <contour>
      <point x="125" y="336" type="line"/>
      <point x="203" y="736" type="line"/>
      <point x="333" y="736" type="line"/>
      <point x="255" y="336" type="line"/>
    </contour>
    <contour>
      <point x="21" y="-198" type="line"/>
      <point x="99" y="202" type="line"/>
      <point x="229" y="202" type="line"/>
      <point x="151" y="-198" type="line"/>
    </contour>
  </outline>
</glyph>
<glyph name="section" format="2">
  <advance width="467.0"/>
  <unicode hex="00A7"/>
  <outline>
    <contour>
      <point x="-49" y="-137" type="qcurve"/>
      <point x="-28" y="-30" type="line"/>
      <point x="8" y="-55"/>
      <point x="72" y="-81"/>
      <point x="103" y="-81" type="qcurve" smooth="yes"/>
      <point x="127" y="-81"/>
      <point x="189" y="-63"/>
      <point x="236" y="-24"/>
      <point x="236" y="9" type="qcurve" smooth="yes"/>
      <point x="236" y="21"/>
      <point x="227" y="42"/>
      <point x="216" y="49" type="qcurve" smooth="yes"/>
      <point x="56" y="162" type="line" smooth="yes"/>
      <point x="31" y="180"/>
      <point x="-17" y="232"/>
      <point x="-17" y="271" type="qcurve" smooth="yes"/>
      <point x="-17" y="311"/>
      <point x="13" y="380"/>
      <point x="65" y="435"/>
      <point x="130" y="475"/>
      <point x="166" y="487" type="qcurve"/>
      <point x="239" y="438" type="line"/>
      <point x="219" y="429"/>
      <point x="170" y="404"/>
      <point x="126" y="371"/>
      <point x="97" y="330"/>
      <point x="97" y="305" type="qcurve" smooth="yes"/>
      <point x="97" y="293"/>
      <point x="106" y="274"/>
      <point x="117" y="267" type="qcurve" smooth="yes"/>
      <point x="283" y="159" type="line" smooth="yes"/>
      <point x="324" y="132"/>
      <point x="365" y="71"/>
      <point x="365" y="39" type="qcurve" smooth="yes"/>
      <point x="365" y="-10"/>
      <point x="319" y="-90"/>
      <point x="243" y="-147"/>
      <point x="153" y="-177"/>
      <point x="110" y="-177" type="qcurve" smooth="yes"/>
      <point x="87" y="-177"/>
      <point x="24" y="-167"/>
      <point x="-33" y="-150"/>
    </contour>
    <contour>
      <point x="198" y="144" type="line"/>
      <point x="218" y="145"/>
      <point x="268" y="170"/>
      <point x="313" y="209"/>
      <point x="342" y="254"/>
      <point x="342" y="277" type="qcurve" smooth="yes"/>
      <point x="342" y="288"/>
      <point x="333" y="310"/>
      <point x="321" y="317" type="qcurve" smooth="yes"/>
      <point x="163" y="413" type="line" smooth="yes"/>
      <point x="136" y="430"/>
      <point x="101" y="469"/>
      <point x="84" y="515"/>
      <point x="84" y="541" type="qcurve" smooth="yes"/>
      <point x="84" y="585"/>
      <point x="125" y="655"/>
      <point x="193" y="706"/>
      <point x="275" y="734"/>
      <point x="316" y="734" type="qcurve" smooth="yes"/>
      <point x="371" y="734"/>
      <point x="435" y="715"/>
      <point x="463" y="692" type="qcurve"/>
      <point x="444" y="593" type="line"/>
      <point x="407" y="618"/>
      <point x="340" y="642"/>
      <point x="316" y="642" type="qcurve" smooth="yes"/>
      <point x="291" y="642"/>
      <point x="245" y="621"/>
      <point x="214" y="585"/>
      <point x="214" y="562" type="qcurve" smooth="yes"/>
      <point x="214" y="552"/>
      <point x="222" y="532"/>
      <point x="233" y="525" type="qcurve" smooth="yes"/>
      <point x="400" y="411" type="line" smooth="yes"/>
      <point x="416" y="399"/>
      <point x="446" y="367"/>
      <point x="466" y="324"/>
      <point x="466" y="295" type="qcurve" smooth="yes"/>
      <point x="466" y="259"/>
      <point x="435" y="197"/>
      <point x="384" y="145"/>
      <point x="321" y="103"/>
      <point x="290" y="89" type="qcurve"/>
    </contour>
  </outline>
</glyph>
<glyph name="dieresis" format="2">
  <advance width="394.0"/>
  <unicode hex="00A8"/>
  <outline>
    <contour>
      <point x="21" y="620" type="line"/>
      <point x="44" y="740" type="line"/>
      <point x="154" y="740" type="line"/>
      <point x="131" y="620" type="line"/>
    </contour>
    <contour>
      <point x="231" y="620" type="line"/>
      <point x="254" y="740" type="line"/>
      <point x="364" y="740" type="line"/>
      <point x="341" y="620" type="line"/>
    </contour>
  </outline>
</glyph>
<glyph name="copyright" format="2">
  <advance width="867.0"/>
  <unicode hex="00A9"/>
  <outline>
    <contour>
      <point x="224" y="299" type="qcurve" smooth="yes"/>
      <point x="224" y="350"/>
      <point x="259" y="452"/>
      <point x="326" y="536"/>
      <point x="421" y="586"/>
      <point x="481" y="586" type="qcurve" smooth="yes"/>
      <point x="524" y="586"/>
      <point x="593" y="556"/>
      <point x="633" y="497"/>
      <point x="633" y="454" type="qcurve" smooth="yes"/>
      <point x="633" y="436"/>
      <point x="629" y="416" type="qcurve"/>
      <point x="515" y="416" type="line"/>
      <point x="517" y="431"/>
      <point x="517" y="443" type="qcurve" smooth="yes"/>
      <point x="517" y="476"/>
      <point x="489" y="509"/>
      <point x="457" y="509" type="qcurve" smooth="yes"/>
      <point x="422" y="509"/>
      <point x="382" y="475"/>
      <point x="360" y="420"/>
      <point x="354" y="389" type="qcurve" smooth="yes"/>
      <point x="348" y="356" type="line"/>
      <point x="344" y="339"/>
      <point x="339" y="300"/>
      <point x="339" y="282" type="qcurve" smooth="yes"/>
      <point x="339" y="252"/>
      <point x="364" y="207"/>
      <point x="402" y="207" type="qcurve" smooth="yes"/>
      <point x="429" y="207"/>
      <point x="463" y="232"/>
      <point x="483" y="278"/>
      <point x="489" y="309" type="qcurve"/>
      <point x="606" y="309" type="line"/>
      <point x="596" y="254"/>
      <point x="532" y="173"/>
      <point x="440" y="130"/>
      <point x="386" y="130" type="qcurve" smooth="yes"/>
      <point x="303" y="130"/>
      <point x="224" y="224"/>
    </contour>
    <contour>
      <point x="50" y="290" type="qcurve" smooth="yes"/>
      <point x="50" y="360"/>
      <point x="99" y="491"/>
      <point x="185" y="603"/>
      <point x="300" y="688"/>
      <point x="434" y="735"/>
      <point x="504" y="735" type="qcurve" smooth="yes"/>
      <point x="596" y="735"/>
      <point x="736" y="656"/>
      <point x="814" y="519"/>
      <point x="814" y="431" type="qcurve" smooth="yes"/>
      <point x="814" y="361"/>
      <point x="765" y="230"/>
      <point x="678" y="117"/>
      <point x="563" y="32"/>
      <point x="429" y="-16"/>
      <point x="358" y="-16" type="qcurve" smooth="yes"/>
      <point x="266" y="-16"/>
      <point x="128" y="63"/>
      <point x="50" y="201"/>
    </contour>
    <contour>
      <point x="117" y="301" type="qcurve" smooth="yes"/>
      <point x="117" y="228"/>
      <point x="181" y="116"/>
      <point x="296" y="53"/>
      <point x="371" y="53" type="qcurve" smooth="yes"/>
      <point x="444" y="53"/>
      <point x="577" y="111"/>
      <point x="682" y="212"/>
      <point x="743" y="342"/>
      <point x="743" y="413" type="qcurve" smooth="yes"/>
      <point x="743" y="486"/>
      <point x="679" y="600"/>
      <point x="565" y="666"/>
      <point x="490" y="666" type="qcurve" smooth="yes"/>
      <point x="418" y="666"/>
      <point x="284" y="606"/>
      <point x="179" y="504"/>
      <point x="117" y="372"/>
    </contour>
  </outline>
</glyph>
<glyph name="ordfeminine" format="2">
  <advance width="388.0"/>
  <unicode hex="00AA"/>
  <outline>
    <contour>
      <point x="-6" y="232" type="line"/>
      <point x="3" y="279" type="line"/>
      <point x="352" y="279" type="line"/>
      <point x="343" y="232" type="line"/>
    </contour>
    <contour>
      <point x="401" y="430" type="qcurve" smooth="yes"/>
      <point x="401" y="470"/>
      <point x="436" y="524"/>
      <point x="492" y="556"/>
      <point x="560" y="569"/>
      <point x="594" y="569" type="qcurve" smooth="yes"/>
      <point x="614" y="569"/>
      <point x="646" y="567"/>
      <point x="670" y="563" type="qcurve"/>
      <point x="662" y="509" type="line"/>
      <point x="644" y="511"/>
      <point x="617" y="514"/>
      <point x="602" y="514" type="qcurve" smooth="yes"/>
      <point x="586" y="514"/>
      <point x="550" y="509"/>
      <point x="519" y="496"/>
      <point x="499" y="470"/>
      <point x="499" y="448" type="qcurve" smooth="yes"/>
      <point x="499" y="430"/>
      <point x="530" y="406"/>
      <point x="552" y="406" type="qcurve" smooth="yes"/>
      <point x="571" y="406"/>
      <point x="602" y="426"/>
      <point x="624" y="464"/>
      <point x="629" y="491" type="qcurve" smooth="yes"/>
      <point x="651" y="603" type="line" smooth="yes"/>
      <point x="653" y="612"/>
      <point x="653" y="620" type="qcurve" smooth="yes"/>
      <point x="653" y="639"/>
      <point x="631" y="658"/>
      <point x="608" y="658" type="qcurve" smooth="yes"/>
      <point x="581" y="658"/>
      <point x="549" y="632"/>
      <point x="544" y="608" type="qcurve"/>
      <point x="449" y="608" type="line"/>
      <point x="458" y="655"/>
      <point x="551" y="713"/>
      <point x="621" y="713" type="qcurve" smooth="yes"/>
      <point x="688" y="713"/>
      <point x="749" y="677"/>
      <point x="749" y="634" type="qcurve" smooth="yes"/>
      <point x="749" y="617"/>
      <point x="743" y="593" type="qcurve" smooth="yes"/>
      <point x="721" y="494" type="line" smooth="yes"/>
      <point x="713" y="459"/>
      <point x="708" y="402"/>
      <point x="708" y="384" type="qcurve" smooth="yes"/>
      <point x="708" y="373"/>
      <point x="709" y="358"/>
      <point x="710" y="352" type="qcurve"/>
      <point x="621" y="352" type="line"/>
      <point x="618" y="368"/>
      <point x="618" y="385" type="qcurve" smooth="yes"/>
      <point x="618" y="390"/>
      <point x="618" y="400"/>
      <point x="619" y="405" type="qcurve"/>
      <point x="627" y="403" type="line"/>
      <point x="596" y="371"/>
      <point x="539" y="343"/>
      <point x="506" y="343" type="qcurve" smooth="yes"/>
      <point x="458" y="343"/>
      <point x="401" y="391"/>
    </contour>
  </outline>
</glyph>
<glyph name="guillemotleft" format="2">
  <advance width="577.0"/>
  <unicode hex="00AB"/>
  <outline>
    <contour>
      <point x="41" y="252" type="line"/>
      <point x="188" y="447" type="line"/>
      <point x="318" y="447" type="line"/>
      <point x="183" y="241" type="line"/>
      <point x="188" y="263" type="line"/>
      <point x="243" y="57" type="line"/>
      <point x="113" y="57" type="line"/>
    </contour>
    <contour>
      <point x="259" y="252" type="line"/>
      <point x="406" y="447" type="line"/>
      <point x="536" y="447" type="line"/>
      <point x="401" y="241" type="line"/>
      <point x="406" y="263" type="line"/>
      <point x="461" y="57" type="line"/>
      <point x="331" y="57" type="line"/>
    </contour>
  </outline>
</glyph>
<glyph name="logicalnot" format="2">
  <advance width="619.0"/>
  <unicode hex="00AC"/>
  <outline>
    <contour>
      <point x="63" y="340" type="line"/>
      <point x="83" y="440" type="line"/>
      <point x="643" y="440" type="line"/>
      <point x="594" y="189" type="line"/>
      <point x="494" y="189" type="line"/>
      <point x="523" y="340" type="line"/>
    </contour>
  </outline>
</glyph>
<glyph name="uni00AD" format="2">
  <advance width="370.0"/>
  <unicode hex="00AD"/>
  <outline>
    <contour>
      <point x="54" y="249" type="line"/>
      <point x="74" y="349" type="line"/>
      <point x="364" y="349" type="line"/>
      <point x="344" y="249" type="line"/>
    </contour>
  </outline>
</glyph>
<glyph name="registered" format="2">
  <advance width="867.0"/>
  <unicode hex="00AE"/>
  <outline>
    <contour>
      <point x="50" y="285" type="qcurve" smooth="yes"/>
      <point x="50" y="374"/>
      <point x="124" y="536"/>
      <point x="252" y="662"/>
      <point x="416" y="735"/>
      <point x="504" y="735" type="qcurve" smooth="yes"/>
      <point x="597" y="735"/>
      <point x="736" y="657"/>
      <point x="814" y="522"/>
      <point x="814" y="435" type="qcurve" smooth="yes"/>
      <point x="814" y="364"/>
      <point x="765" y="231"/>
      <point x="679" y="117"/>
      <point x="563" y="32"/>
      <point x="429" y="-16"/>
      <point x="358" y="-16" type="qcurve" smooth="yes"/>
      <point x="266" y="-16"/>
      <point x="128" y="62"/>
      <point x="50" y="199"/>
    </contour>
    <contour>
      <point x="117" y="299" type="qcurve" smooth="yes"/>
      <point x="117" y="228"/>
      <point x="182" y="116"/>
      <point x="296" y="50"/>
      <point x="371" y="50" type="qcurve" smooth="yes"/>
      <point x="443" y="50"/>
      <point x="576" y="109"/>
      <point x="681" y="212"/>
      <point x="743" y="343"/>
      <point x="743" y="415" type="qcurve" smooth="yes"/>
      <point x="743" y="486"/>
      <point x="679" y="600"/>
      <point x="565" y="666"/>
      <point x="490" y="666" type="qcurve" smooth="yes"/>
      <point x="418" y="666"/>
      <point x="285" y="606"/>
      <point x="179" y="503"/>
      <point x="117" y="371"/>
    </contour>
    <contour>
      <point x="347" y="321" type="line"/>
      <point x="360" y="390" type="line"/>
      <point x="447" y="390" type="line" smooth="yes"/>
      <point x="466" y="390"/>
      <point x="511" y="406"/>
      <point x="543" y="437"/>
      <point x="543" y="459" type="qcurve" smooth="yes"/>
      <point x="543" y="483"/>
      <point x="504" y="509"/>
      <point x="477" y="509" type="qcurve" smooth="yes"/>
      <point x="308" y="509" type="line"/>
      <point x="322" y="578" type="line"/>
      <point x="490" y="578" type="line" smooth="yes"/>
      <point x="563" y="578"/>
      <point x="637" y="533"/>
      <point x="637" y="487" type="qcurve" smooth="yes"/>
      <point x="637" y="457"/>
      <point x="607" y="398"/>
      <point x="555" y="359"/>
      <point x="522" y="359" type="qcurve"/>
      <point x="561" y="359"/>
      <point x="585" y="302"/>
      <point x="585" y="264" type="qcurve" smooth="yes"/>
      <point x="585" y="239"/>
      <point x="580" y="189"/>
      <point x="580" y="168" type="qcurve" smooth="yes"/>
      <point x="580" y="162"/>
      <point x="581" y="150"/>
      <point x="582" y="145" type="qcurve"/>
      <point x="492" y="145" type="line"/>
      <point x="490" y="151"/>
      <point x="489" y="163"/>
      <point x="489" y="170" type="qcurve" smooth="yes"/>
      <point x="489" y="190"/>
      <point x="495" y="235"/>
      <point x="495" y="256" type="qcurve" smooth="yes"/>
      <point x="495" y="274"/>
      <point x="486" y="304"/>
      <point x="463" y="321"/>
      <point x="440" y="321" type="qcurve" smooth="yes"/>
    </contour>
    <contour>
      <point x="232" y="145" type="line"/>
      <point x="316" y="578" type="line"/>
      <point x="406" y="578" type="line"/>
      <point x="322" y="145" type="line"/>
    </contour>
  </outline>
</glyph>
<glyph name="macron" format="2">
  <advance width="460.0"/>
  <unicode hex="00AF"/>
  <outline>
    <contour>
      <point x="30" y="620" type="line"/>
      <point x="50" y="720" type="line"/>
      <point x="430" y="720" type="line"/>
      <point x="410" y="620" type="line"/>
    </contour>
  </outline>
</glyph>
<glyph name="degree" format="2">
  <advance width="320.0"/>
  <unicode hex="00B0"/>
  <outline>
    <contour>
      <point x="85" y="588.1479289940828" type="qcurve" smooth="yes"/>
      <point x="85" y="624.9644970414201"/>
      <point x="126.71428571428571" y="689.9349112426036"/>
      <point x="193.6766917293233" y="730"/>
      <point x="231" y="730" type="qcurve" smooth="yes"/>
      <point x="274" y="730"/>
      <point x="330" y="674.0243902439024"/>
      <point x="330" y="632.3170731707318" type="qcurve" smooth="yes"/>
      <point x="330" y="595"/>
      <point x="287" y="530"/>
      <point x="220.86315789473684" y="490"/>
      <point x="184" y="490" type="qcurve" smooth="yes"/>
      <point x="141" y="490"/>
      <point x="85" y="547"/>
    </contour>
    <contour>
      <point x="147" y="598.7446808510638" type="qcurve" smooth="yes"/>
      <point x="147" y="578"/>
      <point x="174" y="550"/>
      <point x="196" y="550" type="qcurve" smooth="yes"/>
      <point x="214.39344262295083" y="550"/>
      <point x="247" y="570"/>
      <point x="269" y="602.6065573770492"/>
      <point x="269" y="621" type="qcurve" smooth="yes"/>
      <point x="269" y="642"/>
      <point x="240.9298245614035" y="670"/>
      <point x="219" y="670" type="qcurve" smooth="yes"/>
      <point x="200.58139534883722" y="670"/>
      <point x="167.93023255813952" y="650.016393442623"/>
      <point x="147" y="617"/>
    </contour>
  </outline>
</glyph>
<glyph name="plusminus" format="2">
  <advance width="1000.0"/>
  <unicode hex="00B1"/>
  <outline>
    <contour>
      <point x="205" y="358" type="line"/>
      <point x="229" y="480" type="line"/>
      <point x="498" y="480" type="line"/>
      <point x="533" y="660" type="line"/>
      <point x="655" y="660" type="line"/>
      <point x="620" y="480" type="line"/>
      <point x="889" y="480" type="line"/>
      <point x="865" y="358" type="line"/>
      <point x="596" y="358" type="line"/>
      <point x="561" y="178" type="line"/>
      <point x="439" y="178" type="line"/>
      <point x="474" y="358" type="line"/>
    </contour>
    <contour>
      <point x="136" y="0" type="line"/>
      <point x="160" y="122" type="line"/>
      <point x="820" y="122" type="line"/>
      <point x="796" y="0" type="line"/>
    </contour>
  </outline>
</glyph>
<glyph name="twosuperior" format="2">
  <advance width="371.0"/>
  <unicode hex="00B2"/>
  <outline>
    <contour>
      <point x="24" y="341" type="line"/>
      <point x="37" y="410" type="line"/>
      <point x="86" y="443" type="line" smooth="yes"/>
      <point x="99" y="452"/>
      <point x="148" y="483"/>
      <point x="206" y="523"/>
      <point x="258" y="569"/>
      <point x="291" y="615"/>
      <point x="291" y="636" type="qcurve" smooth="yes"/>
      <point x="291" y="652"/>
      <point x="271" y="674"/>
      <point x="251" y="674" type="qcurve" smooth="yes"/>
      <point x="229" y="674"/>
      <point x="195" y="645"/>
      <point x="190" y="619" type="qcurve"/>
      <point x="83" y="619" type="line"/>
      <point x="90" y="655"/>
      <point x="148" y="707"/>
      <point x="227" y="735"/>
      <point x="266" y="735" type="qcurve" smooth="yes"/>
      <point x="300" y="735"/>
      <point x="358" y="713"/>
      <point x="395" y="669"/>
      <point x="395" y="635" type="qcurve" smooth="yes"/>
      <point x="395" y="598"/>
      <point x="352" y="537"/>
      <point x="286" y="487"/>
      <point x="216" y="447"/>
      <point x="190" y="432" type="qcurve" smooth="yes"/>
      <point x="127" y="395" type="line"/>
      <point x="127" y="402" type="line"/>
      <point x="342" y="402" type="line"/>
      <point x="330" y="341" type="line"/>
    </contour>
  </outline>
</glyph>
<glyph name="threesuperior" format="2">
  <advance width="366.0"/>
  <unicode hex="00B3"/>
  <outline>
    <contour>
      <point x="44" y="421" type="qcurve" smooth="yes"/>
      <point x="44" y="433"/>
      <point x="46" y="447" type="qcurve"/>
      <point x="146" y="447" type="line"/>
      <point x="144" y="436"/>
      <point x="144" y="427" type="qcurve" smooth="yes"/>
      <point x="144" y="408"/>
      <point x="163" y="390"/>
      <point x="183" y="390" type="qcurve" smooth="yes"/>
      <point x="204" y="390"/>
      <point x="232" y="410"/>
      <point x="246" y="442"/>
      <point x="246" y="460" type="qcurve" smooth="yes"/>
      <point x="246" y="477"/>
      <point x="231" y="501"/>
      <point x="200" y="513"/>
      <point x="174" y="513" type="qcurve" smooth="yes"/>
      <point x="160" y="513" type="line"/>
      <point x="172" y="572" type="line"/>
      <point x="190" y="572" type="line" smooth="yes"/>
      <point x="214" y="572"/>
      <point x="251" y="586"/>
      <point x="272" y="616"/>
      <point x="272" y="638" type="qcurve" smooth="yes"/>
      <point x="272" y="676"/>
      <point x="236" y="676" type="qcurve" smooth="yes"/>
      <point x="214" y="676"/>
      <point x="186" y="650"/>
      <point x="181" y="625" type="qcurve"/>
      <point x="82" y="625" type="line"/>
      <point x="92" y="675"/>
      <point x="183" y="735"/>
      <point x="248" y="735" type="qcurve" smooth="yes"/>
      <point x="307" y="735"/>
      <point x="376" y="684"/>
      <point x="376" y="639" type="qcurve" smooth="yes"/>
      <point x="376" y="595"/>
      <point x="316" y="548"/>
      <point x="274" y="538" type="qcurve"/>
      <point x="275" y="542" type="line"/>
      <point x="350" y="530"/>
      <point x="350" y="464" type="qcurve" smooth="yes"/>
      <point x="350" y="431"/>
      <point x="316" y="381"/>
      <point x="260" y="348"/>
      <point x="193" y="331"/>
      <point x="161" y="331" type="qcurve" smooth="yes"/>
      <point x="106" y="331"/>
      <point x="44" y="378"/>
    </contour>
  </outline>
</glyph>
<glyph name="acute" format="2">
  <advance width="297.0"/>
  <unicode hex="00B4"/>
  <outline>
    <contour>
      <point x="21" y="580" type="line"/>
      <point x="147" y="760" type="line"/>
      <point x="277" y="760" type="line"/>
      <point x="91" y="580" type="line"/>
    </contour>
  </outline>
</glyph>
<glyph name="paragraph" format="2">
  <advance width="559.0"/>
  <unicode hex="00B6"/>
  <outline>
    <contour>
      <point x="133" y="-160" type="line"/>
      <point x="232" y="352" type="line"/>
      <point x="187" y="352"/>
      <point x="115" y="384"/>
      <point x="73" y="445"/>
      <point x="73" y="487" type="qcurve" smooth="yes"/>
      <point x="73" y="531"/>
      <point x="115" y="615"/>
      <point x="186" y="682"/>
      <point x="272" y="722"/>
      <point x="315" y="722" type="qcurve" smooth="yes"/>
      <point x="645" y="722" type="line"/>
      <point x="628" y="632" type="line"/>
      <point x="567" y="632" type="line"/>
      <point x="413" y="-160" type="line"/>
      <point x="303" y="-160" type="line"/>
      <point x="457" y="632" type="line"/>
      <point x="397" y="632" type="line"/>
      <point x="243" y="-160" type="line"/>
    </contour>
  </outline>
</glyph>
<glyph name="periodcentered" format="2">
  <advance width="232.0"/>
  <unicode hex="00B7"/>
  <outline>
    <contour>
      <point x="40" y="276" type="line"/>
      <point x="66" y="408" type="line"/>
      <point x="192" y="408" type="line"/>
      <point x="166" y="276" type="line"/>
    </contour>
  </outline>
</glyph>
<glyph name="cedilla" format="2">
  <advance width="255.0"/>
  <unicode hex="00B8"/>
  <outline>
    <contour>
      <point x="10" y="-231" type="qcurve"/>
      <point x="21" y="-176" type="line"/>
      <point x="54" y="-189"/>
      <point x="82" y="-189" type="qcurve" smooth="yes"/>
      <point x="107" y="-189"/>
      <point x="137" y="-162"/>
      <point x="137" y="-142" type="qcurve" smooth="yes"/>
      <point x="137" y="-123"/>
      <point x="112" y="-99"/>
      <point x="91" y="-99" type="qcurve" smooth="yes"/>
      <point x="85" y="-99"/>
      <point x="72" y="-101"/>
      <point x="62" y="-104" type="qcurve"/>
      <point x="44" y="-90" type="line"/>
      <point x="103" y="0" type="line"/>
      <point x="175" y="0" type="line"/>
      <point x="132" y="-63" type="line"/>
      <point x="123" y="-52" type="line"/>
      <point x="131" y="-50"/>
      <point x="146" y="-49"/>
      <point x="151" y="-49" type="qcurve" smooth="yes"/>
      <point x="184" y="-49"/>
      <point x="224" y="-92"/>
      <point x="224" y="-128" type="qcurve" smooth="yes"/>
      <point x="224" y="-163"/>
      <point x="188" y="-216"/>
      <point x="122" y="-245"/>
      <point x="79" y="-245" type="qcurve" smooth="yes"/>
      <point x="66" y="-245"/>
      <point x="30" y="-239"/>
    </contour>
  </outline>
</glyph>
<glyph name="onesuperior" format="2">
  <advance width="290.0"/>
  <unicode hex="00B9"/>
  <outline>
    <contour>
      <point x="129" y="336" type="line"/>
      <point x="189" y="646" type="line"/>
      <point x="164" y="630"/>
      <point x="115" y="606"/>
      <point x="87" y="596" type="qcurve"/>
      <point x="100" y="662" type="line"/>
      <point x="117" y="668"/>
      <point x="155" y="684"/>
      <point x="190" y="704"/>
      <point x="202" y="713" type="qcurve" smooth="yes"/>
      <point x="214" y="722" type="line"/>
      <point x="304" y="722" type="line"/>
      <point x="229" y="336" type="line"/>
    </contour>
  </outline>
</glyph>
<glyph name="ordmasculine" format="2">
  <advance width="411.0"/>
  <unicode hex="00BA"/>
  <outline>
    <contour>
      <point x="53" y="472" type="qcurve" smooth="yes"/>
      <point x="53" y="538"/>
      <point x="106" y="646"/>
      <point x="206" y="709"/>
      <point x="275" y="709" type="qcurve" smooth="yes"/>
      <point x="344" y="709"/>
      <point x="425" y="643"/>
      <point x="425" y="575" type="qcurve" smooth="yes"/>
      <point x="425" y="509"/>
      <point x="372" y="402"/>
      <point x="273" y="339"/>
      <point x="203" y="339" type="qcurve" smooth="yes"/>
      <point x="134" y="339"/>
      <point x="53" y="404"/>
    </contour>
    <contour>
      <point x="149" y="478" type="qcurve" smooth="yes"/>
      <point x="149" y="443"/>
      <point x="179" y="399"/>
      <point x="215" y="399" type="qcurve" smooth="yes"/>
      <point x="246" y="399"/>
      <point x="289" y="433"/>
      <point x="316" y="486"/>
      <point x="329" y="546"/>
      <point x="329" y="572" type="qcurve" smooth="yes"/>
      <point x="329" y="606"/>
      <point x="299" y="650"/>
      <point x="263" y="650" type="qcurve" smooth="yes"/>
      <point x="232" y="650"/>
      <point x="189" y="616"/>
      <point x="162" y="563"/>
      <point x="149" y="504"/>
    </contour>
    <contour>
      <point x="9" y="230" type="line"/>
      <point x="18" y="277" type="line"/>
      <point x="371" y="277" type="line"/>
      <point x="362" y="230" type="line"/>
    </contour>
  </outline>
</glyph>
<glyph name="guillemotright" format="2">
  <advance width="577.0"/>
  <unicode hex="00BB"/>
  <outline>
    <contour>
      <point x="41" y="57" type="line"/>
      <point x="176" y="263" type="line"/>
      <point x="171" y="241" type="line"/>
      <point x="116" y="447" type="line"/>
      <point x="246" y="447" type="line"/>
      <point x="319" y="252" type="line"/>
      <point x="171" y="57" type="line"/>
    </contour>
    <contour>
      <point x="259" y="57" type="line"/>
      <point x="394" y="263" type="line"/>
      <point x="389" y="241" type="line"/>
      <point x="334" y="447" type="line"/>
      <point x="464" y="447" type="line"/>
      <point x="537" y="252" type="line"/>
      <point x="389" y="57" type="line"/>
    </contour>
  </outline>
</glyph>
<glyph name="onequarter" format="2">
  <advance width="799.0"/>
  <unicode hex="00BC"/>
  <outline>
    <contour>
      <point x="51" y="-14" type="line"/>
      <point x="623" y="736" type="line"/>
      <point x="722" y="736" type="line"/>
      <point x="150" y="-14" type="line"/>
    </contour>
    <contour>
      <point x="389" y="85" type="line"/>
      <point x="402" y="154" type="line"/>
      <point x="606" y="386" type="line"/>
      <point x="721" y="386" type="line"/>
      <point x="646" y="0" type="line"/>
      <point x="550" y="0" type="line"/>
      <point x="610" y="307" type="line"/>
      <point x="616" y="305" type="line"/>
      <point x="478" y="136" type="line"/>
      <point x="474" y="146" type="line"/>
      <point x="719" y="146" type="line"/>
      <point x="707" y="85" type="line"/>
    </contour>
    <contour>
      <point x="129" y="336" type="line"/>
      <point x="189" y="646" type="line"/>
      <point x="164" y="630"/>
      <point x="115" y="606"/>
      <point x="87" y="596" type="qcurve"/>
      <point x="100" y="662" type="line"/>
      <point x="117" y="668"/>
      <point x="155" y="684"/>
      <point x="190" y="704"/>
      <point x="202" y="713" type="qcurve" smooth="yes"/>
      <point x="214" y="722" type="line"/>
      <point x="304" y="722" type="line"/>
      <point x="229" y="336" type="line"/>
    </contour>
  </outline>
</glyph>
<glyph name="onehalf" format="2">
  <advance width="799.0"/>
  <unicode hex="00BD"/>
  <outline>
    <contour>
      <point x="31" y="-14" type="line"/>
      <point x="603" y="736" type="line"/>
      <point x="702" y="736" type="line"/>
      <point x="130" y="-14" type="line"/>
    </contour>
    <contour>
      <point x="129" y="336" type="line"/>
      <point x="189" y="646" type="line"/>
      <point x="164" y="630"/>
      <point x="115" y="606"/>
      <point x="87" y="596" type="qcurve"/>
      <point x="100" y="662" type="line"/>
      <point x="117" y="668"/>
      <point x="155" y="684"/>
      <point x="190" y="704"/>
      <point x="202" y="713" type="qcurve" smooth="yes"/>
      <point x="214" y="722" type="line"/>
      <point x="304" y="722" type="line"/>
      <point x="229" y="336" type="line"/>
    </contour>
    <contour>
      <point x="376" y="0" type="line"/>
      <point x="389" y="69" type="line"/>
      <point x="437" y="102" type="line" smooth="yes"/>
      <point x="451" y="111"/>
      <point x="500" y="142"/>
      <point x="557" y="182"/>
      <point x="609" y="228"/>
      <point x="643" y="274"/>
      <point x="643" y="295" type="qcurve" smooth="yes"/>
      <point x="643" y="311"/>
      <point x="623" y="333"/>
      <point x="603" y="333" type="qcurve" smooth="yes"/>
      <point x="581" y="333"/>
      <point x="547" y="304"/>
      <point x="542" y="278" type="qcurve"/>
      <point x="435" y="278" type="line"/>
      <point x="442" y="314"/>
      <point x="499" y="366"/>
      <point x="579" y="394"/>
      <point x="618" y="394" type="qcurve" smooth="yes"/>
      <point x="651" y="394"/>
      <point x="710" y="372"/>
      <point x="746" y="328"/>
      <point x="746" y="294" type="qcurve" smooth="yes"/>
      <point x="746" y="257"/>
      <point x="703" y="196"/>
      <point x="638" y="146"/>
      <point x="568" y="106"/>
      <point x="541" y="91" type="qcurve" smooth="yes"/>
      <point x="479" y="54" type="line"/>
      <point x="478" y="61" type="line"/>
      <point x="693" y="61" type="line"/>
      <point x="682" y="0" type="line"/>
    </contour>
  </outline>
</glyph>
<glyph name="threequarters" format="2">
  <advance width="799.0"/>
  <unicode hex="00BE"/>
  <outline>
    <contour>
      <point x="44" y="421" type="qcurve" smooth="yes"/>
      <point x="44" y="433"/>
      <point x="46" y="447" type="qcurve"/>
      <point x="146" y="447" type="line"/>
      <point x="144" y="436"/>
      <point x="144" y="427" type="qcurve" smooth="yes"/>
      <point x="144" y="408"/>
      <point x="163" y="390"/>
      <point x="182" y="390" type="qcurve" smooth="yes"/>
      <point x="203" y="390"/>
      <point x="232" y="410"/>
      <point x="246" y="442"/>
      <point x="246" y="460" type="qcurve" smooth="yes"/>
      <point x="246" y="477"/>
      <point x="231" y="501"/>
      <point x="199" y="513"/>
      <point x="174" y="513" type="qcurve" smooth="yes"/>
      <point x="160" y="513" type="line"/>
      <point x="172" y="572" type="line"/>
      <point x="190" y="572" type="line" smooth="yes"/>
      <point x="214" y="572"/>
      <point x="251" y="586"/>
      <point x="272" y="615"/>
      <point x="272" y="637" type="qcurve" smooth="yes"/>
      <point x="272" y="674"/>
      <point x="236" y="674" type="qcurve" smooth="yes"/>
      <point x="214" y="674"/>
      <point x="186" y="649"/>
      <point x="181" y="625" type="qcurve"/>
      <point x="82" y="625" type="line"/>
      <point x="92" y="674"/>
      <point x="183" y="735"/>
      <point x="248" y="735" type="qcurve" smooth="yes"/>
      <point x="307" y="735"/>
      <point x="376" y="683"/>
      <point x="376" y="638" type="qcurve" smooth="yes"/>
      <point x="376" y="595"/>
      <point x="316" y="548"/>
      <point x="274" y="538" type="qcurve"/>
      <point x="275" y="542" type="line"/>
      <point x="350" y="530"/>
      <point x="350" y="464" type="qcurve" smooth="yes"/>
      <point x="350" y="431"/>
      <point x="316" y="380"/>
      <point x="260" y="346"/>
      <point x="193" y="329"/>
      <point x="161" y="329" type="qcurve" smooth="yes"/>
      <point x="106" y="329"/>
      <point x="44" y="378"/>
    </contour>
    <contour>
      <point x="92" y="-14" type="line"/>
      <point x="664" y="736" type="line"/>
      <point x="763" y="736" type="line"/>
      <point x="191" y="-14" type="line"/>
    </contour>
    <contour>
      <point x="389" y="85" type="line"/>
      <point x="402" y="154" type="line"/>
      <point x="606" y="386" type="line"/>
      <point x="721" y="386" type="line"/>
      <point x="646" y="0" type="line"/>
      <point x="550" y="0" type="line"/>
      <point x="610" y="304" type="line"/>
      <point x="616" y="303" type="line"/>
      <point x="478" y="136" type="line"/>
      <point x="474" y="146" type="line"/>
      <point x="719" y="146" type="line"/>
      <point x="707" y="85" type="line"/>
    </contour>
  </outline>
</glyph>
<glyph name="AE" format="2">
  <advance width="1097.0"/>
  <unicode hex="00C6"/>
  <outline>
    <contour>
      <point x="11" y="0" type="line"/>
      <point x="539" y="722" type="line"/>
      <point x="621" y="722" type="line"/>
      <point x="599" y="610" type="line"/>
      <point x="154" y="0" type="line"/>
    </contour>
    <contour>
      <point x="263" y="173" type="line"/>
      <point x="346" y="285" type="line"/>
      <point x="541" y="285" type="line"/>
      <point x="519" y="173" type="line"/>
    </contour>
    <contour>
      <point x="621" y="0" type="line"/>
      <point x="643" y="115" type="line"/>
      <point x="980" y="115" type="line"/>
      <point x="958" y="0" type="line"/>
    </contour>
    <contour>
      <point x="682" y="317" type="line"/>
      <point x="704" y="429" type="line"/>
      <point x="1011" y="429" type="line"/>
      <point x="989" y="317" type="line"/>
    </contour>
    <contour>
      <point x="739" y="607" type="line"/>
      <point x="761" y="722" type="line"/>
      <point x="1088" y="722" type="line"/>
      <point x="1066" y="607" type="line"/>
    </contour>
    <contour>
      <point x="481" y="0" type="line"/>
      <point x="621" y="722" type="line"/>
      <point x="771" y="722" type="line"/>
      <point x="631" y="0" type="line"/>
    </contour>
  </outline>
</glyph>
<glyph name="Eth" format="2">
  <advance width="728.0"/>
  <unicode hex="00D0"/>
  <outline>
    <contour>
      <point x="-9" y="315" type="line"/>
      <point x="9" y="405" type="line"/>
      <point x="369" y="405" type="line"/>
      <point x="351" y="315" type="line"/>
    </contour>
    <contour>
      <point x="70" y="0" type="line"/>
      <point x="210" y="722" type="line"/>
      <point x="360" y="722" type="line"/>
      <point x="220" y="0" type="line"/>
    </contour>
    <contour>
      <point x="180" y="0" type="line"/>
      <point x="180" y="114" type="line"/>
      <point x="311" y="114" type="line" smooth="yes"/>
      <point x="369" y="114"/>
      <point x="462" y="146"/>
      <point x="532" y="204"/>
      <point x="578" y="284"/>
      <point x="602" y="381"/>
      <point x="602" y="435" type="qcurve" smooth="yes"/>
      <point x="602" y="520"/>
      <point x="504" y="607"/>
      <point x="406" y="607" type="qcurve" smooth="yes"/>
      <point x="266" y="607" type="line"/>
      <point x="266" y="722" type="line"/>
      <point x="429" y="722" type="line" smooth="yes"/>
      <point x="525" y="722"/>
      <point x="671" y="660"/>
      <point x="753" y="537"/>
      <point x="753" y="446" type="qcurve" smooth="yes"/>
      <point x="753" y="366"/>
      <point x="707" y="228"/>
      <point x="624" y="119"/>
      <point x="509" y="41"/>
      <point x="369" y="0"/>
      <point x="289" y="0" type="qcurve" smooth="yes"/>
    </contour>
  </outline>
</glyph>
<glyph name="multiply" format="2">
  <advance width="691.0"/>
  <unicode hex="00D7"/>
  <outline>
    <contour>
      <point x="12" y="110" type="line"/>
      <point x="610" y="611" type="line"/>
      <point x="675" y="531" type="line"/>
      <point x="77" y="30" type="line"/>
    </contour>
    <contour>
      <point x="112" y="521" type="line"/>
      <point x="218" y="611" type="line"/>
      <point x="622" y="110" type="line"/>
      <point x="516" y="20" type="line"/>
    </contour>
  </outline>
</glyph>
<glyph name="Oslash" format="2">
  <advance width="807.0"/>
  <unicode hex="00D8"/>
  <outline>
    <contour>
      <point x="31" y="-14" type="line"/>
      <point x="684" y="736" type="line"/>
      <point x="777" y="736" type="line"/>
      <point x="129" y="-14" type="line"/>
    </contour>
    <contour>
      <point x="56" y="257" type="qcurve" smooth="yes"/>
      <point x="56" y="360.25307125307125"/>
      <point x="119.7816091954023" y="535.6830466830467"/>
      <point x="235" y="665"/>
      <point x="392.2916666666667" y="736"/>
      <point x="485" y="736" type="qcurve" smooth="yes"/>
      <point x="618" y="736"/>
      <point x="761" y="595.1216216216217"/>
      <point x="761" y="465.3918918918919" type="qcurve" smooth="yes"/>
      <point x="761" y="361"/>
      <point x="698" y="186"/>
      <point x="582" y="57"/>
      <point x="424.96" y="-14"/>
      <point x="332.4" y="-14" type="qcurve" smooth="yes"/>
      <point x="244" y="-14"/>
      <point x="120" y="49"/>
      <point x="56" y="170.33333333333334"/>
    </contour>
    <contour>
      <point x="206" y="257" type="qcurve" smooth="yes"/>
      <point x="206" y="204.65248226950354"/>
      <point x="238" y="136"/>
      <point x="302" y="102"/>
      <point x="351" y="102" type="qcurve" smooth="yes"/>
      <point x="409.625" y="102"/>
      <point x="505" y="154"/>
      <point x="574" y="251"/>
      <point x="611" y="384.93886462882097"/>
      <point x="611" y="467" type="qcurve" smooth="yes"/>
      <point x="611" y="546"/>
      <point x="538.5" y="622"/>
      <point x="466" y="622" type="qcurve" smooth="yes"/>
      <point x="407" y="622"/>
      <point x="311.9148936170213" y="569.5220125786163"/>
      <point x="243" y="473"/>
      <point x="206" y="339.06113537117903"/>
    </contour>
  </outline>
</glyph>
<glyph name="Thorn" format="2">
  <advance width="662.0"/>
  <unicode hex="00DE"/>
  <outline>
    <contour>
      <point x="188" y="163" type="line"/>
      <point x="210" y="278" type="line"/>
      <point x="325" y="278" type="line" smooth="yes"/>
      <point x="370" y="278"/>
      <point x="439" y="304"/>
      <point x="479" y="362"/>
      <point x="479" y="410" type="qcurve" smooth="yes"/>
      <point x="479" y="452"/>
      <point x="420" y="486"/>
      <point x="365" y="486" type="qcurve" smooth="yes"/>
      <point x="250" y="486" type="line"/>
      <point x="273" y="601" type="line"/>
      <point x="388" y="601" type="line" smooth="yes"/>
      <point x="460" y="601"/>
      <point x="569" y="566"/>
      <point x="631" y="492"/>
      <point x="631" y="432" type="qcurve" smooth="yes"/>
      <point x="631" y="360"/>
      <point x="578" y="258"/>
      <point x="485" y="193"/>
      <point x="367" y="163"/>
      <point x="303" y="163" type="qcurve" smooth="yes"/>
    </contour>
    <contour>
      <point x="21" y="0" type="line"/>
      <point x="161" y="722" type="line"/>
      <point x="311" y="722" type="line"/>
      <point x="171" y="0" type="line"/>
    </contour>
  </outline>
</glyph>
<glyph name="germandbls" format="2">
  <advance width="628.0"/>
  <unicode hex="00DF"/>
  <outline>
    <contour>
      <point x="20" y="0" type="line"/>
      <point x="127" y="546" type="line" smooth="yes"/>
      <point x="139" y="610"/>
      <point x="207" y="694"/>
      <point x="320" y="737"/>
      <point x="399" y="737" type="qcurve" smooth="yes"/>
      <point x="442" y="737"/>
      <point x="530" y="714"/>
      <point x="588" y="661"/>
      <point x="588" y="616" type="qcurve" smooth="yes"/>
      <point x="588" y="604"/>
      <point x="585" y="590" type="qcurve" smooth="yes"/>
      <point x="578" y="554"/>
      <point x="543" y="501"/>
      <point x="498" y="460"/>
      <point x="456" y="429"/>
      <point x="425" y="400"/>
      <point x="422" y="384" type="qcurve" smooth="yes"/>
      <point x="418" y="364"/>
      <point x="446" y="334"/>
      <point x="493" y="305"/>
      <point x="540" y="270"/>
      <point x="573" y="219"/>
      <point x="573" y="183" type="qcurve" smooth="yes"/>
      <point x="573" y="120"/>
      <point x="504" y="33"/>
      <point x="397" y="-13"/>
      <point x="340" y="-13" type="qcurve" smooth="yes"/>
      <point x="279" y="-13"/>
      <point x="211" y="36"/>
      <point x="211" y="93" type="qcurve" smooth="yes"/>
      <point x="211" y="114"/>
      <point x="215" y="139" type="qcurve"/>
      <point x="329" y="139" type="line"/>
      <point x="327" y="125"/>
      <point x="327" y="114" type="qcurve" smooth="yes"/>
      <point x="327" y="71"/>
      <point x="369" y="71" type="qcurve" smooth="yes"/>
      <point x="391" y="71"/>
      <point x="420" y="97"/>
      <point x="434" y="135"/>
      <point x="434" y="155" type="qcurve" smooth="yes"/>
      <point x="434" y="181"/>
      <point x="402" y="216"/>
      <point x="355" y="244"/>
      <point x="308" y="275"/>
      <point x="276" y="316"/>
      <point x="276" y="347" type="qcurve" smooth="yes"/>
      <point x="276" y="350"/>
      <point x="276" y="354"/>
      <point x="277" y="358"/>
      <point x="277" y="363"/>
      <point x="278" y="368"/>
      <point x="278" y="370" type="qcurve"/>
      <point x="283" y="394"/>
      <point x="317" y="433"/>
      <point x="362" y="469"/>
      <point x="408" y="508"/>
      <point x="443" y="554"/>
      <point x="449" y="583" type="qcurve" smooth="yes"/>
      <point x="455" y="615"/>
      <point x="420" y="651"/>
      <point x="377" y="651" type="qcurve" smooth="yes"/>
      <point x="327" y="651"/>
      <point x="272" y="599"/>
      <point x="262" y="546" type="qcurve" smooth="yes"/>
      <point x="155" y="0" type="line"/>
    </contour>
  </outline>
</glyph>
<glyph name="ae" format="2">
  <advance width="890.0"/>
  <unicode hex="00E6"/>
  <outline>
    <contour>
      <point x="20" y="134" type="qcurve" smooth="yes"/>
      <point x="20" y="176"/>
      <point x="53" y="243"/>
      <point x="115" y="292"/>
      <point x="200" y="318"/>
      <point x="252" y="318" type="qcurve" smooth="yes"/>
      <point x="283" y="318"/>
      <point x="361" y="316"/>
      <point x="383" y="314" type="qcurve"/>
      <point x="386" y="328"/>
      <point x="389" y="354"/>
      <point x="389" y="365" type="qcurve" smooth="yes"/>
      <point x="389" y="397"/>
      <point x="340" y="434"/>
      <point x="302" y="434" type="qcurve" smooth="yes"/>
      <point x="283" y="434"/>
      <point x="249" y="418"/>
      <point x="224" y="386"/>
      <point x="219" y="362" type="qcurve"/>
      <point x="83" y="362" type="line"/>
      <point x="98" y="438"/>
      <point x="211" y="515"/>
      <point x="296" y="515" type="qcurve" smooth="yes"/>
      <point x="369" y="515"/>
      <point x="465" y="473"/>
      <point x="487" y="431" type="qcurve"/>
      <point x="511" y="460"/>
      <point x="564" y="497"/>
      <point x="627" y="514"/>
      <point x="667" y="514" type="qcurve" smooth="yes"/>
      <point x="757" y="514"/>
      <point x="853" y="427"/>
      <point x="853" y="340" type="qcurve" smooth="yes"/>
      <point x="853" y="305"/>
      <point x="845" y="263" type="qcurve" smooth="yes"/>
      <point x="840" y="240" type="line"/>
      <point x="509" y="240" type="line"/>
      <point x="506" y="228"/>
      <point x="503" y="200"/>
      <point x="503" y="185" type="qcurve" smooth="yes"/>
      <point x="503" y="158"/>
      <point x="516" y="105"/>
      <point x="548" y="71"/>
      <point x="577" y="71" type="qcurve" smooth="yes"/>
      <point x="615" y="71"/>
      <point x="668" y="118"/>
      <point x="680" y="155" type="qcurve"/>
      <point x="816" y="155" type="line"/>
      <point x="791" y="70"/>
      <point x="670" y="-14"/>
      <point x="589" y="-14" type="qcurve" smooth="yes"/>
      <point x="512" y="-14"/>
      <point x="424" y="49"/>
      <point x="412" y="97" type="qcurve"/>
      <point x="392" y="69"/>
      <point x="348" y="28"/>
      <point x="297" y="1"/>
      <point x="234" y="-13"/>
      <point x="195" y="-13" type="qcurve" smooth="yes"/>
      <point x="149" y="-13"/>
      <point x="69" y="24"/>
      <point x="20" y="90"/>
    </contour>
    <contour>
      <point x="160" y="150" type="qcurve" smooth="yes"/>
      <point x="160" y="115"/>
      <point x="202" y="77"/>
      <point x="230" y="77" type="qcurve" smooth="yes"/>
      <point x="264" y="77"/>
      <point x="311" y="104"/>
      <point x="342" y="149"/>
      <point x="360" y="204"/>
      <point x="365" y="233" type="qcurve" smooth="yes"/>
      <point x="367" y="242" type="line"/>
      <point x="349" y="244"/>
      <point x="310" y="246"/>
      <point x="278" y="246"/>
      <point x="270" y="246" type="qcurve" smooth="yes"/>
      <point x="245" y="246"/>
      <point x="205" y="232"/>
      <point x="176" y="207"/>
      <point x="160" y="171"/>
    </contour>
    <contour>
      <point x="523" y="315" type="qcurve"/>
      <point x="715" y="315" type="line"/>
      <point x="719" y="333"/>
      <point x="719" y="349" type="qcurve" smooth="yes"/>
      <point x="719" y="385"/>
      <point x="682" y="429"/>
      <point x="641" y="429" type="qcurve" smooth="yes"/>
      <point x="608" y="429"/>
      <point x="560" y="400"/>
      <point x="530" y="348"/>
    </contour>
  </outline>
</glyph>
<glyph name="eth" format="2">
  <advance width="604.0"/>
  <unicode hex="00F0"/>
  <outline>
    <contour>
      <point x="12" y="180" type="qcurve" smooth="yes"/>
      <point x="12" y="247"/>
      <point x="56" y="367"/>
      <point x="138" y="459"/>
      <point x="252" y="512"/>
      <point x="323" y="512" type="qcurve" smooth="yes"/>
      <point x="339" y="512"/>
      <point x="365" y="509"/>
      <point x="388" y="504"/>
      <point x="399" y="501" type="qcurve"/>
      <point x="392" y="495" type="line"/>
      <point x="383" y="523"/>
      <point x="345" y="578"/>
      <point x="293" y="631"/>
      <point x="232" y="674"/>
      <point x="202" y="689" type="qcurve"/>
      <point x="276" y="736" type="line"/>
      <point x="368" y="692"/>
      <point x="488" y="591"/>
      <point x="547" y="463"/>
      <point x="547" y="378" type="qcurve" smooth="yes"/>
      <point x="547" y="303"/>
      <point x="514" y="162"/>
      <point x="440" y="49"/>
      <point x="319" y="-17"/>
      <point x="233" y="-17" type="qcurve" smooth="yes"/>
      <point x="126" y="-17"/>
      <point x="12" y="87"/>
    </contour>
    <contour>
      <point x="143" y="188" type="qcurve" smooth="yes"/>
      <point x="143" y="134"/>
      <point x="188" y="68"/>
      <point x="240" y="68" type="qcurve" smooth="yes"/>
      <point x="286" y="68"/>
      <point x="350" y="117"/>
      <point x="388" y="192"/>
      <point x="406" y="276"/>
      <point x="406" y="310" type="qcurve" smooth="yes"/>
      <point x="406" y="370"/>
      <point x="359" y="426"/>
      <point x="313" y="426" type="qcurve" smooth="yes"/>
      <point x="268" y="426"/>
      <point x="204" y="380"/>
      <point x="163" y="307"/>
      <point x="143" y="225"/>
    </contour>
    <contour>
      <point x="157" y="513" type="line"/>
      <point x="142" y="566" type="line"/>
      <point x="579" y="751" type="line"/>
      <point x="593" y="696" type="line"/>
    </contour>
  </outline>
</glyph>
<glyph name="divide" format="2">
  <advance width="1000.0"/>
  <unicode hex="00F7"/>
  <outline>
    <contour>
      <point x="194" y="250" type="line"/>
      <point x="213" y="350" type="line"/>
      <point x="813" y="350" type="line"/>
      <point x="794" y="250" type="line"/>
    </contour>
    <contour>
      <point x="385" y="39" type="line"/>
      <point x="412" y="181" type="line"/>
      <point x="548" y="181" type="line"/>
      <point x="521" y="39" type="line"/>
    </contour>
    <contour>
      <point x="459" y="421" type="line"/>
      <point x="487" y="563" type="line"/>
      <point x="623" y="563" type="line"/>
      <point x="595" y="421" type="line"/>
    </contour>
  </outline>
</glyph>
<glyph name="thorn" format="2">
  <advance width="663.0"/>
  <unicode hex="00FE"/>
  <outline>
    <contour>
      <point x="21" y="-200" type="line"/>
      <point x="200" y="722" type="line"/>
      <point x="335" y="722" type="line"/>
      <point x="156" y="-200" type="line"/>
    </contour>
    <contour>
      <point x="188" y="75" type="qcurve"/>
      <point x="257" y="430" type="line"/>
      <point x="293" y="461"/>
      <point x="351" y="498"/>
      <point x="408" y="514"/>
      <point x="440" y="514" type="qcurve" smooth="yes"/>
      <point x="529" y="514"/>
      <point x="624" y="412"/>
      <point x="624" y="319" type="qcurve" smooth="yes"/>
      <point x="624" y="260"/>
      <point x="586" y="142"/>
      <point x="513" y="45"/>
      <point x="408" y="-14"/>
      <point x="341" y="-14" type="qcurve" smooth="yes"/>
      <point x="287" y="-14"/>
      <point x="213" y="30"/>
    </contour>
    <contour>
      <point x="238" y="196" type="qcurve" smooth="yes"/>
      <point x="238" y="142"/>
      <point x="291" y="72"/>
      <point x="336" y="72" type="qcurve" smooth="yes"/>
      <point x="374" y="72"/>
      <point x="430" y="117"/>
      <point x="467" y="188"/>
      <point x="485" y="267"/>
      <point x="485" y="301" type="qcurve" smooth="yes"/>
      <point x="485" y="358"/>
      <point x="435" y="429"/>
      <point x="391" y="429" type="qcurve" smooth="yes"/>
      <point x="354" y="429"/>
      <point x="297" y="382"/>
      <point x="258" y="309"/>
      <point x="238" y="229"/>
    </contour>
  </outline>
</glyph>
<glyph name="dcroat" format="2">
  <advance width="561.0"/>
  <unicode hex="0111"/>
  <outline>
    <contour>
      <point x="337" y="563" type="line"/>
      <point x="354" y="648" type="line"/>
      <point x="656" y="648" type="line"/>
      <point x="639" y="563" type="line"/>
    </contour>
    <contour>
      <point x="42" y="185" type="qcurve" smooth="yes"/>
      <point x="42" y="243"/>
      <point x="80" y="360"/>
      <point x="152" y="456"/>
      <point x="259" y="514"/>
      <point x="327" y="514" type="qcurve" smooth="yes"/>
      <point x="364" y="514"/>
      <point x="419" y="496"/>
      <point x="456" y="461"/>
      <point x="464" y="434" type="qcurve"/>
      <point x="397" y="84" type="line"/>
      <point x="378" y="57"/>
      <point x="321" y="12"/>
      <point x="258" y="-14"/>
      <point x="230" y="-14" type="qcurve" smooth="yes"/>
      <point x="132" y="-14"/>
      <point x="42" y="96"/>
    </contour>
    <contour>
      <point x="178" y="188" type="qcurve" smooth="yes"/>
      <point x="178" y="144"/>
      <point x="216" y="76"/>
      <point x="265" y="76" type="qcurve" smooth="yes"/>
      <point x="305" y="76"/>
      <point x="365" y="123"/>
      <point x="405" y="197"/>
      <point x="424" y="280"/>
      <point x="424" y="315" type="qcurve" smooth="yes"/>
      <point x="424" y="343"/>
      <point x="410" y="394"/>
      <point x="373" y="428"/>
      <point x="339" y="428" type="qcurve" smooth="yes"/>
      <point x="299" y="428"/>
      <point x="239" y="380"/>
      <point x="198" y="305"/>
      <point x="178" y="223"/>
    </contour>
    <contour>
      <point x="368" y="0" type="line"/>
      <point x="508" y="722" type="line"/>
      <point x="643" y="722" type="line"/>
      <point x="503" y="0" type="line"/>
    </contour>
  </outline>
</glyph>
<glyph name="Hbar" format="2">
  <advance width="790.0"/>
  <unicode hex="0126"/>
  <outline>
    <contour>
      <point x="65" y="506" type="line"/>
      <point x="85" y="606" type="line"/>
      <point x="770" y="606" type="line"/>
      <point x="750" y="506" type="line"/>
    </contour>
    <contour>
      <point x="202" y="320" type="line"/>
      <point x="225" y="436" type="line"/>
      <point x="570" y="436" type="line"/>
      <point x="547" y="320" type="line"/>
    </contour>
    <contour>
      <point x="21" y="0" type="line"/>
      <point x="161" y="722" type="line"/>
      <point x="311" y="722" type="line"/>
      <point x="171" y="0" type="line"/>
    </contour>
    <contour>
      <point x="456" y="0" type="line"/>
      <point x="596" y="722" type="line"/>
      <point x="746" y="722" type="line"/>
      <point x="606" y="0" type="line"/>
    </contour>
  </outline>
</glyph>
<glyph name="hbar" format="2">
  <advance width="583.0"/>
  <unicode hex="0127"/>
  <outline>
    <contour>
      <point x="115" y="545" type="line"/>
      <point x="131" y="630" type="line"/>
      <point x="496" y="630" type="line"/>
      <point x="480" y="545" type="line"/>
    </contour>
    <contour>
      <point x="217" y="279" type="line"/>
      <point x="242" y="405" type="line"/>
      <point x="267" y="433" type="line" smooth="yes"/>
      <point x="292" y="460"/>
      <point x="347" y="496"/>
      <point x="408" y="514"/>
      <point x="443" y="514" type="qcurve" smooth="yes"/>
      <point x="512" y="514"/>
      <point x="585" y="449"/>
      <point x="585" y="387" type="qcurve" smooth="yes"/>
      <point x="585" y="365"/>
      <point x="580" y="339" type="qcurve" smooth="yes"/>
      <point x="514" y="0" type="line"/>
      <point x="378" y="0" type="line"/>
      <point x="436" y="299" type="line" smooth="yes"/>
      <point x="442" y="329"/>
      <point x="442" y="353" type="qcurve" smooth="yes"/>
      <point x="442" y="393"/>
      <point x="408" y="432"/>
      <point x="373" y="432" type="qcurve" smooth="yes"/>
      <point x="339" y="432"/>
      <point x="284" y="396"/>
      <point x="246" y="328"/>
      <point x="237" y="279" type="qcurve"/>
    </contour>
    <contour>
      <point x="47" y="0" type="line"/>
      <point x="187" y="722" type="line"/>
      <point x="323" y="722" type="line"/>
      <point x="183" y="0" type="line"/>
    </contour>
  </outline>
</glyph>
<glyph name="dotlessi" format="2">
  <advance width="294.0"/>
  <unicode hex="0131"/>
  <outline>
    <contour>
      <point x="30" y="0" type="line"/>
      <point x="128" y="500" type="line"/>
      <point x="264" y="500" type="line"/>
      <point x="166" y="0" type="line"/>
    </contour>
  </outline>
</glyph>
<glyph name="kgreenlandic" format="2">
  <advance width="551.0"/>
  <unicode hex="0138"/>
  <outline>
    <contour>
      <point x="20" y="0" type="line"/>
      <point x="109" y="454" type="line"/>
      <point x="253" y="500" type="line"/>
      <point x="155" y="0" type="line"/>
    </contour>
    <contour>
      <point x="215" y="283" type="line"/>
      <point x="429" y="500" type="line"/>
      <point x="591" y="500" type="line"/>
      <point x="359" y="275" type="line"/>
      <point x="364" y="294" type="line"/>
      <point x="509" y="0" type="line"/>
      <point x="345" y="0" type="line"/>
    </contour>
  </outline>
</glyph>
<glyph name="Lslash" format="2">
  <advance width="568.0"/>
  <unicode hex="0141"/>
  <outline>
    <contour>
      <point x="265" y="338" type="line"/>
      <point x="288" y="460" type="line"/>
      <point x="446" y="590" type="line"/>
      <point x="422" y="468" type="line"/>
    </contour>
    <contour>
      <point x="-5" y="113" type="line"/>
      <point x="19" y="235" type="line"/>
      <point x="159" y="352" type="line"/>
      <point x="135" y="230" type="line"/>
    </contour>
    <contour>
      <point x="149" y="0" type="line"/>
      <point x="171" y="115" type="line"/>
      <point x="508" y="115" type="line"/>
      <point x="486" y="0" type="line"/>
    </contour>
    <contour>
      <point x="69" y="0" type="line"/>
      <point x="209" y="722" type="line"/>
      <point x="359" y="722" type="line"/>
      <point x="219" y="0" type="line"/>
    </contour>
  </outline>
</glyph>
<glyph name="lslash" format="2">
  <advance width="396.0"/>
  <unicode hex="0142"/>
  <outline>
    <contour>
      <point x="20" y="193" type="line"/>
      <point x="43" y="312" type="line"/>
      <point x="416" y="587" type="line"/>
      <point x="392" y="465" type="line"/>
    </contour>
    <contour>
      <point x="63" y="0" type="line"/>
      <point x="203" y="722" type="line"/>
      <point x="353" y="722" type="line"/>
      <point x="213" y="0" type="line"/>
    </contour>
  </outline>
</glyph>
<glyph name="Eng" format="2">
  <advance width="810.0"/>
  <unicode hex="014A"/>
  <outline>
    <contour>
      <point x="231" y="722" type="line"/>
      <point x="371" y="722" type="line"/>
      <point x="579" y="0" type="line"/>
      <point x="439" y="0" type="line"/>
    </contour>
    <contour>
      <point x="21" y="0" type="line"/>
      <point x="161" y="722" type="line"/>
      <point x="301" y="722" type="line"/>
      <point x="161" y="0" type="line"/>
    </contour>
    <contour>
      <point x="509" y="0" type="line"/>
      <point x="649" y="722" type="line"/>
      <point x="789" y="722" type="line"/>
      <point x="649" y="0" type="line"/>
    </contour>
    <contour>
      <point x="309" y="-143" type="qcurve"/>
      <point x="394" y="-64" type="line"/>
      <point x="402" y="-76"/>
      <point x="428" y="-90"/>
      <point x="447" y="-90" type="qcurve" smooth="yes"/>
      <point x="472" y="-90"/>
      <point x="508" y="-66"/>
      <point x="510" y="-52" type="qcurve"/>
      <point x="524" y="20" type="line"/>
      <point x="653" y="20" type="line"/>
      <point x="635" y="-72" type="line" smooth="yes"/>
      <point x="628" y="-110"/>
      <point x="575" y="-168"/>
      <point x="497" y="-200"/>
      <point x="452" y="-200" type="qcurve" smooth="yes"/>
      <point x="412" y="-200"/>
      <point x="329" y="-171"/>
    </contour>
  </outline>
</glyph>
<glyph name="eng" format="2">
  <advance width="588.0"/>
  <unicode hex="014B"/>
  <outline>
    <contour>
      <point x="20" y="0" type="line"/>
      <point x="118" y="500" type="line"/>
      <point x="254" y="500" type="line"/>
      <point x="156" y="0" type="line"/>
    </contour>
    <contour>
      <point x="190" y="279" type="line"/>
      <point x="215" y="405" type="line"/>
      <point x="240" y="433" type="line" smooth="yes"/>
      <point x="265" y="460"/>
      <point x="320" y="496"/>
      <point x="381" y="514"/>
      <point x="416" y="514" type="qcurve" smooth="yes"/>
      <point x="485" y="514"/>
      <point x="558" y="449"/>
      <point x="558" y="387" type="qcurve" smooth="yes"/>
      <point x="558" y="365"/>
      <point x="553" y="339" type="qcurve" smooth="yes"/>
      <point x="487" y="0" type="line"/>
      <point x="351" y="0" type="line"/>
      <point x="409" y="299" type="line" smooth="yes"/>
      <point x="415" y="329"/>
      <point x="415" y="353" type="qcurve" smooth="yes"/>
      <point x="415" y="393"/>
      <point x="381" y="432"/>
      <point x="346" y="432" type="qcurve" smooth="yes"/>
      <point x="312" y="432"/>
      <point x="258" y="396"/>
      <point x="220" y="328"/>
      <point x="210" y="279" type="qcurve"/>
    </contour>
    <contour>
      <point x="131" y="-143" type="qcurve"/>
      <point x="226" y="-60" type="line"/>
      <point x="233" y="-70"/>
      <point x="258" y="-80"/>
      <point x="271" y="-80" type="qcurve" smooth="yes"/>
      <point x="302" y="-80"/>
      <point x="343" y="-41"/>
      <point x="349" y="-12" type="qcurve" smooth="yes"/>
      <point x="361" y="50" type="line"/>
      <point x="497" y="50" type="line"/>
      <point x="475" y="-62" type="line" smooth="yes"/>
      <point x="467" y="-104"/>
      <point x="410" y="-166"/>
      <point x="329" y="-200"/>
      <point x="284" y="-200" type="qcurve" smooth="yes"/>
      <point x="258" y="-200"/>
      <point x="197" y="-187"/>
      <point x="145" y="-162"/>
    </contour>
  </outline>
</glyph>
<glyph name="OE" format="2">
  <advance width="944.0"/>
  <unicode hex="0152"/>
  <outline>
    <contour>
      <point x="30" y="257" type="qcurve" smooth="yes"/>
      <point x="30" y="332"/>
      <point x="67" y="473"/>
      <point x="138" y="594"/>
      <point x="242" y="685"/>
      <point x="375" y="736"/>
      <point x="456" y="736" type="qcurve"/>
      <point x="433" y="622" type="line"/>
      <point x="375" y="622"/>
      <point x="290" y="577"/>
      <point x="231" y="501"/>
      <point x="196" y="405"/>
      <point x="180" y="303"/>
      <point x="180" y="255" type="qcurve" smooth="yes"/>
      <point x="180" y="204"/>
      <point x="211" y="135"/>
      <point x="279" y="100"/>
      <point x="332" y="100" type="qcurve"/>
      <point x="310" y="-14" type="line"/>
      <point x="215" y="-14"/>
      <point x="90" y="54"/>
      <point x="30" y="176"/>
    </contour>
    <contour>
      <point x="433" y="622" type="qcurve"/>
      <point x="456" y="736" type="line"/>
      <point x="478" y="736"/>
      <point x="519" y="732"/>
      <point x="556" y="724"/>
      <point x="573" y="718" type="qcurve"/>
      <point x="526" y="595" type="line"/>
      <point x="504" y="611"/>
      <point x="461" y="622"/>
    </contour>
    <contour>
      <point x="310" y="-14" type="qcurve"/>
      <point x="332" y="100" type="line"/>
      <point x="359" y="100"/>
      <point x="411" y="114"/>
      <point x="436" y="128" type="qcurve"/>
      <point x="437" y="4" type="line"/>
      <point x="416" y="-2"/>
      <point x="374" y="-10"/>
      <point x="331" y="-14"/>
    </contour>
    <contour>
      <point x="468" y="0" type="line"/>
      <point x="491" y="115" type="line"/>
      <point x="828" y="115" type="line"/>
      <point x="805" y="0" type="line"/>
    </contour>
    <contour>
      <point x="388" y="0" type="line"/>
      <point x="528" y="722" type="line"/>
      <point x="678" y="722" type="line"/>
      <point x="538" y="0" type="line"/>
    </contour>
    <contour>
      <point x="530" y="317" type="line"/>
      <point x="552" y="429" type="line"/>
      <point x="859" y="429" type="line"/>
      <point x="837" y="317" type="line"/>
    </contour>
    <contour>
      <point x="586" y="607" type="line"/>
      <point x="609" y="722" type="line"/>
      <point x="936" y="722" type="line"/>
      <point x="913" y="607" type="line"/>
    </contour>
  </outline>
</glyph>
<glyph name="oe" format="2">
  <advance width="934.0"/>
  <unicode hex="0153"/>
  <outline>
    <contour>
      <point x="37" y="190" type="qcurve" smooth="yes"/>
      <point x="37" y="255"/>
      <point x="85" y="372"/>
      <point x="171" y="462"/>
      <point x="286" y="514"/>
      <point x="353" y="514" type="qcurve" smooth="yes"/>
      <point x="452" y="514"/>
      <point x="565" y="403"/>
      <point x="565" y="311" type="qcurve" smooth="yes"/>
      <point x="565" y="246"/>
      <point x="517" y="129"/>
      <point x="432" y="38"/>
      <point x="318" y="-14"/>
      <point x="250" y="-14" type="qcurve" smooth="yes"/>
      <point x="151" y="-14"/>
      <point x="37" y="97"/>
    </contour>
    <contour>
      <point x="171" y="185" type="qcurve" smooth="yes"/>
      <point x="171" y="130"/>
      <point x="219" y="72"/>
      <point x="266" y="72" type="qcurve" smooth="yes"/>
      <point x="310" y="72"/>
      <point x="373" y="119"/>
      <point x="412" y="194"/>
      <point x="431" y="278"/>
      <point x="431" y="315" type="qcurve" smooth="yes"/>
      <point x="431" y="370"/>
      <point x="382" y="428"/>
      <point x="335" y="428" type="qcurve" smooth="yes"/>
      <point x="291" y="428"/>
      <point x="229" y="381"/>
      <point x="189" y="306"/>
      <point x="171" y="222"/>
    </contour>
    <contour>
      <point x="413" y="165" type="qcurve" smooth="yes"/>
      <point x="413" y="230"/>
      <point x="452" y="355"/>
      <point x="528" y="455"/>
      <point x="639" y="514"/>
      <point x="711" y="514" type="qcurve" smooth="yes"/>
      <point x="809" y="514"/>
      <point x="894" y="412"/>
      <point x="894" y="334" type="qcurve" smooth="yes"/>
      <point x="894" y="300"/>
      <point x="887" y="261" type="qcurve" smooth="yes"/>
      <point x="879" y="223" type="line"/>
      <point x="557" y="223" type="line"/>
      <point x="554" y="205"/>
      <point x="549" y="168"/>
      <point x="549" y="152" type="qcurve" smooth="yes"/>
      <point x="549" y="118"/>
      <point x="578" y="72"/>
      <point x="619" y="72" type="qcurve" smooth="yes"/>
      <point x="661" y="72"/>
      <point x="712" y="120"/>
      <point x="723" y="156" type="qcurve"/>
      <point x="859" y="156" type="line"/>
      <point x="835" y="71"/>
      <point x="708" y="-14"/>
      <point x="612" y="-14" type="qcurve" smooth="yes"/>
      <point x="507" y="-14"/>
      <point x="413" y="83"/>
    </contour>
    <contour>
      <point x="574" y="308" type="qcurve"/>
      <point x="756" y="308" type="line"/>
      <point x="760" y="331"/>
      <point x="760" y="350" type="qcurve" smooth="yes"/>
      <point x="760" y="373"/>
      <point x="746" y="409"/>
      <point x="715" y="429"/>
      <point x="688" y="429" type="qcurve" smooth="yes"/>
      <point x="655" y="429"/>
      <point x="609" y="396"/>
      <point x="580" y="342"/>
    </contour>
  </outline>
</glyph>
<glyph name="Tbar" format="2">
  <advance width="622.0"/>
  <unicode hex="0166"/>
  <outline>
    <contour>
      <point x="56" y="306" type="line"/>
      <point x="76" y="406" type="line"/>
      <point x="498" y="406" type="line"/>
      <point x="478" y="306" type="line"/>
    </contour>
    <contour>
      <point x="130" y="0" type="line"/>
      <point x="248" y="607" type="line"/>
      <point x="35" y="607" type="line"/>
      <point x="57" y="722" type="line"/>
      <point x="633" y="722" type="line"/>
      <point x="611" y="607" type="line"/>
      <point x="398" y="607" type="line"/>
      <point x="280" y="0" type="line"/>
    </contour>
  </outline>
</glyph>
<glyph name="florin" format="2">
  <advance width="527.0"/>
  <unicode hex="0192"/>
  <outline>
    <contour>
      <point x="-181" y="-189" type="qcurve"/>
      <point x="-139" y="-96" type="line"/>
      <point x="-129" y="-110"/>
      <point x="-106" y="-125"/>
      <point x="-89" y="-125" type="qcurve" smooth="yes"/>
      <point x="-59" y="-125"/>
      <point x="-12" y="-81"/>
      <point x="23" y="-19"/>
      <point x="36" y="8" type="qcurve" smooth="yes"/>
      <point x="287" y="537" type="line" smooth="yes"/>
      <point x="315" y="596"/>
      <point x="364" y="673"/>
      <point x="418" y="715"/>
      <point x="486" y="732"/>
      <point x="532" y="732" type="qcurve" smooth="yes"/>
      <point x="555" y="732"/>
      <point x="599" y="725"/>
      <point x="620" y="717" type="qcurve"/>
      <point x="580" y="630" type="line"/>
      <point x="566" y="640"/>
      <point x="537" y="648"/>
      <point x="524" y="648" type="qcurve" smooth="yes"/>
      <point x="505" y="648"/>
      <point x="475" y="637"/>
      <point x="447" y="608"/>
      <point x="416" y="555"/>
      <point x="397" y="514" type="qcurve" smooth="yes"/>
      <point x="153" y="-1" type="line" smooth="yes"/>
      <point x="122" y="-66"/>
      <point x="70" y="-148"/>
      <point x="15" y="-193"/>
      <point x="-53" y="-211"/>
      <point x="-99" y="-211" type="qcurve" smooth="yes"/>
      <point x="-116" y="-211"/>
      <point x="-160" y="-201"/>
    </contour>
    <contour>
      <point x="126" y="409" type="line"/>
      <point x="170" y="507" type="line"/>
      <point x="511" y="507" type="line"/>
      <point x="467" y="409" type="line"/>
    </contour>
  </outline>
</glyph>
<glyph name="uni019E" format="2">
  <advance width="608.0"/>
  <unicode hex="019E"/>
  <outline>
    <contour>
      <point x="10" y="0" type="line"/>
      <point x="107" y="500" type="line"/>
      <point x="243" y="500" type="line"/>
      <point x="146" y="0" type="line"/>
    </contour>
    <contour>
      <point x="180" y="279" type="line"/>
      <point x="205" y="405" type="line"/>
      <point x="230" y="433" type="line" smooth="yes"/>
      <point x="255" y="460"/>
      <point x="310" y="496"/>
      <point x="371" y="514"/>
      <point x="406" y="514" type="qcurve" smooth="yes"/>
      <point x="475" y="514"/>
      <point x="548" y="449"/>
      <point x="548" y="387" type="qcurve" smooth="yes"/>
      <point x="548" y="365"/>
      <point x="543" y="339" type="qcurve" smooth="yes"/>
      <point x="477" y="0" type="line"/>
      <point x="341" y="0" type="line"/>
      <point x="399" y="299" type="line" smooth="yes"/>
      <point x="405" y="329"/>
      <point x="405" y="353" type="qcurve" smooth="yes"/>
      <point x="405" y="393"/>
      <point x="371" y="432"/>
      <point x="336" y="432" type="qcurve" smooth="yes"/>
      <point x="302" y="432"/>
      <point x="248" y="396"/>
      <point x="210" y="328"/>
      <point x="200" y="279" type="qcurve"/>
    </contour>
    <contour>
      <point x="302" y="-201" type="line"/>
      <point x="360" y="100" type="line"/>
      <point x="496" y="100" type="line"/>
      <point x="438" y="-201" type="line"/>
    </contour>
  </outline>
</glyph>
<glyph name="uni01C1" format="2">
  <advance width="688.0"/>
  <unicode hex="01C1"/>
  <outline>
    <contour>
      <point x="314" y="-258" type="line"/>
      <point x="519" y="796" type="line"/>
      <point x="669" y="796" type="line"/>
      <point x="464" y="-258" type="line"/>
    </contour>
    <contour>
      <point x="-30" y="-258" type="line"/>
      <point x="175" y="796" type="line"/>
      <point x="325" y="796" type="line"/>
      <point x="120" y="-258" type="line"/>
    </contour>
  </outline>
</glyph>
<glyph name="uni01C2" format="2">
  <advance width="492.0"/>
  <unicode hex="01C2"/>
  <outline>
    <contour>
      <point x="98" y="0" type="line"/>
      <point x="241" y="736" type="line"/>
      <point x="391" y="736" type="line"/>
      <point x="248" y="0" type="line"/>
    </contour>
    <contour>
      <point x="26" y="404" type="line"/>
      <point x="49" y="524" type="line"/>
      <point x="499" y="524" type="line"/>
      <point x="476" y="404" type="line"/>
    </contour>
    <contour>
      <point x="-11" y="213" type="line"/>
      <point x="12" y="333" type="line"/>
      <point x="462" y="333" type="line"/>
      <point x="439" y="213" type="line"/>
    </contour>
  </outline>
</glyph>
<glyph name="uni01DD" format="2">
  <advance width="550.0"/>
  <unicode hex="01DD"/>
  <outline>
    <contour>
      <point x="33" y="166" type="qcurve" smooth="yes"/>
      <point x="33" y="200"/>
      <point x="41" y="239" type="qcurve" smooth="yes"/>
      <point x="48" y="277" type="line"/>
      <point x="370" y="277" type="line"/>
      <point x="373" y="295"/>
      <point x="378" y="332"/>
      <point x="378" y="348" type="qcurve" smooth="yes"/>
      <point x="378" y="382"/>
      <point x="350" y="428"/>
      <point x="308" y="428" type="qcurve" smooth="yes"/>
      <point x="266" y="428"/>
      <point x="215" y="380"/>
      <point x="204" y="344" type="qcurve"/>
      <point x="68" y="344" type="line"/>
      <point x="93" y="429"/>
      <point x="220" y="514"/>
      <point x="315" y="514" type="qcurve" smooth="yes"/>
      <point x="420" y="514"/>
      <point x="514" y="417"/>
      <point x="514" y="335" type="qcurve" smooth="yes"/>
      <point x="514" y="270"/>
      <point x="475" y="145"/>
      <point x="399" y="45"/>
      <point x="288" y="-14"/>
      <point x="216" y="-14" type="qcurve" smooth="yes"/>
      <point x="119" y="-14"/>
      <point x="33" y="88"/>
    </contour>
    <contour>
      <point x="167" y="150" type="qcurve" smooth="yes"/>
      <point x="167" y="127"/>
      <point x="181" y="91"/>
      <point x="213" y="71"/>
      <point x="239" y="71" type="qcurve" smooth="yes"/>
      <point x="272" y="71"/>
      <point x="319" y="104"/>
      <point x="347" y="159"/>
      <point x="353" y="192" type="qcurve"/>
      <point x="171" y="192" type="line"/>
      <point x="167" y="169"/>
    </contour>
  </outline>
</glyph>
<glyph name="dotlessj" format="2">
  <advance width="296.0"/>
  <unicode hex="0237"/>
  <outline>
    <contour>
      <point x="-60" y="-212" type="line"/>
      <point x="-39" y="-103" type="line"/>
      <point x="-27" y="-103" type="line" smooth="yes"/>
      <point x="-3" y="-103"/>
      <point x="20" y="-69"/>
      <point x="24" y="-50" type="qcurve" smooth="yes"/>
      <point x="131" y="500" type="line"/>
      <point x="266" y="500" type="line"/>
      <point x="153" y="-80" type="line" smooth="yes"/>
      <point x="138" y="-155"/>
      <point x="35" y="-212"/>
      <point x="-37" y="-212" type="qcurve" smooth="yes"/>
    </contour>
  </outline>
</glyph>
<glyph name="uni0251" format="2">
  <advance width="586.0"/>
  <unicode hex="0251"/>
  <outline>
    <contour>
      <point x="183" y="187" type="qcurve" smooth="yes"/>
      <point x="183" y="221"/>
      <point x="202" y="303"/>
      <point x="239" y="378"/>
      <point x="294" y="426"/>
      <point x="332" y="426" type="qcurve" smooth="yes"/>
      <point x="378" y="426"/>
      <point x="422" y="352"/>
      <point x="422" y="299" type="qcurve" smooth="yes"/>
      <point x="422" y="265"/>
      <point x="404" y="187"/>
      <point x="367" y="118"/>
      <point x="310" y="74"/>
      <point x="271" y="74" type="qcurve" smooth="yes"/>
      <point x="225" y="74"/>
      <point x="183" y="137"/>
    </contour>
    <contour>
      <point x="46" y="176" type="qcurve" smooth="yes"/>
      <point x="46" y="122"/>
      <point x="84" y="37"/>
      <point x="162" y="-12"/>
      <point x="221" y="-12" type="qcurve" smooth="yes"/>
      <point x="269" y="-12"/>
      <point x="356" y="37"/>
      <point x="388" y="77" type="qcurve"/>
      <point x="373" y="0" type="line"/>
      <point x="508" y="0" type="line"/>
      <point x="605" y="500" type="line"/>
      <point x="470" y="500" type="line"/>
      <point x="458" y="437" type="line"/>
      <point x="444" y="463"/>
      <point x="406" y="496"/>
      <point x="359" y="512"/>
      <point x="331" y="512" type="qcurve" smooth="yes"/>
      <point x="259" y="512"/>
      <point x="151" y="457"/>
      <point x="81" y="362"/>
      <point x="46" y="241"/>
    </contour>
  </outline>
</glyph>
<glyph name="uni0253" format="2">
  <advance width="623.0"/>
  <unicode hex="0253"/>
  <outline>
    <contour>
      <point x="63" y="380" type="line"/>
      <point x="95" y="545" type="line" smooth="yes"/>
      <point x="105" y="599"/>
      <point x="172" y="684"/>
      <point x="269" y="732"/>
      <point x="326" y="732" type="qcurve" smooth="yes"/>
      <point x="376" y="732"/>
      <point x="440" y="718"/>
      <point x="483" y="692"/>
      <point x="501" y="673" type="qcurve"/>
      <point x="417" y="602" type="line"/>
      <point x="404" y="614"/>
      <point x="361" y="628"/>
      <point x="336" y="628" type="qcurve" smooth="yes"/>
      <point x="302" y="628"/>
      <point x="258" y="602"/>
      <point x="230" y="548"/>
      <point x="222" y="506" type="qcurve" smooth="yes"/>
      <point x="198" y="380" type="line"/>
    </contour>
    <contour>
      <point x="418" y="187" type="qcurve" smooth="yes"/>
      <point x="398" y="137"/>
      <point x="332" y="74"/>
      <point x="287" y="74" type="qcurve" smooth="yes"/>
      <point x="248" y="74"/>
      <point x="208" y="118"/>
      <point x="198" y="187"/>
      <point x="210" y="265"/>
      <point x="223" y="299" type="qcurve" smooth="yes"/>
      <point x="237" y="334"/>
      <point x="278" y="392"/>
      <point x="331" y="426"/>
      <point x="362" y="426" type="qcurve" smooth="yes"/>
      <point x="400" y="426"/>
      <point x="437" y="378"/>
      <point x="445" y="303"/>
      <point x="431" y="221"/>
    </contour>
    <contour>
      <point x="551" y="176" type="qcurve" smooth="yes"/>
      <point x="576" y="241"/>
      <point x="588" y="362"/>
      <point x="555" y="457"/>
      <point x="469" y="512"/>
      <point x="397" y="512" type="qcurve" smooth="yes"/>
      <point x="368" y="512"/>
      <point x="315" y="496"/>
      <point x="264" y="463"/>
      <point x="240" y="437" type="qcurve"/>
      <point x="252" y="500" type="line"/>
      <point x="117" y="500" type="line"/>
      <point x="20" y="0" type="line"/>
      <point x="155" y="0" type="line"/>
      <point x="170" y="77" type="line"/>
      <point x="187" y="37"/>
      <point x="255" y="-12"/>
      <point x="302" y="-12" type="qcurve" smooth="yes"/>
      <point x="362" y="-12"/>
      <point x="458" y="37"/>
      <point x="530" y="122"/>
    </contour>
  </outline>
</glyph>
<glyph name="uni0255" format="2">
  <advance width="555.0"/>
  <unicode hex="0255"/>
  <outline>
    <contour>
      <point x="-15" y="-133" type="line"/>
      <point x="21" y="-53"/>
      <point x="115" y="81"/>
      <point x="221" y="180"/>
      <point x="331" y="234"/>
      <point x="383" y="234" type="qcurve" smooth="yes"/>
      <point x="426" y="234"/>
      <point x="484" y="193"/>
      <point x="484" y="149" type="qcurve" smooth="yes"/>
      <point x="484" y="109"/>
      <point x="435" y="48"/>
      <point x="358" y="8"/>
      <point x="273" y="-12"/>
      <point x="238" y="-12" type="qcurve" smooth="yes"/>
      <point x="131" y="-12"/>
      <point x="32" y="77"/>
      <point x="32" y="161" type="qcurve" smooth="yes"/>
      <point x="32" y="225"/>
      <point x="69" y="351"/>
      <point x="143" y="453"/>
      <point x="252" y="514"/>
      <point x="323" y="514" type="qcurve" smooth="yes"/>
      <point x="407" y="514"/>
      <point x="498" y="452"/>
      <point x="498" y="380" type="qcurve" smooth="yes"/>
      <point x="498" y="354"/>
      <point x="492" y="324" type="qcurve"/>
      <point x="360" y="324" type="line"/>
      <point x="361" y="333"/>
      <point x="362" y="350"/>
      <point x="362" y="358" type="qcurve" smooth="yes"/>
      <point x="362" y="388"/>
      <point x="340" y="428"/>
      <point x="308" y="428" type="qcurve" smooth="yes"/>
      <point x="272" y="428"/>
      <point x="220" y="379"/>
      <point x="187" y="304"/>
      <point x="171" y="225"/>
      <point x="171" y="196" type="qcurve" smooth="yes"/>
      <point x="171" y="144"/>
      <point x="220" y="82"/>
      <point x="273" y="82" type="qcurve" smooth="yes"/>
      <point x="286" y="82"/>
      <point x="319" y="87"/>
      <point x="351" y="98"/>
      <point x="372" y="116"/>
      <point x="372" y="131" type="qcurve" smooth="yes"/>
      <point x="372" y="142"/>
      <point x="357" y="155"/>
      <point x="341" y="155" type="qcurve" smooth="yes"/>
      <point x="311" y="155"/>
      <point x="233" y="110"/>
      <point x="148" y="29"/>
      <point x="66" y="-83"/>
      <point x="32" y="-150" type="qcurve"/>
    </contour>
  </outline>
</glyph>
<glyph name="uni0256" format="2">
  <advance width="586.0"/>
  <unicode hex="0256"/>
  <outline>
    <contour>
      <point x="351" y="-82" type="qcurve" smooth="yes"/>
      <point x="351" y="-71"/>
      <point x="353" y="-60" type="qcurve" smooth="yes"/>
      <point x="391" y="134" type="line"/>
      <point x="526" y="134" type="line"/>
      <point x="496" y="-21" type="line"/>
      <point x="495" y="-25"/>
      <point x="495" y="-34"/>
      <point x="495" y="-38" type="qcurve" smooth="yes"/>
      <point x="495" y="-62"/>
      <point x="524" y="-89"/>
      <point x="549" y="-89" type="qcurve" smooth="yes"/>
      <point x="567" y="-89"/>
      <point x="595" y="-75"/>
      <point x="605" y="-66" type="qcurve"/>
      <point x="666" y="-142" type="line"/>
      <point x="603" y="-199"/>
      <point x="514" y="-199" type="qcurve" smooth="yes"/>
      <point x="443" y="-199"/>
      <point x="351" y="-133"/>
    </contour>
    <contour>
      <point x="36" y="185" type="qcurve" smooth="yes"/>
      <point x="36" y="243"/>
      <point x="74" y="360"/>
      <point x="146" y="456"/>
      <point x="253" y="514"/>
      <point x="321" y="514" type="qcurve" smooth="yes"/>
      <point x="358" y="514"/>
      <point x="413" y="496"/>
      <point x="450" y="461"/>
      <point x="458" y="434" type="qcurve"/>
      <point x="391" y="84" type="line"/>
      <point x="372" y="57"/>
      <point x="315" y="12"/>
      <point x="252" y="-14"/>
      <point x="224" y="-14" type="qcurve" smooth="yes"/>
      <point x="126" y="-14"/>
      <point x="36" y="96"/>
    </contour>
    <contour>
      <point x="172" y="188" type="qcurve" smooth="yes"/>
      <point x="172" y="144"/>
      <point x="210" y="76"/>
      <point x="259" y="76" type="qcurve" smooth="yes"/>
      <point x="299" y="76"/>
      <point x="359" y="123"/>
      <point x="399" y="197"/>
      <point x="418" y="280"/>
      <point x="418" y="315" type="qcurve" smooth="yes"/>
      <point x="418" y="343"/>
      <point x="404" y="394"/>
      <point x="367" y="428"/>
      <point x="333" y="428" type="qcurve" smooth="yes"/>
      <point x="293" y="428"/>
      <point x="233" y="380"/>
      <point x="192" y="305"/>
      <point x="172" y="223"/>
    </contour>
    <contour>
      <point x="362" y="0" type="line"/>
      <point x="502" y="722" type="line"/>
      <point x="637" y="722" type="line"/>
      <point x="497" y="0" type="line"/>
    </contour>
  </outline>
</glyph>
<glyph name="uni0257" format="2">
  <advance width="603.0"/>
  <unicode hex="0257"/>
  <outline>
    <contour>
      <point x="174" y="187" type="qcurve" smooth="yes"/>
      <point x="174" y="137"/>
      <point x="216" y="74"/>
      <point x="261" y="74" type="qcurve" smooth="yes"/>
      <point x="300" y="74"/>
      <point x="357" y="118"/>
      <point x="394" y="187"/>
      <point x="412" y="265"/>
      <point x="412" y="299" type="qcurve" smooth="yes"/>
      <point x="412" y="352"/>
      <point x="369" y="426"/>
      <point x="322" y="426" type="qcurve" smooth="yes"/>
      <point x="285" y="426"/>
      <point x="229" y="378"/>
      <point x="192" y="303"/>
      <point x="174" y="221"/>
    </contour>
    <contour>
      <point x="37" y="176" type="qcurve" smooth="yes"/>
      <point x="37" y="241"/>
      <point x="71" y="362"/>
      <point x="142" y="457"/>
      <point x="249" y="512"/>
      <point x="322" y="512" type="qcurve" smooth="yes"/>
      <point x="350" y="512"/>
      <point x="397" y="496"/>
      <point x="435" y="463"/>
      <point x="449" y="437" type="qcurve"/>
      <point x="461" y="500" type="line"/>
      <point x="596" y="500" type="line"/>
      <point x="499" y="0" type="line"/>
      <point x="364" y="0" type="line"/>
      <point x="379" y="77" type="line"/>
      <point x="347" y="37"/>
      <point x="259" y="-12"/>
      <point x="212" y="-12" type="qcurve" smooth="yes"/>
      <point x="153" y="-12"/>
      <point x="75" y="37"/>
      <point x="37" y="122"/>
    </contour>
    <contour>
      <point x="438" y="380" type="line"/>
      <point x="470" y="545" type="line" smooth="yes"/>
      <point x="480" y="599"/>
      <point x="547" y="684"/>
      <point x="644" y="732"/>
      <point x="701" y="732" type="qcurve" smooth="yes"/>
      <point x="751" y="732"/>
      <point x="815" y="718"/>
      <point x="858" y="692"/>
      <point x="876" y="673" type="qcurve"/>
      <point x="792" y="602" type="line"/>
      <point x="779" y="614"/>
      <point x="735" y="628"/>
      <point x="710" y="628" type="qcurve" smooth="yes"/>
      <point x="677" y="628"/>
      <point x="633" y="602"/>
      <point x="605" y="548"/>
      <point x="597" y="506" type="qcurve" smooth="yes"/>
      <point x="573" y="380" type="line"/>
    </contour>
  </outline>
</glyph>
<glyph name="uni025A" format="2">
  <advance width="766.0"/>
  <unicode hex="025A"/>
  <outline>
    <contour>
      <point x="30" y="145" type="qcurve" smooth="yes"/>
      <point x="30" y="155"/>
      <point x="32" y="176"/>
      <point x="34" y="186" type="qcurve"/>
      <point x="145" y="234" type="line"/>
      <point x="143" y="223"/>
      <point x="142" y="202"/>
      <point x="142" y="193" type="qcurve" smooth="yes"/>
      <point x="142" y="126"/>
      <point x="187" y="71"/>
      <point x="227" y="71" type="qcurve" smooth="yes"/>
      <point x="264" y="71"/>
      <point x="316" y="109"/>
      <point x="350" y="171"/>
      <point x="369" y="244"/>
      <point x="377" y="315"/>
      <point x="377" y="342" type="qcurve" smooth="yes"/>
      <point x="377" y="368"/>
      <point x="364" y="407"/>
      <point x="334" y="428"/>
      <point x="307" y="428" type="qcurve" smooth="yes"/>
      <point x="266" y="428"/>
      <point x="215" y="380"/>
      <point x="204" y="344" type="qcurve"/>
      <point x="68" y="344" type="line"/>
      <point x="93" y="429"/>
      <point x="220" y="514"/>
      <point x="315" y="514" type="qcurve" smooth="yes"/>
      <point x="420" y="514"/>
      <point x="514" y="417"/>
      <point x="514" y="335" type="qcurve" smooth="yes"/>
      <point x="514" y="270"/>
      <point x="475" y="145"/>
      <point x="398" y="45"/>
      <point x="285" y="-14"/>
      <point x="211" y="-14" type="qcurve" smooth="yes"/>
      <point x="146" y="-14"/>
      <point x="66" y="32"/>
      <point x="30" y="104"/>
    </contour>
    <contour>
      <point x="89" y="125" type="line"/>
      <point x="70" y="201" type="line"/>
      <point x="668" y="452" type="line"/>
      <point x="639" y="304" type="line" smooth="yes"/>
      <point x="638" y="298"/>
      <point x="638" y="293" type="qcurve" smooth="yes"/>
      <point x="638" y="271"/>
      <point x="666" y="271" type="qcurve" smooth="yes"/>
      <point x="690" y="271"/>
      <point x="708" y="300"/>
      <point x="712" y="320" type="qcurve"/>
      <point x="777" y="320" type="line"/>
      <point x="771" y="290"/>
      <point x="738" y="228"/>
      <point x="681" y="186"/>
      <point x="638" y="186" type="qcurve" smooth="yes"/>
      <point x="612" y="186"/>
      <point x="565" y="204"/>
      <point x="534" y="244"/>
      <point x="534" y="277" type="qcurve" smooth="yes"/>
      <point x="534" y="289"/>
      <point x="537" y="302" type="qcurve" smooth="yes"/>
      <point x="540" y="318" type="line"/>
      <point x="551" y="318" type="line"/>
    </contour>
  </outline>
</glyph>
<glyph name="uni025F" format="2">
  <advance width="383.0"/>
  <unicode hex="025F"/>
  <outline>
    <contour>
      <point x="-114" y="-158" type="qcurve"/>
      <point x="-15" y="-72" type="line"/>
      <point x="-8" y="-85"/>
      <point x="22" y="-104"/>
      <point x="46" y="-104" type="qcurve" smooth="yes"/>
      <point x="63" y="-104"/>
      <point x="87" y="-83"/>
      <point x="91" y="-63" type="qcurve" smooth="yes"/>
      <point x="201" y="500" type="line"/>
      <point x="336" y="500" type="line"/>
      <point x="223" y="-80" type="line" smooth="yes"/>
      <point x="211" y="-142"/>
      <point x="114" y="-220"/>
      <point x="47" y="-220" type="qcurve" smooth="yes"/>
      <point x="-7" y="-220"/>
      <point x="-86" y="-188"/>
    </contour>
    <contour>
      <point x="44" y="202" type="line"/>
      <point x="62" y="297" type="line"/>
      <point x="382" y="297" type="line"/>
      <point x="364" y="202" type="line"/>
    </contour>
  </outline>
</glyph>
<glyph name="uni0260" format="2">
  <advance width="621.0"/>
  <unicode hex="0260"/>
  <outline>
    <contour>
      <point x="469" y="400" type="line"/>
      <point x="488" y="500" type="line" smooth="yes"/>
      <point x="502" y="569"/>
      <point x="595" y="648"/>
      <point x="664" y="648" type="qcurve" smooth="yes"/>
      <point x="684" y="648"/>
      <point x="730" y="641"/>
      <point x="740" y="633" type="qcurve"/>
      <point x="722" y="538" type="line"/>
      <point x="703" y="552"/>
      <point x="679" y="552" type="qcurve" smooth="yes"/>
      <point x="657" y="552"/>
      <point x="628" y="526"/>
      <point x="623" y="500" type="qcurve" smooth="yes"/>
      <point x="604" y="400" type="line"/>
    </contour>
    <contour>
      <point x="176" y="-80" type="qcurve" smooth="yes"/>
      <point x="176" y="-67"/>
      <point x="179" y="-52" type="qcurve"/>
      <point x="314" y="-52" type="line"/>
      <point x="313" y="-58"/>
      <point x="313" y="-64" type="qcurve" smooth="yes"/>
      <point x="313" y="-91"/>
      <point x="364" y="-113"/>
      <point x="398" y="-113" type="qcurve" smooth="yes"/>
      <point x="444" y="-113"/>
      <point x="498" y="-79"/>
      <point x="530" y="-7"/>
      <point x="541" y="49" type="qcurve" smooth="yes"/>
      <point x="547" y="81" type="line"/>
      <point x="529" y="64"/>
      <point x="482" y="26"/>
      <point x="425" y="0"/>
      <point x="392" y="0" type="qcurve" smooth="yes"/>
      <point x="296" y="0"/>
      <point x="208" y="109"/>
      <point x="208" y="196" type="qcurve" smooth="yes"/>
      <point x="208" y="254"/>
      <point x="244" y="367"/>
      <point x="316" y="459"/>
      <point x="419" y="514"/>
      <point x="485" y="514" type="qcurve" smooth="yes"/>
      <point x="544" y="514"/>
      <point x="603" y="485"/>
      <point x="619" y="454" type="qcurve"/>
      <point x="628" y="500" type="line"/>
      <point x="763" y="500" type="line"/>
      <point x="667" y="5" type="line" smooth="yes"/>
      <point x="653" y="-66"/>
      <point x="572" y="-156"/>
      <point x="451" y="-199"/>
      <point x="377" y="-199" type="qcurve" smooth="yes"/>
      <point x="345" y="-199"/>
      <point x="275" y="-189"/>
      <point x="214" y="-163"/>
      <point x="176" y="-117"/>
    </contour>
    <contour>
      <point x="343" y="202" type="qcurve" smooth="yes"/>
      <point x="343" y="155"/>
      <point x="384" y="86"/>
      <point x="434" y="86" type="qcurve" smooth="yes"/>
      <point x="474" y="86"/>
      <point x="532" y="131"/>
      <point x="569" y="202"/>
      <point x="586" y="281"/>
      <point x="586" y="315" type="qcurve" smooth="yes"/>
      <point x="586" y="343"/>
      <point x="572" y="395"/>
      <point x="535" y="428"/>
      <point x="501" y="428" type="qcurve" smooth="yes"/>
      <point x="462" y="428"/>
      <point x="402" y="384"/>
      <point x="363" y="314"/>
      <point x="343" y="236"/>
    </contour>
  </outline>
</glyph>
<glyph name="uni0262" format="2">
  <advance width="582.0"/>
  <unicode hex="0262"/>
  <outline>
    <contour>
      <point x="37" y="172" type="qcurve" smooth="yes"/>
      <point x="37" y="244"/>
      <point x="83" y="369"/>
      <point x="169" y="462"/>
      <point x="292" y="514"/>
      <point x="368" y="514" type="qcurve" smooth="yes"/>
      <point x="424" y="514"/>
      <point x="502" y="483"/>
      <point x="543" y="423"/>
      <point x="543" y="378" type="qcurve" smooth="yes"/>
      <point x="543" y="373"/>
      <point x="541" y="355"/>
      <point x="538" y="344" type="qcurve"/>
      <point x="404" y="344" type="line"/>
      <point x="407" y="360"/>
      <point x="407" y="371" type="qcurve" smooth="yes"/>
      <point x="407" y="395"/>
      <point x="380" y="423"/>
      <point x="344" y="423" type="qcurve" smooth="yes"/>
      <point x="297" y="423"/>
      <point x="231" y="377"/>
      <point x="191" y="302"/>
      <point x="172" y="217"/>
      <point x="172" y="179" type="qcurve" smooth="yes"/>
      <point x="172" y="121"/>
      <point x="233" y="77"/>
      <point x="293" y="77" type="qcurve" smooth="yes"/>
      <point x="316" y="77"/>
      <point x="358" y="82"/>
      <point x="376" y="87" type="qcurve"/>
      <point x="395" y="182" type="line"/>
      <point x="303" y="182" type="line"/>
      <point x="319" y="266" type="line"/>
      <point x="516" y="266" type="line"/>
      <point x="468" y="18" type="line"/>
      <point x="408" y="1"/>
      <point x="311" y="-14"/>
      <point x="266" y="-14" type="qcurve" smooth="yes"/>
      <point x="153" y="-14"/>
      <point x="37" y="80"/>
    </contour>
  </outline>
</glyph>
<glyph name="uni0263" format="2">
  <advance width="530.0"/>
  <unicode hex="0263"/>
  <outline>
    <contour>
      <point x="177" y="-82" type="qcurve" smooth="yes"/>
      <point x="177" y="-91"/>
      <point x="185" y="-102"/>
      <point x="196" y="-102" type="qcurve" smooth="yes"/>
      <point x="209" y="-102"/>
      <point x="223" y="-84"/>
      <point x="229" y="-58"/>
      <point x="229" y="-47" type="qcurve" smooth="yes"/>
      <point x="229" y="-39"/>
      <point x="226" y="-21"/>
      <point x="220" y="0"/>
      <point x="214" y="10" type="qcurve"/>
      <point x="207" y="1"/>
      <point x="194" y="-21"/>
      <point x="183" y="-45"/>
      <point x="177" y="-70"/>
    </contour>
    <contour>
      <point x="43" y="-102" type="qcurve" smooth="yes"/>
      <point x="43" y="-78"/>
      <point x="67" y="-17"/>
      <point x="104" y="46"/>
      <point x="143" y="100"/>
      <point x="157" y="116" type="qcurve"/>
      <point x="55" y="500" type="line"/>
      <point x="198" y="500" type="line"/>
      <point x="276" y="170" type="line"/>
      <point x="213" y="170" type="line"/>
      <point x="439" y="500" type="line"/>
      <point x="594" y="500" type="line"/>
      <point x="309" y="129" type="line"/>
      <point x="318" y="102"/>
      <point x="331" y="37"/>
      <point x="338" y="-26"/>
      <point x="338" y="-49" type="qcurve" smooth="yes"/>
      <point x="338" y="-97"/>
      <point x="298" y="-165"/>
      <point x="226" y="-200"/>
      <point x="178" y="-200" type="qcurve" smooth="yes"/>
      <point x="112" y="-200"/>
      <point x="43" y="-147"/>
    </contour>
  </outline>
</glyph>
